<?xml version="1.0" standalone="no"?>
<!DOCTYPE svg PUBLIC "-//W3C//DTD SVG 1.1//EN" "http://www.w3.org/Graphics/SVG/1.1/DTD/svg11.dtd" >
<svg xmlns="http://www.w3.org/2000/svg" xmlns:xlink="http://www.w3.org/1999/xlink" version="1.1">
<metadata>
Created by FontForge 20200427 at Mon Dec  8 06:56:20 2014
 By www
(c) 2014 Jesse Ragan. All Rights Reserved.
</metadata>
<defs>
<font id="CortadoScriptWeb-Regular" horiz-adv-x="480" >
  <font-face 
    font-family="Cortado Script Web"
    font-weight="400"
    font-stretch="normal"
    units-per-em="1000"
    panose-1="3 6 6 2 4 7 2 3 3 4"
    ascent="680"
    descent="-320"
    x-height="357"
    cap-height="679"
    bbox="-331 -320 1200 893.6"
    underline-thickness="50"
    underline-position="-100"
    unicode-range="U+0020-2212"
  />
<missing-glyph horiz-adv-x="610" 
d="M42 48q130 30 245 48q123 192 341 500q-128 -29 -256 -44q-163 -264 -330 -504zM-29 -56q-38 -5 -50 10l-20 15q-8 -3 -13 -3q-3 0 -5.5 3.5t0.5 16t14 30.5q145 233 363 549q-10 9 -26 29q-17 21 15 27q38 8 57 11l16 23q18 25 32 18q25 -16 33 -27q210 35 361 43
q13 1 16 -2.5t-3 -11.5l-12 -17q19 -18 -2 -55q-55 -98 -178.5 -281t-215.5 -295q-10 -11 -16 -16t-16 -8t-15 -6q-50 -23 -71 -26q-10 -1 -12.5 4t2.5 13q-38 -6 -125 -23.5t-129 -20.5z" />
    <glyph glyph-name="f_f.00" unicode="ff" horiz-adv-x="520" 
d="M304 -49q-46 -66 -76.5 -88.5t-69.5 -22.5q-26 0 -36 4.5t-5 15.5q45 96 196 329q19 30 86 130q-37 -3 -108 -7q-201 -318 -277 -406q-32 -38 -65 -43q-3 -1 -18.5 -5t-23.5 -4q-26 0 -14 32q18 49 66.5 138.5t97.5 164.5q43 67 74 112q-21 0 -31 10q-9 9 -16 20.5
t-7 14.5q0 4 11 7q33 5 86 11q134 195 230 287q30 29 52 29q30 0 55 -11q24 -11 24 -37q0 -23 -15 -62t-34 -67q-16 -25 -49 -20q-2 0 -14 0.5t-18 4.5q-37 -50 -76 -115q20 1 57 2.5t53 1.5q125 176 198 254q37 38 56 48.5t53 10.5q23 0 33.5 -12t10.5 -45q0 -41 -20 -110
q-10 -29 -31 -45q-27 -13 -55 -16q-14 -2 -24 21q-38 -51 -69 -99q46 2 56 2q31 0 31 -7q0 -10 -10 -24q-10 -15 -53 -19q-10 -1 -29.5 -2.5t-27.5 -2.5q-98 -155 -254 -380z" />
    <glyph glyph-name="s_s.00" unicode="ss" horiz-adv-x="445" 
d="M56 237q0 66 85 126q43 32 74 32q28 0 67 -31q37 -32 14 -46q-90 -55 -126.5 -84.5t-36.5 -51.5q0 -18 34.5 -52.5t34.5 -64.5q0 -52 -60 -92q-48 -33 -97 -33q-35 0 -59 24q-15 15 -22 32q-6 12 6 17q70 23 108.5 53t38.5 54q0 13 -15.5 29.5t-30.5 38t-15 49.5z
M332 139q0 -13 24.5 -48.5t24.5 -62.5q0 -65 -70 -104q-36 -20 -77 -20q-39 0 -71 16q-7 4 -11.5 9t-4.5 9t4 6q50 24 99.5 72t49.5 78q0 23 -26 56t-26 58q0 34 27.5 60t68.5 52t58 50q8 14 35 -13q44 -44 44 -72q0 -22 -21 -42t-65 -45q-63 -35 -63 -59z" />
    <glyph glyph-name="t_f.00" unicode="tf" horiz-adv-x="565" 
d="M219 -137q-26 0 -36 4.5t-5 15.5q47 102 180 306q19 30 86 130q-50 -4 -151 -10q-85 -129 -118 -184t-37 -80q43 10 86 48q25 21 27 21q4 0 7 -5q4 -5 4 -10q0 -10 -20 -37q-67 -87 -122 -87q-44 0 -79 34q-34 27 -32 68t48 112q56 87 71 108q-18 1 -28 10q-9 7 -16 19.5
t-7 19.5q0 8 16 10q61 7 80 8q57 84 110 154q36 48 50 48q6 0 11 -4t12 -13t14 -15q22 -18 24.5 -36.5t-10 -44t-50.5 -81.5q59 1 150 5q125 176 198 254q37 38 56 48.5t53 10.5q23 0 33.5 -12t10.5 -45q0 -41 -20 -110q-10 -29 -31 -45q-27 -13 -55 -16q-14 -2 -24 21
q-38 -51 -69 -99q46 2 56 2q31 0 31 -7q0 -10 -10 -24q-10 -15 -53 -19q-10 -1 -29.5 -2.5t-27.5 -2.5q-75 -119 -238 -357q-45 -66 -76 -88.5t-70 -22.5z" />
    <glyph glyph-name="f_t.10" unicode="ft" horiz-adv-x="555" 
d="M-51 -137q-3 -1 -18.5 -5t-23.5 -4q-26 0 -14 32q18 49 66.5 138.5t97.5 164.5q15 23 40.5 61.5t33.5 50.5q-16 2 -27 16q-21 24 -21 38q0 3 12 6q24 1 79 3q134 195 230 287q30 29 52 29q30 0 55 -11q24 -11 24 -37q0 -23 -15 -62t-34 -67q-16 -25 -49 -20q-2 0 -14 0.5
t-18 4.5q-30 -42 -77 -116l110 6q58 87 120 166q9 12 25 6q37 -14 40 -15q27 -6 27 -29q0 -39 -50 -122q26 1 67 1q15 0 15 -8q0 -3 -15 -20q-10 -12 -48 -16q-9 -1 -25.5 -2.5t-24.5 -2.5q-13 -19 -50.5 -75t-54 -82t-35 -64t-22.5 -64q59 7 106 38t99 100l3 4q8 11 12 7
l3 -3q8 -8 2 -19l-3 -5q-50 -83 -129 -139.5t-139 -56.5q-32 0 -57 17.5t-37 38.5q-24 46 45 156q58 90 86 131q-29 -3 -109 -10q-189 -302 -275 -404q-32 -38 -65 -43z" />
    <glyph glyph-name="t_t.10" unicode="tt" horiz-adv-x="585" 
d="M247 52q-72 -87 -132 -87q-44 0 -79 37q-33 32 -29.5 73.5t50.5 113.5q56 87 71 108q-18 1 -28 10q-9 7 -16 19.5t-7 19.5q0 8 16 10q61 7 80 8q57 84 110 154q36 48 50 48q6 0 11 -4t12 -13t14 -15q22 -18 24.5 -36.5t-10 -43.5t-49.5 -81l135 6q61 91 108 165
q9 12 25 6q15 -6 50 -15q27 -6 27 -29q0 -39 -50 -122q26 1 67 1q15 0 15 -8q0 -3 -15 -20q-10 -12 -48 -16q-9 -1 -25.5 -2.5t-24.5 -2.5q-15 -23 -50 -74.5t-53 -79t-35.5 -64t-21.5 -62.5q59 6 105.5 35.5t97.5 97.5l3 4q8 11 12 7l3 -3q8 -8 2 -19l-3 -5
q-49 -83 -127.5 -137t-138.5 -54q-32 0 -57 17.5t-37 38.5q-24 45 43 151q38 58 88 132q-94 -8 -137 -12q-153 -231 -160 -276q49 8 96 50q25 21 27 21q4 0 7 -5q4 -5 4 -10q0 -12 -20 -37z" />
    <glyph glyph-name=".notdef" horiz-adv-x="610" 
d="M42 48q130 30 245 48q123 192 341 500q-128 -29 -256 -44q-163 -264 -330 -504zM-29 -56q-38 -5 -50 10l-20 15q-8 -3 -13 -3q-3 0 -5.5 3.5t0.5 16t14 30.5q145 233 363 549q-10 9 -26 29q-17 21 15 27q38 8 57 11l16 23q18 25 32 18q25 -16 33 -27q210 35 361 43
q13 1 16 -2.5t-3 -11.5l-12 -17q19 -18 -2 -55q-55 -98 -178.5 -281t-215.5 -295q-10 -11 -16 -16t-16 -8t-15 -6q-50 -23 -71 -26q-10 -1 -12.5 4t2.5 13q-38 -6 -125 -23.5t-129 -20.5z" />
    <glyph glyph-name=".null" horiz-adv-x="0" 
 />
    <glyph glyph-name="nonmarkingreturn" horiz-adv-x="333" 
 />
    <glyph glyph-name="space" unicode=" " horiz-adv-x="150" 
 />
    <glyph glyph-name="exclam" unicode="!" horiz-adv-x="245" 
d="M336 612q12 22 16.5 28t10.5 6q14 0 61 -44q30 -29 -4 -84q-24 -40 -87.5 -130.5t-113.5 -153.5q-49 -58 -83 -65q-10 -1 -33 -1.5t-32 -2.5q-5 -1 -7.5 2t1.5 11q129 182 271 434zM-37 11q31 55 53 87q11 15 31 9q26 -8 41 -16q13 -6 16 -19t-6 -28q-30 -44 -47 -61
q-7 -7 -19 -7q-26 0 -60 10q-20 6 -9 25z" />
    <glyph glyph-name="quotedbl" unicode="&#x22;" horiz-adv-x="370" 
d="M171 344q99 145 157 273q5 11 18 12q36 5 74 -18q24 -11 7 -43q-30 -54 -114 -162q-20 -22 -49 -45q-27 -21 -87 -30q-6 -1 -7.5 3.5t1.5 9.5zM338 336q95 139 153 267q5 11 18 12q36 5 74 -18q24 -11 7 -43q-28 -51 -110 -156q-20 -22 -49 -45q-27 -21 -87 -30
q-6 -1 -7.5 3.5t1.5 9.5z" />
    <glyph glyph-name="numbersign" unicode="#" horiz-adv-x="580" 
d="M272 248q35 5 109 15q10 15 21.5 31.5t25.5 36.5t22 31q-34 -5 -94 -10q-50 -63 -84 -104zM-16 -45q-11 -1 -15.5 2.5t-0.5 11.5q47 90 104 175h-4q-38 -5 -50 10l-30 24q-11 12 8 18q70 15 128 26q51 72 87 118l-90 -6q-12 -1 -24 11q-3 2 -5 4q-18 18 15 27
q64 17 156 32q32 41 70 87t60 73t30 38q13 23 26 20q22 -3 44 -19q28 -17 8 -62q-10 -23 -84 -117q58 6 86 8q19 26 83 116q11 16 20 12q17 -6 35 -19q12 -9 13 -20.5t-10 -38.5q-1 -2 -19 -41q20 2 50.5 4t39.5 3q8 1 8.5 -2.5t-5.5 -11.5q-8 -11 -11.5 -15t-10 -10
t-14.5 -9t-21 -6q-35 -9 -73 -15q-30 -49 -69 -102q15 1 41 4t47 5t40 3q7 1 9 -1t-1 -7q-5 -8 -12 -14t-20.5 -15l-19.5 -13q-22 -16 -78 -25q-27 -3 -59 -9q-65 -84 -130 -162q-9 -12 -15.5 -16.5t-16 -7.5t-15.5 -6q-54 -25 -61 -26q-10 -1 -12.5 4t2.5 14q22 48 109 176
q-17 -3 -59 -10.5t-63 -10.5q-66 -83 -100 -130q-36 -52 -60 -64q-23 -12 -61 -15z" />
    <glyph glyph-name="dollar" unicode="$" horiz-adv-x="445" 
d="M235 334q0 -20 19 -37q18 21 38 45.5t44.5 55t37.5 46.5q-71 -29 -105 -58.5t-34 -51.5zM308 187q0 18 -29 40q-70 -86 -101 -126q61 12 95.5 34.5t34.5 51.5zM19 -97q-10 -10 -32 -10q-20 4 -33 11q-12 11 -4 23q20 31 60 79q-21 21 -33 49q-14 38 6 36q55 -3 103 0
q13 16 62.5 76t78.5 95q-41 27 -64.5 53.5t-23.5 61.5q0 43 47 94t127 87q116 53 198 58q56 66 64 75q8 10 14 -1q16 -32 16 -38q0 -14 -26 -51q18 -12 39 -42q8 -13 11 -24t1 -16.5t-8 -6.5q-84 -16 -138 -31q-46 -58 -177 -219q20 -12 32.5 -21.5t27.5 -24t22 -33.5t7 -41
q0 -68 -85.5 -121t-196.5 -53q-20 0 -36 3q-40 -48 -59 -68z" />
    <glyph glyph-name="percent" unicode="%" horiz-adv-x="595" 
d="M292 368q-39 0 -73 23q-31 20 -35 60.5t27 89.5q22 33 63.5 58.5t85.5 25.5q27 0 41 -26q25 1 38.5 -17.5t13.5 -48.5q0 -43 -28 -87q-54 -78 -133 -78zM63 -12q-51 -13 -68 -13q-14 0 -2 12q390 377 642 596q49 42 60 42q6 0 12 -21q11 -41 -38 -87q-293 -276 -511 -469
q-57 -48 -95 -60zM293 505q-23 -33 -20 -69q48 -4 86 40q19 21 26 44.5t1 37.5q-56 1 -93 -53zM403 -25q-42 0 -71 23q-29 24 -34 62.5t23 87.5q21 31 61 56t83 25q31 0 53 -18q44 -13 44 -72q0 -43 -29 -86q-24 -35 -58.5 -56.5t-71.5 -21.5zM403 111q-25 -34 -17 -69
q47 -3 82 38q22 25 27 55t-8 38q-43 -5 -84 -62z" />
    <glyph glyph-name="ampersand" unicode="&#x26;" horiz-adv-x="570" 
d="M198 -25q-45 0 -79 22q-89 58 -89 152q0 78 67.5 135.5t207.5 107.5q-26 40 -26 77q0 72 118 120q85 36 147 36q50 0 90 -56q12 -18 16 -32t0.5 -21.5t-11.5 -8.5q-299 -45 -299 -100q0 -19 45 -64q7 -7 7 -13q0 -15 -35 -28q-97 -34 -163.5 -98t-66.5 -119q0 -6 1 -9
q91 8 171.5 36.5t125.5 62.5q-50 -4 -72 -4q-18 0 -24 4.5t-3 13.5q5 16 8 43q2 16 31 20q108 14 233 54q7 2 7 -3q0 -51 -10 -76q-11 -27 -55 -36q-39 -7 -89 -13q4 -16 6 -38q1 -25 -31 -53q-50 -45 -112 -78.5t-116 -33.5z" />
    <glyph glyph-name="quotesingle" unicode="'" horiz-adv-x="200" 
d="M164 334q99 145 157 273q5 11 18 12q36 5 74 -18q24 -11 7 -43q-30 -54 -114 -162q-20 -22 -49 -45q-27 -21 -87 -30q-6 -1 -7.5 3.5t1.5 9.5z" />
    <glyph glyph-name="parenleft" unicode="(" horiz-adv-x="385" 
d="M589 588q-211 -97 -309 -243q-50 -75 -73.5 -163t-19 -167.5t32.5 -143.5q15 -34 15 -41q0 -10 -13 -10q-20 0 -35 5q-16 5 -31 23q-52 60 -75 146.5t-3 193.5t89 201q61 83 165.5 155t229.5 115q48 16 69 16q8 0 11 -4.5t6 -15.5q7 -37 -59 -67z" />
    <glyph glyph-name="parenright" unicode=")" horiz-adv-x="385" 
d="M187 150q46 71 68 153t19 157t-27 139q-14 35 1 53l6 8t5 6.5t3.5 4.5t3 3t3.5 1q8 0 35 -32q52 -61 75.5 -146t5.5 -191t-85 -200q-72 -101 -168.5 -165.5t-239.5 -111.5q-27 -9 -57 -9q-23 0 -42 9t-19 19q0 9 28 19q262 94 385 283z" />
    <glyph glyph-name="asterisk" unicode="*" horiz-adv-x="325" 
d="M311 396q-9 -13 -18 -13q-36 0 -36 19q0 10 10 32q12 24 19 36q-20 -4 -36 -9q-30 -9 -44 0q-9 4 -16 21q-5 15 9 19q8 2 110 35q-15 24 -37 70q-9 17 11 23q16 4 26 1.5t19 -15.5q4 -5 12.5 -17.5t12.5 -18.5q34 51 47 68q8 11 14 11q7 0 16 -11q21 -23 3 -61
q-1 -2 -4 -7.5t-5 -9.5q13 3 41.5 10.5t40.5 10.5q16 4 21.5 0.5t5.5 -18.5q0 -13 -7.5 -18.5t-47.5 -22.5q-33 -14 -79 -28q26 -43 43 -78q7 -15 -4 -21q-22 -16 -38 1q-17 19 -44 54q-21 -32 -45 -63z" />
    <glyph glyph-name="plus" unicode="+" horiz-adv-x="490" 
d="M108 33q-12 0 -11.5 14t12.5 32q32 50 73 108q-82 -8 -97 -8q-21 2 -25 22q-1 3 -7 20.5t-6 26.5t17 10q96 9 178 15q69 96 109 147q9 11 22 6q26 -9 39 -22q19 -24 -6 -69q-9 -16 -34 -54l93 6q24 1 39 -12q15 -15 15 -35q0 -15 -46 -21q-123 -14 -155 -17
q-38 -56 -95 -133q-16 -22 -53 -26q-7 -1 -29 -5.5t-33 -4.5z" />
    <glyph glyph-name="comma" unicode="," horiz-adv-x="220" 
d="M118 77q0 -31 -26.5 -65t-68.5 -58q-73 -42 -118 -42q-34 0 -34 8q0 3 8 10q76 61 117 116q30 42 30 60q0 4 -2 10t-2 9q0 9 11 9q18 0 45 -9q40 -12 40 -48z" />
    <glyph glyph-name="hyphen" unicode="-" horiz-adv-x="280" 
d="M36 184q0 46 10 47q97 13 122 17q22 3 51.5 9t49 10t23.5 4q9 0 4 -11q-16 -35 -28 -53q-26 -41 -65 -49q-88 -19 -145 -15q-22 0 -22 41z" />
    <glyph glyph-name="period" unicode="." horiz-adv-x="220" 
d="M22 -20q-28 0 -50 15q-10 8 -4 19q7 15 17.5 34t22.5 41t17 31q9 13 20 11q30 -7 59 -22q22 -13 14 -34q-6 -18 -24 -44t-28 -35q-21 -16 -44 -16z" />
    <glyph glyph-name="slash" unicode="/" horiz-adv-x="334" 
d="M-165 -134q-6 -1 -7.5 3t3.5 10q178 205 404.5 452.5t332.5 350.5q17 15 27 2q9 -13 17 -36q14 -30 -20 -67q-224 -252 -609 -659q-32 -34 -66 -40q-23 -7 -82 -16z" />
    <glyph glyph-name="zero" unicode="0" horiz-adv-x="485" 
d="M196 -25q-43 0 -83 29q-72 50 -72 130q0 85 67 179q58 76 134 124t132 48q26 0 49 -10q45 -2 73.5 -39t28.5 -93q0 -77 -46.5 -163t-124.5 -145.5t-158 -59.5zM242 253q-80 -115 -51 -178q81 9 147.5 62.5t98.5 115t32 110.5q0 45 -25 64q-109 -41 -202 -174z" />
    <glyph glyph-name="one" unicode="1" horiz-adv-x="320" 
d="M-12 -25q-14 0 -6 12q114 155 227 342q-64 -37 -113 -53q-10 -3 -10 5q0 17 6 26.5t27 22.5q40 24 89 66.5t84 83.5q15 17 22 17q14 0 52 -34q20 -18 27 -31t1.5 -40.5t-31.5 -71.5q-88 -147 -195 -291q-21 -28 -87 -42q-66 -12 -93 -12z" />
    <glyph glyph-name="two" unicode="2" horiz-adv-x="410" 
d="M25 -10q-38 0 -53.5 5.5t-15.5 22.5q0 28 26 68q33 50 95 93t116 66t95 47.5t41 45.5q0 36 -51 36q-61 0 -159 -55q-9 -5 -12 -1.5t2 11.5q16 34 39 69q27 42 56 56q65 31 132 31q74 0 115 -31t41 -80q0 -44 -29.5 -76.5t-78 -53.5t-100 -38.5t-107.5 -41t-89 -51.5
q187 3 277 19q15 1 15 -5q0 -16 -38 -81q-14 -24 -32.5 -34t-51.5 -13q-122 -9 -233 -9z" />
    <glyph glyph-name="three" unicode="3" horiz-adv-x="410" 
d="M-24 -180q-33 0 -52.5 14.5t-31.5 51.5q-5 17 -5.5 29t2 17t7.5 5q154 1 253 49.5t118 104.5q-43 41 -185 46q-10 0 -10 8q0 12 22 52q17 30 74 41q84 15 119 33.5t44 48.5q7 24 -10 40t-64 16q-64 0 -142 -33q-9 -4 -11 -1t2 11q17 37 37 63q20 24 50 38q59 31 121 31
q100 0 138 -49t13 -115q-16 -43 -70 -74t-130 -43q38 -25 55 -78q19 -62 -2 -122t-73 -101q-50 -38 -123 -60.5t-146 -22.5z" />
    <glyph glyph-name="four" unicode="4" horiz-adv-x="515" 
d="M68 -182q-11 0 -3 14q56 89 118 186q-83 -6 -140 -6q-39 0 -46 26q-8 28 -8 47q0 38 42 80q82 80 201 170.5t202 138.5q19 11 30 11q25 0 67 -24q68 -39 43 -83q-46 -79 -153 -242h57q14 0 14 -6q0 -11 -31 -61q-20 -32 -67 -36q-30 -2 -44 -4q-18 -26 -54.5 -80
t-54.5 -80q-17 -25 -29 -31q-7 -4 -17 -5q-123 -15 -127 -15zM92 131q48 1 165 3q134 205 180 282q-228 -166 -345 -285z" />
    <glyph glyph-name="five" unicode="5" horiz-adv-x="410" 
d="M-12 -180q-57 0 -87 51q-8 15 -11 30t-1 24.5t8 10.5q156 17 266.5 76.5t117.5 131.5q-71 19 -187 -21q-24 -8 -31 -1q-12 13 -19 30q-11 23 7 47q51 74 127 175q-3 5 -7 15q-10 30 -10 48q0 9 11 9q25 3 62 6q3 5 12.5 17.5t13.5 19.5q17 26 24 26q8 0 16 -11
q3 -3 7.5 -9t6.5 -9t3.5 -7.5t-0.5 -9.5t-6 -11q163 11 236 11q10 0 10 -7q0 -15 -20 -45q-37 -63 -111 -69q-95 -9 -192 -9q-18 -27 -56 -83q70 -5 104.5 -30.5t52.5 -66.5q12 -25 12 -61q-1 -75 -59 -140.5t-139.5 -101.5t-160.5 -36z" />
    <glyph glyph-name="six" unicode="6" 
d="M222 -30q-60 -3 -92 35q-52 31 -71.5 83t-8.5 106.5t44 105.5q70 108 169.5 181t236.5 127q45 17 72 17q26 0 59 -11q32 -11 -4 -27q-177 -89 -288 -195q60 -7 101 -49q43 -46 43.5 -108t-41.5 -126t-99.5 -100.5t-120.5 -38.5zM214 237q-31 -49 -40 -98t2 -72
q52 5 103 35.5t85 80.5q56 80 36 128q-61 28 -159 -34q-18 -26 -27 -40z" />
    <glyph glyph-name="seven" unicode="7" horiz-adv-x="415" 
d="M-105 -182q-6 0 -6 5q0 8 30 42q187 214 378 424q22 23 51 56q-74 -2 -241 -14q-7 0 -7 6q0 16 67 91q25 27 65 30q166 14 276 14q19 0 21 -11q4 -16 4 -29q0 -20 -33 -58q-78 -88 -231 -245t-236 -235q-53 -54 -96 -66q-33 -10 -42 -10z" />
    <glyph glyph-name="eight" unicode="8" horiz-adv-x="460" 
d="M172 -25q-43 0 -68 14q-48 12 -73.5 45.5t-25.5 73.5q0 61 47.5 110.5t156.5 93.5q-30 51 -30 99q0 77 73 145.5t166 68.5q47 0 75 -19q39 -16 61 -45.5t22 -65.5q0 -59 -41.5 -102.5t-136.5 -86.5q42 -68 42 -116q0 -81 -74.5 -148t-193.5 -67zM321 466q0 -43 44 -111
q108 60 108 156q0 35 -16 55q-11 4 -26 4q-41 0 -75.5 -29t-34.5 -75zM116 107q0 -59 64 -76q53 3 88 32t35 71q0 23 -10.5 49t-20 39.5t-31.5 43.5q-69 -35 -97 -73.5t-28 -85.5z" />
    <glyph glyph-name="nine" unicode="9" 
d="M-26 -179q-27 0 -58 14q-15 5 -16.5 15.5t12.5 15.5q194 78 312 188q-71 10 -110 45q-44 40 -43 102.5t45 129.5q44 69 113.5 111.5t125.5 42.5q41 0 64 -18q55 -15 78.5 -71t8.5 -136t-68 -157q-136 -200 -401 -274q-35 -8 -63 -8zM246 308q-37 -54 -47 -105t10 -78
q52 -10 106 28q35 44 56 77q45 70 43.5 125t-40.5 71q-60 -19 -128 -118z" />
    <glyph glyph-name="colon" unicode=":" horiz-adv-x="220" 
d="M152 198q-16 0 -42 8q-17 6 -7 24q35 62 64 104q9 14 21 11q34 -9 45 -14q26 -12 13 -50q-13 -40 -36 -63q-22 -20 -58 -20zM70 -4q-16 -16 -48 -16q-34 0 -52 9q-15 8 1 37q33 57 54 87q12 19 23 19q3 0 8.5 -2t17 -6t24.5 -8q38 -10 11 -62q-21 -40 -39 -58z" />
    <glyph glyph-name="semicolon" unicode=";" horiz-adv-x="220" 
d="M213 220q-16 -16 -48 -16q-34 0 -52 9q-15 8 1 37q31 55 50 81q10 15 22 15q20 0 51 -12q15 -6 18.5 -23t-7.5 -39q-19 -36 -35 -52zM-73 -97q-25 0 -43 7q-10 4 -12 10t6 9q47 18 92 71t47 106q1 28 19 26q14 -2 38 -8q51 -14 41 -58q-21 -82 -116 -139q-40 -24 -72 -24
z" />
    <glyph glyph-name="less" unicode="&#x3c;" horiz-adv-x="440" 
d="M318 44q-6 -18 -23 -4q-68 53 -192 101q-13 5 -17.5 9t-4.5 13q0 26 -4 60q-7 49 41 61q196 47 300 88q38 14 64 10q3 -1 12 -2t17 -2.5t12 -3.5q12 -4 -4 -19q-10 -10 -30 -20q-85 -42 -302 -124q71 -21 110 -42q36 -19 33 -59q-2 -33 -12 -66z" />
    <glyph glyph-name="equal" unicode="=" horiz-adv-x="490" 
d="M119 318q0 4 11 7q53 10 179.5 26t159.5 18q37 3 46 -6q20 -20 25 -38q4 -17 -1.5 -23.5t-27.5 -10.5q-172 -26 -318 -35q-43 -2 -56 17q-18 28 -18 45zM38 162q33 8 199.5 26t224.5 18q7 0 4 -8q-4 -19 -36 -54q-14 -15 -66 -25q-108 -19 -235 -33q-64 -7 -82 19
q-18 25 -18 47q0 8 9 10z" />
    <glyph glyph-name="greater" unicode="&#x3e;" horiz-adv-x="440" 
d="M75 44q-38 -14 -64 -10q-3 1 -12 2t-17 2.5t-12 3.5q-12 4 4 19q10 10 30 20q85 42 302 124q-71 21 -110 42q-36 19 -33 59q2 33 12 66q6 18 23 4q68 -53 192 -101q13 -5 17.5 -9t4.5 -13q0 -26 4 -60q7 -49 -41 -61q-196 -47 -300 -88z" />
    <glyph glyph-name="question" unicode="?" horiz-adv-x="355" 
d="M152 140q-9 0 -18 12q-34 44 -34 91q0 35 23.5 66.5t59 54.5t77.5 45.5t79 40t63 36.5t29 36q-9 9 -31 9q-31 0 -96 -18t-112 -43q-10 -5 -8 11q1 8 5 22q18 59 52 82q52 40 113 40q66 0 103 -53q39 -42 39 -85q0 -59 -63 -113q-27 -22 -96.5 -61.5t-116 -73t-46.5 -61.5
q0 -4 2 -10t2 -8q0 -6 -12 -15q-8 -5 -14 -5zM57 100q8 11 17 11q12 0 36 -13q31 -17 28 -42q-5 -26 -26 -53.5t-41 -27.5q-29 0 -61 17q-10 5 -6 17q22 55 53 91z" />
    <glyph glyph-name="at" unicode="@" horiz-adv-x="731" 
d="M310 -158q-94 0 -170 54q-54 38 -86.5 96t-32.5 130q0 101 64.5 197.5t168.5 156.5t213 60q114 0 188 -63.5t74 -159.5q0 -113 -77.5 -204t-157.5 -91q-54 0 -77.5 23t-14.5 77q-71 -96 -120 -96q-23 0 -48 19.5t-42 49.5q-35 61 33 149q42 55 100.5 87.5t100.5 32.5
q35 0 61 -42q10 15 23 15q17 0 52 -17q31 -15 31 -32q0 -13 -37 -90q-42 -87 -38 -116q42 10 76 53t50.5 94.5t16.5 98.5q0 81 -50 123t-120 42q-94 0 -181.5 -53t-140.5 -138.5t-53 -175.5q0 -213 253 -252q22 -3 22 -7q0 -3 -35 -14q-22 -7 -46 -7zM296 87q86 31 178 202
q-58 -16 -113 -71q-33 -33 -51 -68.5t-14 -62.5z" />
    <glyph glyph-name="A" unicode="A" horiz-adv-x="585" 
d="M383 -79q-5 -4 -9.5 -2t-3.5 10q25 144 77 319q-174 -63 -283 -118q-84 -103 -98 -160q-5 -17 -13 -17q-21 0 -66 37q-32 25 -30.5 55t35.5 78q75 103 237 268.5t243 228.5q48 37 68 48.5t37 11.5q7 0 20 -4.5t31 -11t31 -10.5q61 -18 29 -75q-59 -106 -115 -240
q6 -3 12 -9q16 -16 16 -25q0 -5 -24 -13l-27 -9q-51 -126 -106 -299q-10 -31 -35 -48q-1 -1 -11 -6.5t-15 -8.5zM280 266q83 26 189 54q44 133 77 210q-132 -116 -266 -264z" />
    <glyph glyph-name="B" unicode="B" horiz-adv-x="580" 
d="M108 -58q-69 0 -120 14q-24 6 -13 26q19 30 57 71q-23 14 -28 24t4 24q144 224 312 456q-23 20 -41 73q-5 16 21 24q82 24 176 24q102 0 155 -31q47 -27 58 -81.5t-16 -98.5q-59 -100 -156 -145q50 -34 57 -83q10 -72 -60 -142q-66 -66 -179.5 -110.5t-226.5 -44.5z
M355 379q115 18 191 64t96 103q-21 27 -101 27q-58 0 -118 -20q12 -29 2 -50q-22 -45 -70 -124zM154 73q144 4 241.5 50.5t106.5 114.5q-40 48 -200 56q-71 -111 -148 -221z" />
    <glyph glyph-name="C" unicode="C" horiz-adv-x="525" 
d="M206 -39q-67 0 -99 51q-57 43 -57 122q0 109 104 237.5t259 223.5q147 92 251 92q48 0 81 -38q15 -19 21.5 -32.5t5.5 -19t-7 -7.5q-249 -79 -426.5 -229.5t-188.5 -281.5q8 -4 25 -4q63 0 162.5 40t170.5 94q13 10 13 -1q0 -48 -28 -81q-65 -76 -142.5 -121t-144.5 -45z
" />
    <glyph glyph-name="D" unicode="D" horiz-adv-x="615" 
d="M43 -57q-45 0 -64.5 19.5t-31.5 63.5q-7 27 11 28q37 1 75 6q-17 22 -20.5 35t5.5 27q129 194 299 432q-20 36 -43 65q-19 23 2 28q62 12 116 12l39 54q4 8 12.5 5.5t26.5 -20.5q29 -29 34 -51q129 -31 172 -141q46 -120 -59 -266q-90 -125 -253 -211t-321 -86zM164 83
q203 51 331 168t143 224q-42 73 -177 75q-110 -180 -297 -467z" />
    <glyph glyph-name="E" unicode="E" horiz-adv-x="515" 
d="M70 -58q-15 0 -26.5 6t-16.5 11.5t-17 22.5q-2 3 -9 12t-9 12t-6 10.5t-4.5 11.5t-1.5 11t1.5 14t6.5 15q65 126 315 466l-9 -1q-17 -1 -30 10q-21 23 -29 61q-1 11 10 12q61 10 131 18l35 49q20 26 38 15q9 -6 26.5 -25t27.5 -27q140 13 300 16q7 0 7 -5q0 -16 -10 -31
q-9 -13 -36 -18q-132 -25 -289 -49q-56 -87 -140 -209q148 14 234 20q11 0 7 -7q-7 -21 -23 -37t-50 -23q-93 -19 -228 -40l-149 -217q221 30 309 40q17 3 17 -6q0 -2 -3.5 -12.5t-5.5 -19.5q-2 -8 -6 -12t-22 -10q-136 -48 -281 -76q-42 -8 -64 -8z" />
    <glyph glyph-name="F" unicode="F" horiz-adv-x="465" 
d="M-93 -68q-12 0 -3 15q80 127 202 305q-15 11 -31 53q-6 19 9 21q31 4 79 9q96 138 151 213q-54 -4 -65 7q-16 14 -20 48q-1 6 2 8t11 4q98 14 136 19q4 5 15 18.5t16 20.5q17 22 29 11t33 -40q178 20 312 25q8 0 4 -9q-6 -15 -22 -35q-14 -17 -59 -25q-126 -21 -216 -33
q-8 -23 -32 -59q-37 -54 -107 -155q109 10 191 20q15 2 15 -4q0 -8 -11 -25.5t-25 -28.5t-42 -17q-99 -22 -194 -36q-74 -103 -209 -283q-9 -13 -16 -16t-24 -4q-36 -2 -80 -14.5t-49 -12.5z" />
    <glyph glyph-name="G" unicode="G" horiz-adv-x="580" 
d="M230 -49q-82 0 -118 53q-61 51 -62 138t70 192q90 126 271.5 239t259.5 113q18 0 30.5 -10t27.5 -35q10 -18 13.5 -33t2 -22t-5.5 -9q-189 -83 -315.5 -165.5t-202.5 -192.5q-58 -85 -49 -156q68 -3 168.5 38t163.5 103q-6 -2 -78 -21q-35 -8 -44 9q-17 32 -22 60
q-3 17 11 20q36 8 146.5 25.5t152.5 21.5q4 0 6 -2.5t0.5 -6.5t-5.5 -7q-12 -9 -30 -30t-23 -25q-26 -18 -82 -35q-2 -29 -8 -61q-8 -34 -38 -69q-46 -49 -112.5 -90.5t-127.5 -41.5z" />
    <glyph glyph-name="H" unicode="H" horiz-adv-x="630" 
d="M278 -72q-16 0 -26 4.5t-5 12.5q82 122 221 338q-106 -11 -187 -22q-104 -141 -160 -210q-24 -30 -39 -42.5t-43 -24.5q-46 -20 -105 -38q-12 -4 -16.5 0t3.5 20q74 122 173 270q-10 3 -18 14q-15 19 -15 35q0 6 8 7l72 13q132 191 256 359q17 22 31 8q55 -60 61 -73
q8 -14 4.5 -28.5t-21.5 -40.5q-47 -68 -135 -192q39 7 187 31q169 263 204 315q8 12 20 5q28 -17 66 -49q31 -27 2 -69q-238 -356 -409 -589q-21 -29 -51 -37q-60 -17 -78 -17z" />
    <glyph glyph-name="I" unicode="I" horiz-adv-x="305" 
d="M-81 -23q273 402 480 695q10 13 25 7q30 -12 49 -24q51 -32 -18 -129q-134 -205 -345 -505q-19 -26 -31 -36.5t-35 -13.5q-11 -2 -46.5 -6t-51.5 -7q-15 -3 -23.5 -1.5t-8.5 7t5 13.5z" />
    <glyph glyph-name="J" unicode="J" horiz-adv-x="555" 
d="M139 -54q-50 0 -85 26q-55 40 -55 121q0 62 47.5 128t120.5 90q55 19 93 19q8 0 11.5 -4.5t-3.5 -10.5q-68 -53 -109 -122.5t-41 -124.5q0 -25 9 -40q103 38 235 227q233 333 273 413q13 25 30 16q32 -18 47 -29q20 -18 17 -52.5t-25 -72.5q-47 -85 -155 -245
q-126 -186 -223.5 -262.5t-186.5 -76.5z" />
    <glyph glyph-name="K" unicode="K" horiz-adv-x="540" 
d="M427 -19q-17 -15 -32 7q-72 107 -137 246q-60 -83 -128 -177q-38 -52 -76 -59q-103 -19 -110 -19q-12 0 -13 8.5t7 19.5q300 442 470 675q11 16 31 4q10 -7 28.5 -28t24.5 -27q23 -25 2 -55q-64 -95 -153 -224q128 58 250 143t192 162q9 9 13 0q10 -19 5 -33.5t-31 -43.5
q-57 -63 -163 -148t-218 -154q39 -90 82 -194q11 -28 11 -39.5t-13 -24.5q-3 -3 -17 -15.5t-25 -23.5z" />
    <glyph glyph-name="L" unicode="L" horiz-adv-x="490" 
d="M88 -52q-20 -3 -32.5 1.5t-37.5 22.5q-32 22 -34.5 48t19.5 73q24 54 179.5 272t207.5 309q9 14 23 6q32 -14 59 -50q13 -13 8.5 -39t-30.5 -72q-21 -37 -145 -211.5t-155 -245.5q235 33 300 33q10 0 7 -10q-6 -21 -17 -32.5t-41 -21.5q-214 -68 -311 -83z" />
    <glyph glyph-name="M" unicode="M" horiz-adv-x="730" 
d="M-58 -49q-41 -17 -44 -17q-11 0 4 24q108 174 242 355t249 308q32 36 51 52t37 16q23 0 71 -9q20 -4 27.5 -18t-4.5 -44q-89 -184 -136 -329q217 266 350 382q15 13 23 15.5t20 -1.5q11 -4 29 -8.5t30.5 -8.5t20.5 -10q15 -11 16.5 -25t-7 -29.5t-30.5 -47.5
q-157 -228 -313 -515q-6 -10 -19 -23.5t-22 -16.5q-6 -2 -30.5 -9t-38.5 -13q-7 -3 -12 -3t-6 2.5t1 7.5q117 260 235 469q-99 -97 -193.5 -206.5t-146.5 -181.5q-15 -21 -25 -21q-14 0 -47 22q-23 15 -27 39.5t14 73.5q52 131 120 280q-163 -178 -363 -446q-35 -48 -76 -64
z" />
    <glyph glyph-name="N" unicode="N" horiz-adv-x="610" 
d="M8 -19q-9 -12 -30.5 -19.5t-39.5 -7.5q-12 0 -12 10q0 11 14 34q100 165 255 384.5t224 291.5q17 17 31 14q39 -8 71 -29q20 -13 23 -35t-7 -62q-7 -37 -80 -344q117 159 352 424q20 23 52 18q16 -2 7 -12q-288 -363 -420 -594q-14 -24 -25 -34t-30 -16q-64 -20 -90 -20
q-21 0 -28.5 12.5t0.5 45.5q46 206 106 429q-169 -199 -373 -490z" />
    <glyph glyph-name="O" unicode="O" horiz-adv-x="620" 
d="M246 -44q-45 0 -102 37q-47 30 -64.5 62.5t-17.5 87.5q0 118 99 258q81 114 195 194t187 80q50 0 84 -45q72 -35 72 -151q0 -49 -18.5 -112.5t-48.5 -116.5q-80 -140 -189 -217t-197 -77zM294 326q-39 -53 -65.5 -134t-15.5 -133q96 20 194 95.5t161 175t63 184.5
q0 54 -27 78q-165 -70 -310 -266z" />
    <glyph glyph-name="P" unicode="P" horiz-adv-x="560" 
d="M531 556q-35 0 -68 -4q-119 -186 -171 -265q65 10 139.5 47t133 91.5t69.5 105.5q-33 25 -103 25zM19 -48q-26 -1 -56 -6t-38 -5q-12 0 -5 12q183 310 374 569q-14 -1 -22.5 8.5t-10.5 26.5q-4 28 -4 54q0 11 6.5 16.5t24.5 10.5q32 9 105 14q8 12 26 34q20 24 38 15
q21 -11 46 -30q8 -7 10 -19q101 -11 149 -65q32 -34 32 -86q0 -71 -58 -146t-138.5 -124.5t-152.5 -61.5q-51 -8 -72 17q-14 17 -23 37q-109 -164 -176 -247q-20 -24 -55 -24z" />
    <glyph glyph-name="Q" unicode="Q" horiz-adv-x="620" 
d="M437 -128q-33 0 -56 33q-32 46 -51 88q-53 -25 -93 -25q-47 0 -103 36q-71 45 -71 122q0 64 30 142.5t82 149.5q85 115 205 191t184 76q32 0 55 -19q40 -32 34 -53q53 -41 53 -117q0 -98 -76.5 -227t-208.5 -222q16 -90 59 -153q10 -13 -4 -15q-8 -1 -20.5 -4t-18.5 -3z
M636 514q0 48 -31 76q-82 -32 -158.5 -96.5t-128 -138t-80.5 -149.5t-25 -134q35 5 81 25q-7 34 -7 71q0 27 18 27q43 0 78 -11q15 -4 22 -19q92 72 161.5 172t69.5 177z" />
    <glyph glyph-name="R" unicode="R" horiz-adv-x="560" 
d="M442 -43q-11 -14 -20.5 -17.5t-14.5 5.5q-34 78 -163 275q-112 -154 -130 -178q-26 -34 -46.5 -48t-53.5 -21q-57 -12 -83 -12q-4 0 -5.5 4.5t0.5 11.5t7 14q205 329 380 553q-4 4 -5 6q-12 20 -25 85q-4 21 12 25q63 18 152 18q144 0 212 -72q34 -35 34 -89
q0 -88 -85 -168t-217 -118q46 -88 74 -156q14 -33 14 -52q0 -10 -2.5 -17.5t-6 -12t-12.5 -15.5t-16 -21zM439 504q-104 -154 -119 -175q98 10 203 78.5t117 139.5q-30 29 -103 29q-55 0 -121 -15q22 -19 27 -30t-4 -27z" />
    <glyph glyph-name="S" unicode="S" horiz-adv-x="445" 
d="M396 138q0 -51 -46.5 -100.5t-114 -79.5t-129.5 -30q-69 0 -117 65q-38 52 -22 63q2 1 5 1q5 0 18.5 -0.5t20.5 -0.5q116 0 200 37t84 84q0 20 -14.5 35.5t-55.5 40.5q-30 18 -44.5 29.5t-29 33.5t-14.5 48q0 100 179 220q78 53 154 86.5t121 33.5q47 0 84 -54
q32 -45 12 -51q-158 -54 -291 -134q-78 -47 -113.5 -81.5t-35.5 -65.5q0 -29 47 -59q61 -39 80 -62q22 -27 22 -59z" />
    <glyph glyph-name="T" unicode="T" horiz-adv-x="540" 
d="M58 -59q-13 0 -6 12q102 170 390 591q-93 -14 -207 -34q-8 -1 -12.5 -0.5t-5 3t1.5 6.5q4 10 10.5 26t11 25.5t9.5 15.5q14 18 30 27t47 14q52 9 185 21q6 9 20 31q7 11 13.5 12.5t19.5 -5.5q21 -11 49 -30q80 5 125 5q30 0 64 -22q33 -22 33 -29q0 -6 -12 -8
q-70 -9 -202 -30q-58 -92 -185.5 -278t-219.5 -306q-28 -36 -65 -36q-28 -1 -57 -6t-37 -5z" />
    <glyph glyph-name="U" unicode="U" horiz-adv-x="610" 
d="M219 -42q-51 0 -85 23q-78 28 -78 131q0 110 150 315q102 142 213 255q11 11 23 4q25 -14 59 -52q28 -30 -5 -68q-106 -127 -176 -223q-153 -212 -146 -308q111 15 282 215q132 152 274 391q8 12 18 2q3 -3 8.5 -11.5t9.5 -12.5q23 -26 1 -69q-103 -203 -226 -360
q-94 -121 -169 -176.5t-153 -55.5z" />
    <glyph glyph-name="V" unicode="V" horiz-adv-x="525" 
d="M231 -8q-27 -32 -39 -39.5t-31 -0.5q-34 15 -57 39q-36 36 -14 116q30 108 95.5 279t120.5 277q8 14 14 17t22 -4q20 -11 44 -33q37 -35 12 -101q-108 -288 -147 -407q131 145 300.5 310.5t226.5 212.5q10 8 12 0q0 -2 0.5 -9.5t0.5 -10.5q0 -20 -22 -44
q-405 -444 -538 -602z" />
    <glyph glyph-name="W" unicode="W" horiz-adv-x="740" 
d="M179 8q-26 -33 -35.5 -38.5t-27.5 2.5q-19 11 -36 29q-32 35 -2 114q135 354 241 548q16 28 29 16q13 -10 51 -35q26 -17 27 -41t-23 -75q-51 -103 -141 -329q143 183 256 306q16 17 29 17q6 0 35 -13q36 -22 23 -59q-28 -80 -79 -268q108 135 240.5 277t211.5 209
q8 8 8 -2q0 -2 -2 -7.5t-4.5 -14t-4.5 -14.5q-5 -17 -18.5 -35.5t-58.5 -68.5q-189 -207 -394 -499q-17 -25 -29 -32t-27 -5q-24 4 -59 17q-38 16 -17 109q29 127 48 188q-168 -202 -241 -296z" />
    <glyph glyph-name="X" unicode="X" horiz-adv-x="470" 
d="M261 -50q-11 0 -11 12q0 65 2 251q-165 -152 -293 -252q-8 -6 -18 -6q-8 0 -23 8q-16 9 -2 22q129 117 339 329q4 174 11 336q2 40 16 40q15 0 71 -15q41 -11 40 -85q0 -28 -1.5 -91.5t-1.5 -83.5q146 148 236 258q20 25 30 25q9 0 13 -29q4 -25 4 -35q0 -12 -11 -26
q-106 -133 -276 -298q-4 -116 -12 -271q-1 -28 -12.5 -40.5t-37.5 -23.5q-8 -4 -24 -11.5t-24.5 -10.5t-14.5 -3z" />
    <glyph glyph-name="Y" unicode="Y" horiz-adv-x="475" 
d="M8 -44q-13 0 -4 15q96 154 199 306q31 244 64 383q6 31 17 31q10 0 31.5 -7t32.5 -13q21 -10 29.5 -32t2.5 -72q-15 -126 -20 -208q202 168 369 325q9 8 12 1q3 -9 3 -25q0 -17 -25 -45q-155 -172 -355 -352q-97 -139 -186 -257q-18 -28 -58 -33q-20 -2 -62.5 -9.5
t-49.5 -7.5z" />
    <glyph glyph-name="Z" unicode="Z" horiz-adv-x="510" 
d="M19 -38q-18 0 -27.5 8t-18.5 30q-34 81 29 137q78 69 275.5 228.5t270.5 222.5q-138 -9 -270 -23q-19 -2 -19 4q0 8 15 33q13 22 31.5 31t52.5 14q60 8 163 16.5t131 8.5q35 0 49 -19q23 -34 23 -65q0 -20 -38 -54q-90 -81 -290 -234.5t-286 -228.5q140 3 319 15
q18 1 18 -5q0 -12 -21 -40t-58 -34q-81 -15 -204.5 -30t-144.5 -15z" />
    <glyph glyph-name="bracketleft" unicode="[" horiz-adv-x="380" 
d="M-44 -186q-30 0 -37 15q-11 21 -15 43q-8 33 11 60q321 460 466 700q11 18 19.5 22.5t24.5 5.5q13 0 63 1t98 3t90 6q9 1 9 -3q0 -7 -10 -24q-8 -12 -14 -18.5t-23 -13.5t-45 -10q-12 -1 -28.5 -2.5t-38 -3.5t-32.5 -3q-313 -492 -482 -709q26 1 64.5 2.5t66 3t34.5 1.5
q11 0 11 -5q0 -9 -14 -27q-11 -14 -25 -19.5t-51 -10.5q-100 -14 -142 -14z" />
    <glyph glyph-name="backslash" unicode="\" horiz-adv-x="363" 
d="M202 -124q-7 -22 -23 -15q-12 6 -32 23q-27 21 -15 69q104 428 156 610q13 45 38 67q7 7 65 53q4 3 7.5 0.5t2.5 -9.5q-100 -459 -199 -798z" />
    <glyph glyph-name="bracketright" unicode="]" horiz-adv-x="380" 
d="M-233 -173q-9 -1 -9 3q0 7 10 24q8 12 14 18.5t23 13.5t45 10q12 1 28.5 2.5t38 3.5t32.5 3q316 495 477 703q-89 0 -155 2q-15 0 -15 6t13 23q18 23 57 28q73 8 155 8q23 0 34 -8t16 -30q7 -23 5.5 -41.5t-14.5 -38.5q-312 -447 -460 -692q-11 -18 -19.5 -22.5
t-24.5 -5.5q-13 0 -63 -1t-98 -3t-90 -6z" />
    <glyph glyph-name="asciicircum" unicode="^" horiz-adv-x="430" 
d="M421 354q-28 0 -36 43q-5 32 -8 104q-32 -24 -83 -60.5t-59 -42.5q-55 -40 -65 -40q-8 0 -29 22q-19 19 19 54q115 101 276 224q22 17 35 17q17 0 17 -41q0 -194 2 -232q1 -17 -2.5 -24t-13.5 -11q-32 -13 -53 -13z" />
    <glyph glyph-name="underscore" unicode="_" horiz-adv-x="525" 
d="M-181 -202q-22 2 -33 17q-7 9 -16 28q-4 7 7 9q141 15 360 15q103 0 167 -5q13 -1 15 -4t-3 -10q-11 -20 -37 -38q-17 -12 -51 -14q-88 -4 -222 -4q-127 0 -187 6z" />
    <glyph glyph-name="grave" unicode="`" horiz-adv-x="333" 
d="M313 504q-25 32 -9 50q29 29 64 40q7 2 13 -10q18 -35 26 -79q7 -33 3 -55q-5 -28 -13 -48q-2 -5 -5 -7t-6 -1t-5 4q-25 45 -68 106z" />
    <glyph glyph-name="a" unicode="a" horiz-adv-x="475" 
d="M126 54q82 35 153 129q29 54 57 95q-83 -27 -147.5 -96.5t-62.5 -127.5zM139 -11q-17 -10 -37.5 -5t-48.5 29q-26 14 -44 44q-40 66 44 166q79 95 186 129q33 11 62 4q38 -10 66 -48q16 4 29 -4q15 -8 36 -26t31 -31q7 -11 -4 -23q-60 -71 -86 -164q73 13 159 129l3 4
q8 11 12 7l3 -3q8 -8 2 -19l-3 -5q-37 -61 -110 -124.5t-142 -63.5q-33 0 -46.5 25t-6.5 69q-63 -72 -105 -90z" />
    <glyph glyph-name="b" unicode="b" horiz-adv-x="450" 
d="M154 94q95 15 159 81t69 125q-57 -7 -140 -68q-48 -72 -88 -138zM182 -9q-15 0 -27 5.5t-19 12.5t-20 22q-2 -5 -7 -14.5t-7 -13.5t-6.5 -10.5t-7.5 -9.5t-7.5 -5t-9.5 -2q-23 0 -50 20.5t-27 52.5q0 44 63 140q208 320 309 469q14 21 21 27.5t16 6.5t29 -6
q69 -19 14 -133q-20 -41 -132 -210q22 3 42 3q47 0 70 -28q17 -19 20 -53.5t-14 -90.5q-26 -71 -95.5 -127t-154.5 -56z" />
    <glyph glyph-name="c" unicode="c" horiz-adv-x="335" 
d="M139 -33q-33 0 -52 9.5t-42 36.5q-80 93 4 205q44 58 114 101t121 43q31 0 65 -27q18 -14 24.5 -26t3 -18.5t-12.5 -8.5q-95 -26 -170.5 -96.5t-82.5 -134.5q18 -10 50 -10q43 0 113 41.5t118 106.5l3 4q8 11 12 7l3 -3q8 -8 2 -19l-3 -5q-43 -71 -125 -138.5t-145 -67.5
z" />
    <glyph glyph-name="d" unicode="d" horiz-adv-x="475" 
d="M115 50q75 28 149 113q17 55 51 116q-81 -30 -142 -101.5t-58 -127.5zM252 41q-6 13 -4 38q-86 -101 -145 -101q-31 0 -63 39q-43 32 -43 83q0 50 42 105q52 69 123 112t119 43q31 0 63 -35q154 244 248 370q10 13 21 5q19 -14 53 -46q32 -30 -6 -89q-81 -121 -146 -227
q-66 -108 -94.5 -170t-29.5 -106q66 27 142 127l3 4q8 11 12 7l3 -3q9 -9 2 -19l-3 -5q-36 -60 -104.5 -121.5t-131.5 -61.5q-41 0 -61 51z" />
    <glyph glyph-name="e" unicode="e" horiz-adv-x="370" 
d="M147 -34q-30 0 -55.5 14t-56.5 51q-68 79 25 201q40 52 100 88.5t108 36.5q26 0 51 -17q23 -16 32 -28q34 -27 34 -59q0 -24 -18.5 -47.5t-66.5 -54.5q-55 -34 -160 -70q-5 -27 0 -39q13 -7 33 -7q58 0 130.5 43t123.5 111l3 4q8 11 12 7l3 -3q8 -8 2 -19l-3 -5
q-52 -87 -137 -147t-160 -60zM272 190q65 47 51 95q-40 -9 -88.5 -55.5t-75.5 -99.5q74 31 113 60z" />
    <glyph glyph-name="f" unicode="f" horiz-adv-x="270" 
d="M-51 -137q-3 -1 -18.5 -5t-23.5 -4q-26 0 -14 32q18 49 66.5 138.5t97.5 164.5q25 39 71 108q-15 1 -27 13q-24 24 -24 36q0 4 11 7q10 2 40 6t46 6q147 210 242 301q25 24 46 24q39 0 65 -17q19 -12 14 -45q-10 -76 -49 -147q-14 -22 -43 -15h-9q-10 1 -17 3
q-8 3 -17 20q-37 -51 -73 -109q40 4 77 4q16 0 16 -7q0 -8 -14 -24q-7 -8 -53 -19q-12 -3 -34 -8t-30 -7q-204 -323 -281 -413q-32 -38 -65 -43z" />
    <glyph glyph-name="g" unicode="g" horiz-adv-x="470" 
d="M-106 -320q-58 0 -93 35q-26 26 -26 62q0 86 119 139q29 13 66.5 24.5t61 17t74 17t65.5 14.5q27 36 56 79q-74 -62 -124 -62q-27 0 -46 19q-25 13 -38 38t-6 64.5t39 81.5q47 63 116 107t128 44q49 0 80 -45q17 25 38 20q45 -12 67 -29q16 -13 7 -31q-43 -81 -139 -231
q125 60 188 145l3 4q8 10 12 7l4 -3q11 -8 1 -20l-3 -4q-51 -68 -108 -114t-140 -80q-74 -106 -153 -176t-139 -96.5t-110 -26.5zM110 74q94 15 191 129q23 38 41 71q-83 -24 -151.5 -84.5t-80.5 -115.5zM-54 -216q79 43 164 141q-122 -40 -184 -77t-74 -95q44 4 94 31z" />
    <glyph glyph-name="h" unicode="h" 
d="M120 30q-44 -62 -56 -62q-5 0 -9 2t-13 8.5t-15 10.5q-47 30 -47 59q0 14 14 39.5t63 101.5q278 430 302 488q7 16 20 9q8 -4 21.5 -10.5t24 -12t17.5 -11.5q34 -31 0 -100q-22 -44 -94.5 -154t-117.5 -183q56 53 90 80q60 50 87 50q29 0 52 -21q15 -14 15.5 -41.5
t-10.5 -51.5q-7 -17 -41.5 -75t-46.5 -104q76 24 161 137l3 4q8 11 12 7l3 -3q8 -8 2 -19l-3 -5q-52 -87 -118 -137t-108 -50q-31 0 -52 27q-35 35 -18 88q8 28 18 51.5t20 43t13 27.5q-108 -80 -189 -193z" />
    <glyph glyph-name="i" unicode="i" horiz-adv-x="260" 
d="M253 432q-7 7 2 17q37 44 77 109q4 6 10 4q40 -16 55 -42q10 -18 -6 -37q-36 -38 -50 -47q-20 -13 -53 -13q-26 0 -35 9zM100 -34q-28 0 -61 23q-28 21 -36 39q-15 28 -2.5 65.5t56.5 95.5q79 105 105 155q9 17 13.5 20.5t14.5 0.5q12 -4 37.5 -11.5t32.5 -11.5
q44 -23 -5 -89q-126 -165 -134 -223q85 11 196 159l3 4q8 11 12 7l3 -3q8 -8 2 -19l-3 -5q-40 -66 -111.5 -136.5t-122.5 -70.5z" />
    <glyph glyph-name="j" unicode="j" horiz-adv-x="250" 
d="M241 428q-9 3 -3 15q36 63 70 111q4 5 11 4q40 -10 59 -25q15 -14 2 -34q-26 -42 -48 -59q-19 -16 -44 -16q-33 0 -47 4zM-281 -320q-17 0 -36 20q-13 16 -13 26q0 22 43 64q45 44 132 100q41 36 102 130l110 169q77 119 85 157q3 12 21 12q24 0 48 -8q81 -28 3 -167
q-43 -76 -114 -172q138 85 207 178l3 4q8 10 12 7l4 -3q11 -8 1 -20l-3 -4q-110 -146 -309 -268q-111 -124 -235 -203q-34 -22 -61 -22z" />
    <glyph glyph-name="k" unicode="k" horiz-adv-x="410" 
d="M117 21q-32 -39 -58 -39q-16 0 -43 16q-31 19 -31 49q0 19 12.5 43.5t59.5 98.5q218 336 307 479q9 15 15 19t15 -1q40 -26 51 -37q34 -36 -8 -106q-14 -22 -89 -136t-121 -190q94 79 265 181q8 5 8 -2t-8 -23q-6 -12 -9 -17.5t-13 -15.5t-26 -21q-44 -31 -80 -59
q-30 -81 -30 -152q0 -16 4 -27q61 16 129 108l3 4q8 11 12 7l3 -3q8 -8 2 -19l-3 -5q-42 -69 -100.5 -122.5t-99.5 -53.5q-26 0 -44 10q-23 13 -27.5 43t2.5 79q-52 -52 -98 -108z" />
    <glyph glyph-name="l" unicode="l" horiz-adv-x="265" 
d="M92 -37q-43 0 -70 35q-22 28 -22 52q0 51 57 139q185 285 332 491q11 15 26 5q15 -9 37 -26q13 -11 18.5 -21t0.5 -32t-25 -54q-88 -145 -258 -394q-60 -90 -63 -125q91 15 197 156l3 4q8 11 12 7l3 -3q8 -8 2 -19l-3 -5q-19 -31 -43 -63t-57 -67.5t-72 -57.5t-75 -22z
" />
    <glyph glyph-name="m" unicode="m" horiz-adv-x="645" 
d="M339 26q-25 -32 -36.5 -43t-20.5 -11q-21 0 -50 29q-31 33 -14 73q8 21 30.5 52t60.5 80t59 77q-53 -32 -121.5 -99.5t-132.5 -166.5q-19 -30 -34 -37.5t-32 -1.5t-42 24q-25 17 -21 58q5 39 72 129q84 111 111 142.5t39 31.5q7 0 17.5 -6t25.5 -17t26 -17q24 -12 21 -36
q82 63 114 63q22 0 41 -15q22 -17 22 -40q0 -35 -30 -87q59 45 81.5 58.5t38.5 13.5q17 0 37 -10q30 -15 30 -40t-42.5 -87t-51.5 -84q80 16 165 130l3 4q8 11 12 7l3 -3q8 -8 2 -19l-3 -5q-44 -74 -107.5 -124.5t-110.5 -50.5q-39 0 -62.5 30.5t-19.5 56.5q4 34 29 74
q-8 -7 -16.5 -15t-20.5 -23t-19 -24t-25.5 -34t-27.5 -37z" />
    <glyph glyph-name="n" unicode="n" 
d="M93 -9q-16 -16 -25 -16q-23 0 -51 23q-32 25 -32 57q0 40 72 134q104 137 122 169q5 9 14 9q39 0 82 -41q26 -26 15 -53q89 47 119 47q25 0 47 -20q17 -16 18.5 -32t-10.5 -41q-9 -19 -50.5 -85.5t-48.5 -92.5q81 19 172 140l3 4q8 11 12 7l3 -3q8 -8 2 -19l-3 -5
q-37 -61 -104.5 -123.5t-124.5 -62.5q-34 0 -64 33q-39 44 -18 90q14 30 55 80.5t51 65.5q-61 -41 -148 -117q-82 -122 -108 -148z" />
    <glyph glyph-name="o" unicode="o" horiz-adv-x="390" 
d="M142 -25q-55 0 -98 45q-35 38 -35 89q0 57 44 115q40 54 97.5 93.5t105.5 39.5q24 0 49 -12t35 -28q41 -15 41 -77q0 -57 -41 -127q-37 -64 -89 -101t-109 -37zM170 143q-37 -57 -30 -97q74 19 137 88t63 128q0 23 -14 28q-35 -11 -78 -51t-78 -96z" />
    <glyph glyph-name="p" unicode="p" horiz-adv-x="450" 
d="M146 90q91 20 166 93t73 119q-62 -7 -171 -97q-58 -99 -68 -115zM-167 -293q-25 -5 -34 -5q-28 0 -12 30q170 304 270 457q81 125 103 154.5t32 29.5q11 0 38 -13q34 -14 34 -37q55 22 97 22q33 0 61 -26q26 -24 26 -71q0 -71 -71 -154q-39 -45 -93 -73.5t-97 -28.5
q-20 0 -35.5 5.5t-23.5 11.5t-20 18q-94 -149 -143 -217q-42 -58 -68.5 -76.5t-63.5 -26.5z" />
    <glyph glyph-name="q" unicode="q" horiz-adv-x="450" 
d="M18 -297q-14 0 0 30q58 123 170 303q-49 -41 -89 -41q-48 0 -82 57q-18 26 -12.5 70.5t37.5 86.5q49 64 133 109t194 45q29 0 39 -3.5t15 -12.5q16 -30 16 -54q0 -16 -17 -19q-7 -1 -20 -3.5t-19 -3.5q10 -14 22 -26q24 -25 6 -67q-23 -56 -103 -185q8 8 39.5 35.5
t44.5 40t37 36t42 44.5t35 44l3 4q7 10 12 7l4 -3q11 -8 1 -20l-3 -4q-54 -74 -169 -193.5t-167 -192.5q-23 -32 -41.5 -45t-46.5 -24q-40 -15 -81 -15zM106 67q30 0 60 14t56.5 38.5t46 46.5t42 51t30.5 39q-98 -28 -162 -77.5t-94 -108.5q9 -3 21 -3z" />
    <glyph glyph-name="r" unicode="r" horiz-adv-x="325" 
d="M74 -19q-22 0 -54 22q-33 23 -33 51q0 42 70 135q88 119 116 172q4 8 20 7q31 -2 54 -14q25 -14 12 -66q64 54 161 110q27 15 32 15q11 0 11 -26q0 -11 -19 -25q-156 -113 -305 -316q-32 -44 -42.5 -54.5t-22.5 -10.5z" />
    <glyph glyph-name="s" unicode="s" horiz-adv-x="245" 
d="M41 -72q-35 0 -58 25q-16 17 -22 33q-6 14 6 18q71 24 110 55.5t39 57.5q0 17 -32.5 54t-32.5 65q0 62 77 106q40 24 73 24q43 0 71 -44q30 -47 11 -54q-57 -18 -101 -46.5t-44 -53.5q0 -12 15.5 -26t31 -35t15.5 -48q0 -53 -61 -97q-47 -34 -98 -34z" />
    <glyph glyph-name="t" unicode="t" horiz-adv-x="300" 
d="M120 -25q-44 0 -79 34q-34 27 -32 68t48 112q61 93 70 108q-15 0 -26 10q-24 22 -24 40q0 7 19 9q6 1 34 4.5l44 5.5q60 87 109 152q36 48 50 48q6 0 11 -4t12 -13t14 -15q21 -18 24 -35.5t-8 -42t-45 -76.5q58 2 75 2q11 0 11 -7q0 -19 -21 -23q-4 -1 -16.5 -6.5
t-33.5 -10.5l-52 -12q-88 -134 -122 -192t-39 -84q59 4 109.5 37t104.5 105l3 4q8 11 12 7l3 -3q8 -8 2 -19l-3 -5q-35 -57 -114.5 -127.5t-139.5 -70.5z" />
    <glyph glyph-name="u" unicode="u" 
d="M277 10q-39 31 -13 94q-49 -58 -94.5 -93.5t-76.5 -35.5q-36 0 -75 45q-26 28 -16.5 68t55.5 101q66 86 84.5 114t22.5 44q2 10 21 10q37 0 69 -13t32 -42t-25.5 -68t-62.5 -87t-53 -84q92 32 205 220q14 24 20 30.5t17 6.5q19 0 57 -9q34 -8 34 -34q0 -25 -50 -106
q-58 -97 -48 -118q67 16 157 136l3 4q8 11 12 7l3 -3q9 -9 2 -19l-3 -5q-36 -60 -100 -122t-117 -62q-32 0 -60 21z" />
    <glyph glyph-name="v" unicode="v" horiz-adv-x="365" 
d="M106 -30q-34 0 -87 35q-32 21 -17 63q12 33 62 136t64 144q5 17 15 17q2 0 46 -16q49 -17 49 -57q0 -53 -85 -207q139 111 270 265q9 10 17 -1q6 -7 5.5 -13.5t-9.5 -19.5q-33 -49 -126.5 -160.5t-138.5 -151.5q-38 -34 -65 -34z" />
    <glyph glyph-name="w" unicode="w" horiz-adv-x="520" 
d="M147 24q-34 -49 -70 -49q-19 0 -46 30q-22 23 -23.5 39t14.5 65q9 25 52 117t50 122q5 22 20 16q6 -2 24 -6.5t32 -10.5t19 -15q15 -22 3 -73q-6 -26 -39 -111q79 72 133 140q9 11 25 8q48 -7 57 -12q14 -7 -3 -44q-31 -66 -47 -119q60 69 135.5 137t130.5 109q8 6 8 0
q0 -1 -1.5 -5t-3.5 -10t-3 -10q-5 -17 -47 -60q-92 -95 -200 -241q-36 -49 -70 -49q-23 0 -60 15q-14 7 -11 39q3 41 19 114q-49 -65 -98 -136z" />
    <glyph glyph-name="x" unicode="x" horiz-adv-x="340" 
d="M3 -74q-14 -15 -26 -30t-18.5 -23t-11.5 -15t-8 -9.5t-6 -2.5q-4 0 -9 7t-5 19q0 22 49 84q46 56 99 109q-28 46 -28 101q0 69 65 118q64 49 75 49q8 0 8 -9q0 -3 -4 -17t-8 -37t-4 -47q0 -26 5 -56q136 125 188 205q5 8 9 8q11 0 11 -41q0 -32 -25 -66
q-11 -15 -21.5 -28t-24 -26.5t-21 -21.5t-24 -22.5t-22 -19.5t-26.5 -22.5t-26 -21.5q23 -46 60 -46q25 0 57 26t86 98l3 4q8 11 12 7l3 -3q8 -8 2 -19l-3 -5q-57 -96 -108.5 -139t-105.5 -43q-59 0 -100 36q-47 -45 -97 -101z" />
    <glyph glyph-name="y" unicode="y" horiz-adv-x="450" 
d="M-108 -320q-61 0 -93 48q-21 25 -14.5 67.5t44.5 76.5q45 40 120 65.5t199 53.5q31 44 77 120q-49 -53 -90 -81q-37 -24 -61 -24q-33 0 -63 33q-17 16 -7.5 47.5t53.5 102.5q65 104 77 159q3 15 15 15q20 0 44 -10q33 -14 39.5 -38.5t-14.5 -75.5q-8 -20 -29 -63.5
t-29 -62.5q76 46 176 183q19 26 25.5 32.5t13.5 6.5q2 0 43 -13q54 -17 30 -60q-46 -87 -131 -221q123 58 190 148l3 4q8 10 12 7l4 -3q11 -8 1 -20l-3 -4q-52 -70 -108.5 -116.5t-140.5 -79.5q-97 -143 -196 -220t-187 -77zM-103 -168q-44 -36 -42 -75q112 -2 247 172
q-138 -41 -205 -97z" />
    <glyph glyph-name="z" unicode="z" horiz-adv-x="345" 
d="M47 -26q-36 0 -50 23q-7 11 -13 36t-6 34q0 37 73 87q92 63 176 131q-45 -5 -107 -12q-12 -2 -20.5 -1t-13.5 9q-10 16 -12 19q-3 3 -2.5 6.5t3.5 4.5q159 46 217 46q18 0 53 -18q24 -12 34.5 -21.5t10.5 -22.5q0 -29 -48 -66q-12 -10 -90.5 -69t-132.5 -103
q91 10 168 23q4 1 6.5 -1t0.5 -5l-10 -20q-6 -11 -53 -29q-134 -51 -184 -51z" />
    <glyph glyph-name="braceleft" unicode="{" horiz-adv-x="380" 
d="M143 -177q-12 0 -41 17q-83 48 -83 125q0 40 27.5 84.5t54.5 81t27 57.5q0 18 -14 32.5t-40 18.5q-10 2 -13.5 3t-6 3.5t-2.5 6.5q0 11 7 30q6 17 25 17q4 0 29.5 -3t38.5 -3q47 0 82.5 40.5t72.5 144.5q11 32 24.5 57t37 51t54 43t76.5 28t103 11q30 0 41 -3t16 -14
q8 -16 8 -27q0 -13 -13 -14q-48 -4 -82.5 -13.5t-55 -20.5t-38 -35.5t-26 -43.5t-24.5 -60q-37 -95 -93 -140.5t-135 -54.5q32 -36 32 -91q0 -44 -24 -86t-48 -79.5t-24 -68.5q0 -29 28 -54q8 -8 8 -13q0 -7 -9 -16q-10 -11 -20 -11z" />
    <glyph glyph-name="bar" unicode="|" horiz-adv-x="265" 
d="M-164 -185q-10 0 -1 14q206 333 569 859q18 25 32 18q32 -19 39 -36q9 -22 -10 -51q-101 -164 -258 -402.5t-244 -360.5q-20 -27 -43 -29t-50.5 -7t-33.5 -5z" />
    <glyph glyph-name="braceright" unicode="}" horiz-adv-x="380" 
d="M140 25q-11 -32 -24.5 -57t-37 -51t-54 -43t-76.5 -28t-103 -11q-30 0 -41 3t-16 14q-8 16 -8 27q0 13 13 14q48 4 82.5 13.5t55 20.5t38 35.5t26 43.5t24.5 60q37 95 93 140.5t135 54.5q-32 36 -32 91q0 34 18 68t40 57t40 50.5t18 49.5q0 16 -13.5 25.5t-46.5 17.5
q-16 4 -16 14q0 9 6 21q6 13 15 13q60 0 108 -30q57 -34 57 -106q0 -32 -19 -65.5t-42 -57t-42 -51.5t-19 -50q0 -35 54 -44q10 -2 13.5 -3t6 -3.5t2.5 -6.5q0 -11 -7 -30q-6 -17 -25 -17q-4 0 -29.5 3t-38.5 3q-47 0 -82.5 -40.5t-72.5 -144.5z" />
    <glyph glyph-name="asciitilde" unicode="~" horiz-adv-x="420" 
d="M300 130q-44 0 -71 52q-11 22 -17.5 29t-16.5 7q-15 0 -59.5 -13t-74.5 -27q-8 -4 -13.5 -4.5t-7.5 1.5t-1 7q11 43 31 60q91 81 159 81q22 0 33 -10t13.5 -23t8.5 -27.5t17 -20.5q84 17 142 75q8 7 13.5 5t1.5 -15q-16 -73 -23 -86q-15 -28 -54 -61q-36 -30 -81 -30z
" />
    <glyph glyph-name="uni00A0" unicode="&#xa0;" horiz-adv-x="150" 
 />
    <glyph glyph-name="exclamdown" unicode="&#xa1;" horiz-adv-x="245" 
d="M221 241q-18 -16 -48 -16q-23 0 -43 10q-15 7 0 35q22 41 49 73q12 14 23 14q21 0 43 -8q17 -6 22 -21t-9 -42q-17 -28 -37 -45zM-242 -274q80 128 324 453q10 11 21 6q15 -8 26 -16q34 -28 -15 -103q-70 -117 -200 -304q-9 -12 -12.5 -16.5t-10.5 -11t-14 -9.5t-17 -4
q-9 -1 -38 -4t-42 -6q-10 -2 -15.5 -2t-8 2.5t-2 6t3.5 8.5z" />
    <glyph glyph-name="cent" unicode="&#xa2;" horiz-adv-x="425" 
d="M112 -89q-5 -7 -7 -8t-6 4q-2 4 -10 12.5t-10 12.5q-11 18 5 41l64 96q-8 3 -19 9q-44 25 -70 75q-21 38 -4.5 89.5t67.5 104.5q106 107 229 137q51 13 86 1q17 25 51.5 73t50.5 71q6 8 10 4q3 -4 11.5 -14.5t13.5 -18.5t5 -17q-4 -18 -14 -33q-67 -97 -69 -100
q20 -19 19.5 -29.5t-16.5 -13.5q-10 -2 -41 -11q-88 -126 -177 -251q81 23 136 66q12 9 12 -1q0 -2 -2 -6l-5.5 -11t-5.5 -13q-10 -22 -27 -36q-81 -63 -164 -77q-49 -68 -113 -156zM193 135q82 119 144 208q-78 -44 -128.5 -99t-53.5 -101q18 -7 38 -8z" />
    <glyph glyph-name="sterling" unicode="&#xa3;" horiz-adv-x="550" 
d="M198 -23q-55 -4 -100 -9.5t-66.5 -8.5t-32.5 -3q-21 0 -28 9q-8 9 -16 33.5t-10 41.5q-2 15 16 18q33 7 63 10q61 38 111 108q-20 -2 -29 -2q-17 -1 -29 15q-9 13 -11 26q-3 16 11 19q22 5 106 16q58 101 103 166t93 115t96 72t103 22q52 0 84 -26q46 -20 46 -58
q0 -37 -27 -77t-58 -52q-63 -24 -84 -24q-2 0 -3 1.5t0 5t5 8.5q68 78 68 140q0 16 -6 28q-40 -7 -78 -49t-107 -147q-17 -26 -72 -107q17 1 64.5 5.5t70.5 6.5q10 1 13 0t2 -5q-5 -21 -16 -35q-7 -11 -35 -17q-113 -22 -154 -29q-69 -85 -138 -121q21 0 64 -1.5t64 -1.5
q58 0 108.5 10t77 20t28.5 10q5 0 5.5 -4t-4.5 -8q-27 -29 -29 -32q-30 -33 -67 -49q-78 -32 -202 -40z" />
    <glyph glyph-name="yen" unicode="&#xa5;" horiz-adv-x="515" 
d="M32 -36q-12 0 -3 14q2 3 46 72q-8 0 -22 -0.5t-21 -0.5q-40 0 -47 15q-5 7 -11 33q-1 20 15 20q41 1 134 8q11 17 35 53q-52 -2 -73 -2q-33 0 -37 22q-1 6 0.5 17.5t1.5 14.5q-2 13 26 13q34 0 130 7l8 13q28 214 57 335q6 28 16 28q9 0 33.5 -6.5t34.5 -11.5
q19 -9 27 -29t2 -65q-8 -62 -17 -171q200 158 328 273q8 7 11 1q2 -6 2 -31q0 -16 -22 -39q-125 -133 -299 -282q31 2 111 10q8 1 8 -5q-4 -19 -16 -38q-9 -12 -40 -19q-76 -13 -117 -18q-13 -18 -41 -56l145 14q6 0 5 -6q-7 -14 -15 -34q-7 -14 -39 -22q-66 -15 -149 -25
l-42 -57q-19 -25 -53 -30q-18 -1 -61.5 -8t-50.5 -7z" />
    <glyph glyph-name="brokenbar" unicode="&#xa6;" horiz-adv-x="265" 
d="M273 321q-17 -25 -28.5 -34t-28.5 -7q-9 1 -23.5 11t-17.5 11q-19 9 3 47q75 130 226 339q18 25 32 18q32 -19 39 -36q9 -22 -10 -51q-137 -219 -192 -298zM-165 -171q130 220 247 365q20 26 54 33q24 5 54 2q24 -3 12 -20q-134 -204 -239 -353q-20 -27 -43 -29t-50.5 -7
t-33.5 -5q-9 0 -1 14z" />
    <glyph glyph-name="section" unicode="&#xa7;" horiz-adv-x="445" 
d="M133 155q0 -27 26 -53q86 39 137.5 83.5t51.5 88.5q0 18 -12 40q-101 -21 -152 -67.5t-51 -91.5zM14 -180q-88 0 -128 74q-11 21 -14.5 35t-1.5 19t8 5q4 0 37 -5t60 -5q87 0 133.5 21t46.5 56q0 24 -16.5 48t-35.5 42t-35.5 48t-16.5 64q0 53 52.5 106t163.5 75l1 -1
q-26 36 -26 68q0 63 68.5 109t168.5 46q66 0 98 -43q26 -30 23 -57q-2 -21 -25 -22q-244 -13 -244 -98q0 -20 23.5 -52t46.5 -68.5t23 -65.5q0 -56 -48 -100.5t-147 -85.5q23 -32 23 -68q0 -61 -71 -103t-167 -42z" />
    <glyph glyph-name="dieresis" unicode="&#xa8;" horiz-adv-x="333" 
d="M295 532q4 7 19 5q32 -6 46 -14q13 -9 7 -24q-13 -37 -41 -61q-16 -12 -24 -12q-14 0 -36 5q-10 2 -7 12q11 48 36 89zM413 523q5 7 19 7q25 0 40 -7q18 -7 7 -36q-8 -18 -23 -37.5t-26 -26.5q-13 -9 -28 -9q-3 0 -33 9q-8 3 -2 19q11 33 46 81z" />
    <glyph glyph-name="copyright" unicode="&#xa9;" horiz-adv-x="700" 
d="M741 364q0 -104 -75 -208q-70 -97 -161 -139t-181 -42q-126 0 -187 63t-61 166q0 121 82 231q144 190 295 190q81 0 116 -36q87 -32 129.5 -91.5t42.5 -133.5zM314 33q157 0 286 164q63 80 63 175q0 64 -40.5 114t-106.5 68q-75 4 -150.5 -41t-137.5 -129
q-68 -94 -68 -197q0 -75 40 -114.5t114 -39.5zM362 118q-36 0 -65 20q-31 20 -50 61q-32 69 46 157q76 86 165 110q30 8 50 4t45 -23q16 -13 22 -23.5t3 -16t-12 -7.5q-84 -23 -151.5 -85.5t-75.5 -119.5q6 -1 19 -1q37 0 84 19t77 44q2 2 5 2.5t5 -1t2 -3.5q0 -16 -8 -35
q-6 -14 -22 -28q-84 -74 -139 -74z" />
    <glyph glyph-name="ordfeminine" unicode="&#xaa;" horiz-adv-x="477" 
d="M452 283q-77 0 -57 101q-68 -95 -117 -95q-26 0 -51.5 19t-42.5 49q-33 60 33 146q41 54 99 88t100 34q35 0 64 -49q7 11 19 11q17 0 52 -17q29 -14 29 -30t-36 -89q-33 -68 -37 -100q41 15 70 47q3 3 5 0q2 -4 2 -13q0 -8 -7 -17q-68 -85 -125 -85zM291 354q37 12 73 50
q48 49 101 147q-59 -16 -111 -70q-32 -32 -49.5 -66.5t-13.5 -60.5z" />
    <glyph glyph-name="guillemotleft" unicode="&#xab;" horiz-adv-x="360" 
d="M194 -3q-6 0 -8 10q-1 20 -3 32t-7.5 39.5t-10.5 57.5q-7 31 28 60q45 38 172 139q40 32 50 32q6 0 6 -9q0 -43 -23 -68q-74 -78 -127 -130q5 -35 6 -47q6 -60 -22 -78q-11 -7 -24.5 -18t-21 -15.5t-15.5 -4.5zM56 -3q-3 0 -9 10q-17 50 -30 135q-9 44 19 64
q58 42 185 128q35 23 45 23q8 0 8 -9q0 -14 -7.5 -32t-16.5 -26q-70 -70 -128 -117q5 -32 15 -66q12 -46 -20 -69q-52 -41 -61 -41z" />
    <glyph glyph-name="registered" unicode="&#xae;" horiz-adv-x="470" 
d="M606 522q0 -101 -72 -164.5t-165 -63.5q-88 0 -130 43.5t-42 114.5q0 91 69.5 168t145.5 77q53 0 81 -24q51 -15 82 -54t31 -97zM249 439q0 -48 28.5 -74.5t73.5 -26.5q74 0 136 58.5t62 136.5q0 42 -24.5 72.5t-64.5 43.5q-85 2 -148 -63.5t-63 -146.5zM422 383
q-10 -10 -13 -4q-13 27 -50 82q-30 -50 -40 -73q-3 -6 -11 -6q-3 0 -8 3.5t-12 9t-11 8.5q-13 10 2 38q44 83 100 152q15 18 56 18q81 0 81 -52q0 -28 -20 -51t-70 -50q10 -22 15 -32q5 -12 5 -19q0 -4 -2.5 -7t-10 -8.5t-11.5 -8.5zM383 502q79 26 98 63q-36 3 -68 -8
q-11 -23 -30 -55z" />
    <glyph glyph-name="macron" unicode="&#xaf;" horiz-adv-x="333" 
d="M254 492q108 2 223 6q10 0 9 -10q-3 -19 -9 -32q-10 -21 -48 -24q-72 -4 -149 0q-21 1 -32 5t-10 13q1 7 4 19.5t4 16.5q2 6 8 6z" />
    <glyph glyph-name="degree" unicode="&#xb0;" horiz-adv-x="323" 
d="M300 353q-46 0 -81 24q-35 23 -38.5 64t27.5 92q23 34 69 63t94 29q26 0 37 -27q30 4 46.5 -15.5t16.5 -53.5q0 -64 -52.5 -120t-118.5 -56zM288 500q-25 -35 -19 -73q54 -12 95 33q21 23 29.5 50.5t2.5 44.5q-65 8 -108 -55z" />
    <glyph glyph-name="twosuperior" unicode="&#xb2;" horiz-adv-x="280" 
d="M125 263q-26 0 -37 4t-11 16q0 19 18 47q23 35 64 65.5t76 47.5t61.5 35.5t26.5 34.5q0 21 -29 21q-47 0 -103 -38q-6 -4 -8 -1t1 8q4 9 27 49q19 29 40 39q47 22 87 22q47 0 73 -22t26 -56q0 -38 -29.5 -65.5t-68 -41.5t-87 -35t-74.5 -44q118 3 170 13q11 1 11 -3
q0 -11 -27 -57q-17 -29 -59 -33q-76 -6 -148 -6z" />
    <glyph glyph-name="threesuperior" unicode="&#xb3;" horiz-adv-x="265" 
d="M146 248q-38 0 -47 37q-12 46 6 46q86 4 134 23t56 38q-10 18 -93 21q-16 0 -16 8q0 13 14 34q10 18 42 23q83 14 83 43q0 19 -42 19q-47 0 -86 -17q-6 -3 -8.5 0.5t0.5 8.5q11 27 25 43q9 12 31 22q37 17 89 17q46 0 69.5 -17.5t23.5 -47.5q0 -69 -104 -94
q35 -27 35 -72q0 -62 -63 -98.5t-149 -36.5z" />
    <glyph glyph-name="acute" unicode="&#xb4;" horiz-adv-x="333" 
d="M242 438q119 69 183 131q7 7 16 3q13 -5 30 -16.5t23 -19.5q10 -15 -14 -35q-18 -15 -53.5 -35t-63.5 -30q-25 -9 -49 -11q-29 -3 -68 2q-8 1 -8 5t4 6z" />
    <glyph glyph-name="paragraph" unicode="&#xb6;" horiz-adv-x="460" 
d="M302 272q77 119 166 251q-95 -9 -169.5 -66t-80.5 -125q26 -34 84 -60zM199 -33q-65 -12 -70 -12q-21 0 -7 23q42 72 127 210q-100 67 -100 181q0 106 83.5 181t186.5 75q52 0 73 -27q7 -8 14 -19q2 3 5.5 8t5.5 7q13 19 20 23.5t15 -0.5q29 -15 45 -37q27 -36 -22 -111
q-95 -146 -171 -256q8 -45 15 -63q7 -23 -11 -23q-21 0 -56 11q-36 -51 -82 -115q-23 -31 -35.5 -41.5t-35.5 -14.5z" />
    <glyph glyph-name="periodcentered" unicode="&#xb7;" horiz-adv-x="250" 
d="M78 159q-9 4 -3 17q31 62 63 112q9 14 17 14q12 0 35 -11.5t36 -24.5q16 -16 2 -40q-27 -50 -46 -66q-15 -12 -37 -12q-11 0 -35.5 4.5t-31.5 6.5z" />
    <glyph glyph-name="cedilla" unicode="&#xb8;" horiz-adv-x="333" 
d="M36 -38q2 3 6 2q36 -15 54 -41q7 -10 2 -26q-9 -23 -51 -73q-14 -16 -34 -20q-45 -9 -77 -3q-8 2 -2 9q69 87 102 152z" />
    <glyph glyph-name="onesuperior" unicode="&#xb9;" horiz-adv-x="235" 
d="M108 256q-9 0 -4 8q78 109 147 221q-55 -26 -69 -26q-8 0 -8 13q0 26 20 37q82 47 127 101q11 11 16 11q10 0 36 -23q14 -12 19 -21.5t1 -29t-22 -49.5q-60 -102 -137 -204q-14 -20 -60 -30q-64 -8 -66 -8z" />
    <glyph glyph-name="ordmasculine" unicode="&#xba;" horiz-adv-x="379" 
d="M293 279q-51 0 -89 41q-68 78 12 185q37 49 95.5 84.5t98.5 35.5q32 0 55 -13q32 -21 32 -32q0 -8 -9 -12q18 -25 18 -61q0 -72 -65.5 -150t-147.5 -78zM469 533q0 14 -4 24q-76 -39 -129 -97.5t-46 -115.5q63 6 121 67.5t58 121.5z" />
    <glyph glyph-name="guillemotright" unicode="&#xbb;" horiz-adv-x="360" 
d="M99 0q-8 0 -8 9q0 14 7.5 32t16.5 26q70 70 128 117q-5 32 -15 66q-12 46 20 69q52 41 61 41q3 0 9 -10q17 -50 30 -135q9 -44 -19 -64q-58 -42 -185 -128q-34 -23 -45 -23zM-50 -10q-6 0 -6 9q0 43 23 68q74 78 127 130q-5 35 -6 47q-6 60 22 78q11 7 24.5 18t21 15.5
t15.5 4.5q6 0 8 -10q1 -20 3 -32t7.5 -39.5t10.5 -57.5q7 -31 -28 -60q-45 -38 -172 -139q-40 -32 -50 -32z" />
    <glyph glyph-name="onequarter" unicode="&#xbc;" horiz-adv-x="724" 
d="M80 -12q-51 -13 -68 -13q-14 0 -2 12q390 377 642 596q49 42 60 42q6 0 12 -21q11 -41 -38 -87q-293 -276 -511 -469q-57 -48 -95 -60zM108 256q-9 0 -4 8q78 109 147 221q-55 -26 -69 -26q-8 0 -8 13q0 26 20 37q82 47 127 101q11 11 16 11q10 0 36 -23q14 -12 19 -21.5
t1 -29t-22 -49.5q-60 -102 -137 -204q-14 -20 -60 -30q-64 -8 -66 -8zM472 -23q-5 0 -7 4t2 10q32 52 49 78q-60 -2 -86 -2q-23 0 -25 12q-10 43 -10 44q0 20 24 44q46 42 111.5 90.5t107.5 73.5q36 21 75 -1q31 -19 40 -31t-1 -30q-16 -29 -73 -115h33q11 0 11 -4
q0 -10 -23 -46q-15 -24 -51 -27q-4 -1 -11.5 -1.5t-11.5 -0.5q-8 -11 -21.5 -31.5t-18.5 -27.5q-22 -30 -46 -33q-34 -6 -68 -6zM484 153l86 1q57 87 88 137q-117 -84 -174 -138z" />
    <glyph glyph-name="onehalf" unicode="&#xbd;" horiz-adv-x="694" 
d="M80 -12q-51 -13 -68 -13q-14 0 -2 12q390 377 642 596q49 42 60 42q6 0 12 -21q11 -41 -38 -87q-293 -276 -511 -469q-57 -48 -95 -60zM108 256q-9 0 -4 8q78 109 147 221q-55 -26 -69 -26q-8 0 -8 13q0 26 20 37q82 47 127 101q11 11 16 11q10 0 36 -23q14 -12 19 -21.5
t1 -29t-22 -49.5q-60 -102 -137 -204q-14 -20 -60 -30q-64 -8 -66 -8zM415 -6q-26 0 -37 4t-11 16q0 19 18 47q23 35 64 65.5t76 47.5t61.5 35.5t26.5 34.5q0 21 -29 21q-47 0 -103 -38q-6 -4 -8 -1t1 8q4 9 27 49q19 29 40 39q47 22 87 22q47 0 73 -22t26 -56
q0 -38 -29.5 -65.5t-68 -41.5t-87 -35t-74.5 -44q118 3 170 13q11 1 11 -3q0 -11 -27 -57q-17 -29 -59 -33q-77 -6 -148 -6z" />
    <glyph glyph-name="threequarters" unicode="&#xbe;" horiz-adv-x="759" 
d="M115 -12q-51 -13 -68 -13q-14 0 -2 12q390 377 642 596q49 42 60 42q6 0 12 -21q11 -41 -38 -87q-293 -276 -511 -469q-57 -48 -95 -60zM146 248q-38 0 -47 37q-12 46 6 46q86 4 134 23t56 38q-10 18 -93 21q-16 0 -16 8q0 13 14 34q10 18 42 23q83 14 83 43q0 19 -42 19
q-47 0 -86 -17q-6 -3 -8.5 0.5t0.5 8.5q11 27 25 43q9 12 31 22q37 17 89 17q46 0 69.5 -17.5t23.5 -47.5q0 -69 -104 -94q35 -27 35 -72q0 -62 -63 -98.5t-149 -36.5zM507 -23q-5 0 -7 4t2 10q32 52 49 78q-60 -2 -86 -2q-23 0 -25 12q-10 43 -10 44q0 20 24 44
q46 42 111.5 90.5t107.5 73.5q36 21 75 -1q31 -19 40 -31t-1 -30q-16 -29 -73 -115h33q11 0 11 -4q0 -10 -23 -46q-15 -24 -51 -27q-4 -1 -11.5 -1.5t-11.5 -0.5q-8 -11 -21.5 -31.5t-18.5 -27.5q-22 -30 -46 -33q-35 -6 -68 -6zM519 153l86 1q57 87 88 137
q-117 -84 -174 -138z" />
    <glyph glyph-name="questiondown" unicode="&#xbf;" horiz-adv-x="355" 
d="M175 251q24 55 45 92q9 16 30 13q22 -3 43 -12q13 -6 17.5 -18.5t-3.5 -27.5q-34 -56 -42 -66t-32 -10q-22 0 -47 5q-21 3 -11 24zM-31 -285q-48 0 -82 43q-14 19 -24 43q-31 36 -31 76q0 55 48 94.5t138 78.5q82 36 116 59.5t34 54.5q0 3 -1 7.5t-1 6.5q0 6 8 6
q7 0 21 -6.5t19 -13.5q10 -15 10 -51q0 -50 -43 -94.5t-95.5 -70.5t-109 -55.5t-73.5 -47.5q19 -29 62 -29q40 0 90.5 17.5t80.5 43.5q9 7 9 -1q0 -21 -10 -47q-7 -20 -21 -35q-30 -33 -70 -56t-75 -23z" />
    <glyph glyph-name="Agrave" unicode="&#xc0;" horiz-adv-x="585" 
d="M552 792q-16 7 -8 26q8 17 25 38q15 18 28 18.5t29 -13.5q19 -15 47 -46q22 -30 30 -51q10 -32 10 -47q0 -8 -4.5 -10t-10.5 2q-70 53 -146 83zM383 -79q-5 -4 -9.5 -2t-3.5 10q25 144 77 319q-174 -63 -283 -118q-84 -103 -98 -160q-5 -17 -13 -17q-21 0 -66 37
q-32 25 -30.5 55t35.5 78q75 103 237 268.5t243 228.5q48 37 68 48.5t37 11.5q7 0 20 -4.5t31 -11t31 -10.5q61 -18 29 -75q-59 -106 -115 -240q6 -3 12 -9q16 -16 16 -25q0 -5 -24 -13l-27 -9q-51 -126 -106 -299q-10 -31 -35 -48q-1 -1 -11 -6.5t-15 -8.5zM280 266
q83 26 189 54q44 133 77 210q-132 -116 -266 -264z" />
    <glyph glyph-name="Aacute" unicode="&#xc1;" horiz-adv-x="585" 
d="M608 750q117 46 182 93q11 8 20 -2q16 -16 26 -38q18 -38 -27 -55q-22 -9 -68.5 -18t-80.5 -9q-13 0 -25 4q-20 7 -28 12q-4 2 -5 5t0.5 5t5.5 3zM383 -79q-5 -4 -9.5 -2t-3.5 10q25 144 77 319q-174 -63 -283 -118q-84 -103 -98 -160q-5 -17 -13 -17q-21 0 -66 37
q-32 25 -30.5 55t35.5 78q75 103 237 268.5t243 228.5q48 37 68 48.5t37 11.5q7 0 20 -4.5t31 -11t31 -10.5q61 -18 29 -75q-59 -106 -115 -240q6 -3 12 -9q16 -16 16 -25q0 -5 -24 -13l-27 -9q-51 -126 -106 -299q-10 -31 -35 -48q-1 -1 -11 -6.5t-15 -8.5zM280 266
q83 26 189 54q44 133 77 210q-132 -116 -266 -264z" />
    <glyph glyph-name="Acircumflex" unicode="&#xc2;" horiz-adv-x="585" 
d="M736 716q-13 0 -21 18q-10 21 -17 40q-37 -9 -139 -50q-17 -7 -17 0q0 18 22 62q11 24 35 35q34 16 116 44q10 4 15 -0.5t10 -21.5q23 -72 30 -104q4 -13 -7 -17q-18 -6 -27 -6zM383 -79q-5 -4 -9.5 -2t-3.5 10q25 144 77 319q-174 -63 -283 -118q-84 -103 -98 -160
q-5 -17 -13 -17q-21 0 -66 37q-32 25 -30.5 55t35.5 78q75 103 237 268.5t243 228.5q48 37 68 48.5t37 11.5q7 0 20 -4.5t31 -11t31 -10.5q61 -18 29 -75q-59 -106 -115 -240q6 -3 12 -9q16 -16 16 -25q0 -5 -24 -13l-27 -9q-51 -126 -106 -299q-10 -31 -35 -48
q-1 -1 -11 -6.5t-15 -8.5zM280 266q83 26 189 54q44 133 77 210q-132 -116 -266 -264z" />
    <glyph glyph-name="Atilde" unicode="&#xc3;" horiz-adv-x="585" 
d="M731 709q-29 0 -47 35q-7 15 -11.5 19.5t-11.5 4.5q-10 0 -40 -9t-49 -18q-5 -2 -9 -2.5t-5.5 1t-0.5 4.5q8 34 22 46q62 54 106 54q24 0 32 -25t16 -29q56 11 95 50q5 5 8.5 3.5t1.5 -10.5q-12 -53 -17 -63q-9 -18 -36 -41q-25 -20 -54 -20zM383 -79q-5 -4 -9.5 -2
t-3.5 10q25 144 77 319q-174 -63 -283 -118q-84 -103 -98 -160q-5 -17 -13 -17q-21 0 -66 37q-32 25 -30.5 55t35.5 78q75 103 237 268.5t243 228.5q48 37 68 48.5t37 11.5q7 0 20 -4.5t31 -11t31 -10.5q61 -18 29 -75q-59 -106 -115 -240q6 -3 12 -9q16 -16 16 -25
q0 -5 -24 -13l-27 -9q-51 -126 -106 -299q-10 -31 -35 -48q-1 -1 -11 -6.5t-15 -8.5zM280 266q83 26 189 54q44 133 77 210q-132 -116 -266 -264z" />
    <glyph glyph-name="Adieresis" unicode="&#xc4;" horiz-adv-x="585" 
d="M615 839q4 7 19 5q32 -6 46 -14q13 -9 7 -24q-13 -37 -41 -61q-16 -12 -24 -12q-14 0 -36 5q-10 2 -7 12q11 48 36 89zM733 830q5 7 19 7q25 0 40 -7q18 -7 7 -36q-8 -18 -23 -37.5t-26 -26.5q-14 -9 -28 -9q-3 0 -33 9q-8 3 -2 19q11 33 46 81zM383 -79q-5 -4 -9.5 -2
t-3.5 10q25 144 77 319q-174 -63 -283 -118q-84 -103 -98 -160q-5 -17 -13 -17q-21 0 -66 37q-32 25 -30.5 55t35.5 78q75 103 237 268.5t243 228.5q48 37 68 48.5t37 11.5q7 0 20 -4.5t31 -11t31 -10.5q61 -18 29 -75q-59 -106 -115 -240q6 -3 12 -9q16 -16 16 -25
q0 -5 -24 -13l-27 -9q-51 -126 -106 -299q-10 -31 -35 -48q-1 -1 -11 -6.5t-15 -8.5zM280 266q83 26 189 54q44 133 77 210q-132 -116 -266 -264z" />
    <glyph glyph-name="Aring" unicode="&#xc5;" horiz-adv-x="585" 
d="M793 795q0 -43 -33.5 -77t-77.5 -34q-38 0 -66 23.5t-28 59.5q0 42 34 74.5t80 32.5q30 0 51 -15q40 -14 40 -64zM689 736q25 0 46.5 30t14.5 59q-30 6 -57.5 -16t-27.5 -49q0 -24 24 -24zM383 -79q-5 -4 -9.5 -2t-3.5 10q25 144 77 319q-174 -63 -283 -118
q-84 -103 -98 -160q-5 -17 -13 -17q-21 0 -66 37q-32 25 -30.5 55t35.5 78q75 103 237 268.5t243 228.5q48 37 68 48.5t37 11.5q7 0 20 -4.5t31 -11t31 -10.5q61 -18 29 -75q-59 -106 -115 -240q6 -3 12 -9q16 -16 16 -25q0 -5 -24 -13l-27 -9q-51 -126 -106 -299
q-10 -31 -35 -48q-1 -1 -11 -6.5t-15 -8.5zM280 266q83 26 189 54q44 133 77 210q-132 -116 -266 -264z" />
    <glyph glyph-name="AE" unicode="&#xc6;" horiz-adv-x="865" 
d="M438 -58q-18 -1 -31 4.5t-18.5 12t-18.5 23.5l-7 10q-7 9 -9 12t-7 13t-5.5 16.5t0.5 16t6 18.5q35 67 95 157l-216 -36l-13 -13q-72 -74 -102.5 -118t-44.5 -85q-6 -15 -11 -16h-3q-20 0 -63 41q-32 27 -29 61t43 81q87 104 275.5 269t284.5 230q51 33 71.5 43t37.5 9
q7 0 18.5 -5t30 -13.5t32.5 -13.5q12 16 17 24q20 26 38 15q9 -6 25.5 -24.5t27.5 -26.5l1 -1q160 13 290 16q7 0 7 -5q0 -16 -10 -31q-9 -13 -36 -18q-104 -20 -279 -48q-34 -56 -145 -217q155 20 229 27q11 0 7 -7q-8 -22 -23 -38q-17 -17 -50 -24q-116 -25 -222 -43
q-80 -115 -145 -212q160 24 299 40q17 3 17 -6q0 -2 -3.5 -12.5t-5.5 -19.5q-2 -8 -6 -12t-22 -10q-73 -26 -175 -53t-152 -31zM331 292q32 5 95 14t81 12q36 52 206 284q-172 -114 -382 -310z" />
    <glyph glyph-name="Ccedilla" unicode="&#xc7;" horiz-adv-x="525" 
d="M206 -39q-67 0 -99 51q-57 43 -57 122q0 109 104 237.5t259 223.5q147 92 251 92q48 0 81 -38q15 -19 21.5 -32.5t5.5 -19t-7 -7.5q-249 -79 -426.5 -229.5t-188.5 -281.5q8 -4 25 -4q63 0 162.5 40t170.5 94q13 10 13 -1q0 -48 -28 -81q-65 -76 -142.5 -121t-144.5 -45z
M161 -74q2 3 6 2q36 -15 54 -41q7 -10 2 -26q-9 -23 -51 -73q-14 -16 -34 -20q-45 -9 -77 -3q-8 2 -2 9q69 87 102 152z" />
    <glyph glyph-name="Egrave" unicode="&#xc8;" horiz-adv-x="515" 
d="M480 799q-16 7 -8 26q8 17 25 38q15 18 28 18.5t29 -13.5q19 -15 47 -46q22 -30 30 -51q10 -32 10 -47q0 -8 -4.5 -10t-10.5 2q-70 53 -146 83zM70 -58q-15 0 -26.5 6t-16.5 11.5t-17 22.5q-2 3 -9 12t-9 12t-6 10.5t-4.5 11.5t-1.5 11t1.5 14t6.5 15q65 126 315 466
l-9 -1q-17 -1 -30 10q-21 23 -29 61q-1 11 10 12q61 10 131 18l35 49q20 26 38 15q9 -6 26.5 -25t27.5 -27q140 13 300 16q7 0 7 -5q0 -16 -10 -31q-9 -13 -36 -18q-132 -25 -289 -49q-56 -87 -140 -209q148 14 234 20q11 0 7 -7q-7 -21 -23 -37t-50 -23q-93 -19 -228 -40
l-149 -217q221 30 309 40q17 3 17 -6q0 -2 -3.5 -12.5t-5.5 -19.5q-2 -8 -6 -12t-22 -10q-136 -48 -281 -76q-42 -8 -64 -8z" />
    <glyph glyph-name="Eacute" unicode="&#xc9;" horiz-adv-x="515" 
d="M555 752q117 46 182 93q11 8 20 -2q16 -16 26 -38q18 -38 -27 -55q-22 -9 -68.5 -18t-80.5 -9q-13 0 -25 4q-20 7 -28 12q-4 2 -5 5t0.5 5t5.5 3zM70 -58q-15 0 -26.5 6t-16.5 11.5t-17 22.5q-2 3 -9 12t-9 12t-6 10.5t-4.5 11.5t-1.5 11t1.5 14t6.5 15q65 126 315 466
l-9 -1q-17 -1 -30 10q-21 23 -29 61q-1 11 10 12q61 10 131 18l35 49q20 26 38 15q9 -6 26.5 -25t27.5 -27q140 13 300 16q7 0 7 -5q0 -16 -10 -31q-9 -13 -36 -18q-132 -25 -289 -49q-56 -87 -140 -209q148 14 234 20q11 0 7 -7q-7 -21 -23 -37t-50 -23q-93 -19 -228 -40
l-149 -217q221 30 309 40q17 3 17 -6q0 -2 -3.5 -12.5t-5.5 -19.5q-2 -8 -6 -12t-22 -10q-136 -48 -281 -76q-42 -8 -64 -8z" />
    <glyph glyph-name="Ecircumflex" unicode="&#xca;" horiz-adv-x="515" 
d="M718 724q-13 0 -21 18q-10 21 -17 40q-37 -9 -139 -50q-17 -7 -17 0q0 18 22 62q11 24 35 35q34 16 116 44q10 4 15 -0.5t10 -21.5q23 -72 30 -104q4 -13 -7 -17q-18 -6 -27 -6zM70 -58q-15 0 -26.5 6t-16.5 11.5t-17 22.5q-2 3 -9 12t-9 12t-6 10.5t-4.5 11.5t-1.5 11
t1.5 14t6.5 15q65 126 315 466l-9 -1q-17 -1 -30 10q-21 23 -29 61q-1 11 10 12q61 10 131 18l35 49q20 26 38 15q9 -6 26.5 -25t27.5 -27q140 13 300 16q7 0 7 -5q0 -16 -10 -31q-9 -13 -36 -18q-132 -25 -289 -49q-56 -87 -140 -209q148 14 234 20q11 0 7 -7
q-7 -21 -23 -37t-50 -23q-93 -19 -228 -40l-149 -217q221 30 309 40q17 3 17 -6q0 -2 -3.5 -12.5t-5.5 -19.5q-2 -8 -6 -12t-22 -10q-136 -48 -281 -76q-42 -8 -64 -8z" />
    <glyph glyph-name="Edieresis" unicode="&#xcb;" horiz-adv-x="515" 
d="M586 843q4 7 19 5q32 -6 46 -14q13 -9 7 -24q-13 -37 -41 -61q-16 -12 -24 -12q-14 0 -36 5q-10 2 -7 12q11 48 36 89zM704 834q5 7 19 7q25 0 40 -7q18 -7 7 -36q-8 -18 -23 -37.5t-26 -26.5q-13 -9 -28 -9q-3 0 -33 9q-8 3 -2 19q11 33 46 81zM70 -58q-15 0 -26.5 6
t-16.5 11.5t-17 22.5q-2 3 -9 12t-9 12t-6 10.5t-4.5 11.5t-1.5 11t1.5 14t6.5 15q65 126 315 466l-9 -1q-17 -1 -30 10q-21 23 -29 61q-1 11 10 12q61 10 131 18l35 49q20 26 38 15q9 -6 26.5 -25t27.5 -27q140 13 300 16q7 0 7 -5q0 -16 -10 -31q-9 -13 -36 -18
q-132 -25 -289 -49q-56 -87 -140 -209q148 14 234 20q11 0 7 -7q-7 -21 -23 -37t-50 -23q-93 -19 -228 -40l-149 -217q221 30 309 40q17 3 17 -6q0 -2 -3.5 -12.5t-5.5 -19.5q-2 -8 -6 -12t-22 -10q-136 -48 -281 -76q-42 -8 -64 -8z" />
    <glyph glyph-name="Igrave" unicode="&#xcc;" horiz-adv-x="305" 
d="M372 793q-16 7 -8 26q8 17 25 38q15 18 28 18.5t29 -13.5q19 -15 47 -46q22 -30 30 -51q10 -32 10 -47q0 -8 -4.5 -10t-10.5 2q-70 53 -146 83zM-81 -23q273 402 480 695q10 13 25 7q30 -12 49 -24q51 -32 -18 -129q-134 -205 -345 -505q-19 -26 -31 -36.5t-35 -13.5
q-11 -2 -46.5 -6t-51.5 -7q-15 -3 -23.5 -1.5t-8.5 7t5 13.5z" />
    <glyph glyph-name="Iacute" unicode="&#xcd;" horiz-adv-x="305" 
d="M452 752q117 46 182 93q11 8 20 -2q16 -16 26 -38q18 -38 -27 -55q-22 -9 -68.5 -18t-80.5 -9q-13 0 -25 4q-20 7 -28 12q-4 2 -5 5t0.5 5t5.5 3zM-81 -23q273 402 480 695q10 13 25 7q30 -12 49 -24q51 -32 -18 -129q-134 -205 -345 -505q-19 -26 -31 -36.5t-35 -13.5
q-11 -2 -46.5 -6t-51.5 -7q-15 -3 -23.5 -1.5t-8.5 7t5 13.5z" />
    <glyph glyph-name="Icircumflex" unicode="&#xce;" horiz-adv-x="305" 
d="M567 712q-13 0 -21 18q-10 21 -17 40q-37 -9 -139 -50q-17 -7 -17 0q0 18 22 62q11 24 35 35q34 16 116 44q10 4 15 -0.5t10 -21.5q23 -72 30 -104q4 -13 -7 -17q-18 -6 -27 -6zM-81 -23q273 402 480 695q10 13 25 7q30 -12 49 -24q51 -32 -18 -129q-134 -205 -345 -505
q-19 -26 -31 -36.5t-35 -13.5q-11 -2 -46.5 -6t-51.5 -7q-15 -3 -23.5 -1.5t-8.5 7t5 13.5z" />
    <glyph glyph-name="Idieresis" unicode="&#xcf;" horiz-adv-x="305" 
d="M439 842q4 7 19 5q32 -6 46 -14q13 -9 7 -24q-13 -37 -41 -61q-16 -12 -24 -12q-14 0 -36 5q-10 2 -7 12q11 48 36 89zM557 833q5 7 19 7q25 0 40 -7q18 -7 7 -36q-8 -18 -23 -37.5t-26 -26.5q-14 -9 -28 -9q-3 0 -33 9q-8 3 -2 19q11 33 46 81zM-81 -23q273 402 480 695
q10 13 25 7q30 -12 49 -24q51 -32 -18 -129q-134 -205 -345 -505q-19 -26 -31 -36.5t-35 -13.5q-11 -2 -46.5 -6t-51.5 -7q-15 -3 -23.5 -1.5t-8.5 7t5 13.5z" />
    <glyph glyph-name="Eth" unicode="&#xd0;" horiz-adv-x="615" 
d="M43 -57q-45 0 -64.5 19.5t-31.5 63.5q-7 27 11 28q37 1 75 6q-17 22 -20.5 35t5.5 27q38 58 107 159h-10q-18 0 -28 13q-3 3 -4.5 9t-3 15t-2.5 12q-3 14 11 17q25 5 91 12q15 22 43 61.5t51 72t44 61.5l-1 2q-22 38 -42 63q-19 23 2 28q62 12 116 12l39 54q4 8 12.5 5.5
t26.5 -20.5q29 -29 34 -51q129 -31 172 -141q46 -120 -59 -266q-90 -125 -253 -211t-321 -86zM446 321q-78 -15 -143 -23q-111 -172 -139 -215q203 51 331 168t143 224q-42 73 -177 75q-95 -153 -109 -175q103 9 136 11q5 0 5 -6q0 -17 -16 -42q-9 -13 -31 -17z" />
    <glyph glyph-name="Ntilde" unicode="&#xd1;" horiz-adv-x="610" 
d="M745 704q-29 0 -47 35q-7 15 -11.5 19.5t-11.5 4.5q-10 0 -40 -9t-49 -18q-5 -2 -9 -2.5t-5.5 1t-0.5 4.5q8 34 22 46q62 54 106 54q24 0 32 -25t16 -29q56 11 95 50q5 5 8.5 3.5t1.5 -10.5q-12 -53 -17 -63q-9 -18 -36 -41q-25 -20 -54 -20zM8 -19q-9 -12 -30.5 -19.5
t-39.5 -7.5q-12 0 -12 10q0 11 14 34q100 165 255 384.5t224 291.5q17 17 31 14q39 -8 71 -29q20 -13 23 -35t-7 -62q-7 -37 -80 -344q117 159 352 424q20 23 52 18q16 -2 7 -12q-288 -363 -420 -594q-14 -24 -25 -34t-30 -16q-64 -20 -90 -20q-21 0 -28.5 12.5t0.5 45.5
q46 206 106 429q-169 -199 -373 -490z" />
    <glyph glyph-name="Ograve" unicode="&#xd2;" horiz-adv-x="620" 
d="M521 789q-16 7 -8 26q8 17 25 38q15 18 28 18.5t29 -13.5q19 -15 47 -46q22 -30 30 -51q10 -32 10 -47q0 -8 -4.5 -10t-10.5 2q-70 53 -146 83zM246 -44q-45 0 -102 37q-47 30 -64.5 62.5t-17.5 87.5q0 118 99 258q81 114 195 194t187 80q50 0 84 -45q72 -35 72 -151
q0 -49 -18.5 -112.5t-48.5 -116.5q-80 -140 -189 -217t-197 -77zM294 326q-39 -53 -65.5 -134t-15.5 -133q96 20 194 95.5t161 175t63 184.5q0 54 -27 78q-165 -70 -310 -266z" />
    <glyph glyph-name="Oacute" unicode="&#xd3;" horiz-adv-x="620" 
d="M561 751q117 46 182 93q11 8 20 -2q16 -16 26 -38q18 -38 -27 -55q-22 -9 -68.5 -18t-80.5 -9q-13 0 -25 4q-20 7 -28 12q-4 2 -5 5t0.5 5t5.5 3zM246 -44q-45 0 -102 37q-47 30 -64.5 62.5t-17.5 87.5q0 118 99 258q81 114 195 194t187 80q50 0 84 -45q72 -35 72 -151
q0 -49 -18.5 -112.5t-48.5 -116.5q-80 -140 -189 -217t-197 -77zM294 326q-39 -53 -65.5 -134t-15.5 -133q96 20 194 95.5t161 175t63 184.5q0 54 -27 78q-165 -70 -310 -266z" />
    <glyph glyph-name="Ocircumflex" unicode="&#xd4;" horiz-adv-x="620" 
d="M725 714q-13 0 -21 18q-10 21 -17 40q-37 -9 -139 -50q-17 -7 -17 0q0 18 22 62q11 24 35 35q34 16 116 44q10 4 15 -0.5t10 -21.5q23 -72 30 -104q4 -13 -7 -17q-18 -6 -27 -6zM246 -44q-45 0 -102 37q-47 30 -64.5 62.5t-17.5 87.5q0 118 99 258q81 114 195 194t187 80
q50 0 84 -45q72 -35 72 -151q0 -49 -18.5 -112.5t-48.5 -116.5q-80 -140 -189 -217t-197 -77zM294 326q-39 -53 -65.5 -134t-15.5 -133q96 20 194 95.5t161 175t63 184.5q0 54 -27 78q-165 -70 -310 -266z" />
    <glyph glyph-name="Otilde" unicode="&#xd5;" horiz-adv-x="620" 
d="M715 707q-29 0 -47 35q-7 15 -11.5 19.5t-11.5 4.5q-10 0 -40 -9t-49 -18q-5 -2 -9 -2.5t-5.5 1t-0.5 4.5q8 34 22 46q62 54 106 54q24 0 32 -25t16 -29q56 11 95 50q5 5 8.5 3.5t1.5 -10.5q-12 -53 -17 -63q-9 -18 -36 -41q-25 -20 -54 -20zM246 -44q-45 0 -102 37
q-47 30 -64.5 62.5t-17.5 87.5q0 118 99 258q81 114 195 194t187 80q50 0 84 -45q72 -35 72 -151q0 -49 -18.5 -112.5t-48.5 -116.5q-80 -140 -189 -217t-197 -77zM294 326q-39 -53 -65.5 -134t-15.5 -133q96 20 194 95.5t161 175t63 184.5q0 54 -27 78q-165 -70 -310 -266z
" />
    <glyph glyph-name="Odieresis" unicode="&#xd6;" horiz-adv-x="620" 
d="M605 844q4 7 19 5q32 -6 46 -14q13 -9 7 -24q-13 -37 -41 -61q-16 -12 -24 -12q-14 0 -36 5q-10 2 -7 12q11 48 36 89zM723 835q5 7 19 7q25 0 40 -7q18 -7 7 -36q-8 -18 -23 -37.5t-26 -26.5q-14 -9 -28 -9q-3 0 -33 9q-8 3 -2 19q11 33 46 81zM246 -44q-45 0 -102 37
q-47 30 -64.5 62.5t-17.5 87.5q0 118 99 258q81 114 195 194t187 80q50 0 84 -45q72 -35 72 -151q0 -49 -18.5 -112.5t-48.5 -116.5q-80 -140 -189 -217t-197 -77zM294 326q-39 -53 -65.5 -134t-15.5 -133q96 20 194 95.5t161 175t63 184.5q0 54 -27 78q-165 -70 -310 -266z
" />
    <glyph glyph-name="multiply" unicode="&#xd7;" horiz-adv-x="395" 
d="M289 34q-49 0 -69 16q-18 14 -26 41l-5 19q-5 19 -7 32q-106 -66 -158 -94q-13 -7 -19 -5.5t-7 14.5q-1 24 4 48q4 17 29 35q38 27 135 89l-11 71q-9 63 5 84q10 14 50 36q8 4 12 1.5t8 -17.5q9 -36 25 -119q126 77 190 111q8 4 12 4.5t5 -2t2 -9.5q2 -28 -7 -49
q-10 -25 -55 -57q-45 -31 -129 -84q26 -137 26 -139q2 -17 0 -21.5t-10 -4.5z" />
    <glyph glyph-name="Oslash" unicode="&#xd8;" horiz-adv-x="620" 
d="M294 326q-35 -47 -64 -128q376 325 399 344q-6 34 -25 50q-165 -70 -310 -266zM213 59q133 28 261.5 156t152.5 255q-172 -155 -417 -369q0 -29 3 -42zM-3 -83q-12 -11 -34 -6q-12 5 -21 14q-11 13 2 24q17 15 60.5 53t70.5 61q-13 32 -13 80q0 118 99 258
q81 114 195 194t187 80q50 0 84 -45q30 -16 49 -48q38 33 116 100q8 6 9 0q6 -20 6 -31q0 -17 -20 -35q-15 -13 -93 -85q5 -27 5 -52q0 -49 -18.5 -112.5t-48.5 -116.5q-80 -140 -189 -217t-197 -77q-45 0 -102 37q-24 16 -32 23q-21 -18 -115 -99z" />
    <glyph glyph-name="Ugrave" unicode="&#xd9;" horiz-adv-x="610" 
d="M507 791q-16 7 -8 26q8 17 25 38q15 18 28 18.5t29 -13.5q19 -15 47 -46q22 -30 30 -51q10 -32 10 -47q0 -8 -4.5 -10t-10.5 2q-70 53 -146 83zM219 -42q-51 0 -85 23q-78 28 -78 131q0 110 150 315q102 142 213 255q11 11 23 4q25 -14 59 -52q28 -30 -5 -68
q-106 -127 -176 -223q-153 -212 -146 -308q111 15 282 215q132 152 274 391q8 12 18 2q3 -3 8.5 -11.5t9.5 -12.5q23 -26 1 -69q-103 -203 -226 -360q-94 -121 -169 -176.5t-153 -55.5z" />
    <glyph glyph-name="Uacute" unicode="&#xda;" horiz-adv-x="610" 
d="M572 753q117 46 182 93q11 8 20 -2q16 -16 26 -38q18 -38 -27 -55q-22 -9 -68.5 -18t-80.5 -9q-13 0 -25 4q-20 7 -28 12q-4 2 -5 5t0.5 5t5.5 3zM219 -42q-51 0 -85 23q-78 28 -78 131q0 110 150 315q102 142 213 255q11 11 23 4q25 -14 59 -52q28 -30 -5 -68
q-106 -127 -176 -223q-153 -212 -146 -308q111 15 282 215q132 152 274 391q8 12 18 2q3 -3 8.5 -11.5t9.5 -12.5q23 -26 1 -69q-103 -203 -226 -360q-94 -121 -169 -176.5t-153 -55.5z" />
    <glyph glyph-name="Ucircumflex" unicode="&#xdb;" horiz-adv-x="610" 
d="M725 715q-13 0 -21 18q-10 21 -17 40q-37 -9 -139 -50q-17 -7 -17 0q0 18 22 62q11 24 35 35q34 16 116 44q10 4 15 -0.5t10 -21.5q23 -72 30 -104q4 -13 -7 -17q-18 -6 -27 -6zM219 -42q-51 0 -85 23q-78 28 -78 131q0 110 150 315q102 142 213 255q11 11 23 4
q25 -14 59 -52q28 -30 -5 -68q-106 -127 -176 -223q-153 -212 -146 -308q111 15 282 215q132 152 274 391q8 12 18 2q3 -3 8.5 -11.5t9.5 -12.5q23 -26 1 -69q-103 -203 -226 -360q-94 -121 -169 -176.5t-153 -55.5z" />
    <glyph glyph-name="Udieresis" unicode="&#xdc;" horiz-adv-x="610" 
d="M606 841q4 7 19 5q32 -6 46 -14q13 -9 7 -24q-13 -37 -41 -61q-16 -12 -24 -12q-14 0 -36 5q-10 2 -7 12q11 48 36 89zM724 832q5 7 19 7q25 0 40 -7q18 -7 7 -36q-8 -18 -23 -37.5t-26 -26.5q-13 -9 -28 -9q-3 0 -33 9q-8 3 -2 19q11 33 46 81zM219 -42q-51 0 -85 23
q-78 28 -78 131q0 110 150 315q102 142 213 255q11 11 23 4q25 -14 59 -52q28 -30 -5 -68q-106 -127 -176 -223q-153 -212 -146 -308q111 15 282 215q132 152 274 391q8 12 18 2q3 -3 8.5 -11.5t9.5 -12.5q23 -26 1 -69q-103 -203 -226 -360q-94 -121 -169 -176.5
t-153 -55.5z" />
    <glyph glyph-name="Yacute" unicode="&#xdd;" horiz-adv-x="475" 
d="M496 733q117 46 182 93q11 8 20 -2q16 -16 26 -38q18 -38 -27 -55q-22 -9 -68.5 -18t-80.5 -9q-13 0 -25 4q-20 7 -28 12q-4 2 -5 5t0.5 5t5.5 3zM8 -44q-13 0 -4 15q96 154 199 306q31 244 64 383q6 31 17 31q10 0 31.5 -7t32.5 -13q21 -10 29.5 -32t2.5 -72
q-15 -126 -20 -208q202 168 369 325q9 8 12 1q3 -9 3 -25q0 -17 -25 -45q-155 -172 -355 -352q-97 -139 -186 -257q-18 -28 -58 -33q-20 -2 -62.5 -9.5t-49.5 -7.5z" />
    <glyph glyph-name="Thorn" unicode="&#xde;" horiz-adv-x="540" 
d="M460 435q-26 0 -69 -5q-91 -135 -161 -235q97 13 200 78t125 138q-31 24 -95 24zM19 -48q-26 -1 -56 -6t-38 -5q-12 0 -5 12q111 191 291 461q-6 12 -7 22q-4 28 -4 54q0 11 6.5 16.5t24.5 10.5q25 7 58 11q64 95 107 156q8 12 20 5q28 -17 66 -49q29 -25 2 -69
q-3 -6 -12.5 -20t-14.5 -23q83 -13 128 -62q32 -34 32 -76q0 -71 -54.5 -141t-130.5 -114.5t-149 -56.5q-51 -8 -72 17q-11 14 -24 39q-23 -33 -113 -158q-18 -24 -55 -24z" />
    <glyph glyph-name="germandbls" unicode="&#xdf;" horiz-adv-x="475" 
d="M-113 -144q-10 -2 -12 5t4 20q71 144 178 308q136 209 241 333q75 89 141.5 128.5t113.5 39.5q34 0 59 -13q16 -9 18 -21q35 -37 35 -103q0 -60 -26.5 -109t-64.5 -78.5t-75.5 -52.5t-64 -42.5t-26.5 -36.5q0 -10 19.5 -49t19.5 -65q0 -55 -86 -107q-48 -29 -98 -29
q-32 0 -67 21q-17 11 -32 26q-13 13 8 22q84 38 142.5 78.5t58.5 69.5q0 12 -13.5 42.5t-13.5 54.5q0 28 27.5 54t67 49.5t79.5 48.5t67.5 61t27.5 77q0 34 -9 52q-119 -27 -316 -331q-164 -251 -255 -378q-37 -52 -73 -61q-8 -2 -35 -6t-40 -8z" />
    <glyph glyph-name="agrave" unicode="&#xe0;" horiz-adv-x="475" 
d="M323 504q-25 32 -9 50q29 29 64 40q7 2 13 -10q18 -35 26 -79q7 -33 3 -55q-5 -28 -13 -48q-2 -5 -5 -7t-6 -1t-5 4q-25 45 -68 106zM126 54q82 35 153 129q29 54 57 95q-83 -27 -147.5 -96.5t-62.5 -127.5zM139 -11q-17 -10 -37.5 -5t-48.5 29q-26 14 -44 44
q-40 66 44 166q79 95 186 129q33 11 62 4q38 -10 66 -48q16 4 29 -4q15 -8 36 -26t31 -31q7 -11 -4 -23q-60 -71 -86 -164q73 13 159 129l3 4q8 11 12 7l3 -3q8 -8 2 -19l-3 -5q-37 -61 -110 -124.5t-142 -63.5q-33 0 -46.5 25t-6.5 69q-63 -72 -105 -90z" />
    <glyph glyph-name="aacute" unicode="&#xe1;" horiz-adv-x="475" 
d="M329 438q119 69 183 131q7 7 16 3q13 -5 30 -16.5t23 -19.5q10 -15 -14 -35q-18 -15 -53.5 -35t-63.5 -30q-25 -9 -49 -11q-29 -3 -68 2q-8 1 -8 5t4 6zM126 54q82 35 153 129q29 54 57 95q-83 -27 -147.5 -96.5t-62.5 -127.5zM139 -11q-17 -10 -37.5 -5t-48.5 29
q-26 14 -44 44q-40 66 44 166q79 95 186 129q33 11 62 4q38 -10 66 -48q16 4 29 -4q15 -8 36 -26t31 -31q7 -11 -4 -23q-60 -71 -86 -164q73 13 159 129l3 4q8 11 12 7l3 -3q8 -8 2 -19l-3 -5q-37 -61 -110 -124.5t-142 -63.5q-33 0 -46.5 25t-6.5 69q-63 -72 -105 -90z" />
    <glyph glyph-name="acircumflex" unicode="&#xe2;" horiz-adv-x="475" 
d="M450 406q-13 0 -21 18q-10 21 -17 40q-37 -9 -139 -50q-17 -7 -17 0q0 18 22 62q11 24 35 35q34 16 116 44q10 4 15 -0.5t10 -21.5q23 -72 30 -104q4 -13 -7 -17q-18 -6 -27 -6zM126 54q82 35 153 129q29 54 57 95q-83 -27 -147.5 -96.5t-62.5 -127.5zM139 -11
q-17 -10 -37.5 -5t-48.5 29q-26 14 -44 44q-40 66 44 166q79 95 186 129q33 11 62 4q38 -10 66 -48q16 4 29 -4q15 -8 36 -26t31 -31q7 -11 -4 -23q-60 -71 -86 -164q73 13 159 129l3 4q8 11 12 7l3 -3q8 -8 2 -19l-3 -5q-37 -61 -110 -124.5t-142 -63.5q-33 0 -46.5 25
t-6.5 69q-63 -72 -105 -90z" />
    <glyph glyph-name="atilde" unicode="&#xe3;" horiz-adv-x="475" 
d="M437 394q-29 0 -47 35q-7 15 -11.5 19.5t-11.5 4.5q-10 0 -40 -9t-49 -18q-5 -2 -9 -2.5t-5.5 1t-0.5 4.5q8 34 22 46q62 54 106 54q24 0 32 -25t16 -29q56 11 95 50q5 5 8.5 3.5t1.5 -10.5q-12 -53 -17 -63q-9 -18 -36 -41q-25 -20 -54 -20zM126 54q82 35 153 129
q29 54 57 95q-83 -27 -147.5 -96.5t-62.5 -127.5zM139 -11q-17 -10 -37.5 -5t-48.5 29q-26 14 -44 44q-40 66 44 166q79 95 186 129q33 11 62 4q38 -10 66 -48q16 4 29 -4q15 -8 36 -26t31 -31q7 -11 -4 -23q-60 -71 -86 -164q73 13 159 129l3 4q8 11 12 7l3 -3q8 -8 2 -19
l-3 -5q-37 -61 -110 -124.5t-142 -63.5q-33 0 -46.5 25t-6.5 69q-63 -72 -105 -90z" />
    <glyph glyph-name="adieresis" unicode="&#xe4;" horiz-adv-x="475" 
d="M335 532q4 7 19 5q32 -6 46 -14q13 -9 7 -24q-13 -37 -41 -61q-16 -12 -24 -12q-14 0 -36 5q-10 2 -7 12q11 48 36 89zM453 523q5 7 19 7q25 0 40 -7q18 -7 7 -36q-8 -18 -23 -37.5t-26 -26.5q-14 -9 -28 -9q-3 0 -33 9q-8 3 -2 19q11 33 46 81zM126 54q82 35 153 129
q29 54 57 95q-83 -27 -147.5 -96.5t-62.5 -127.5zM139 -11q-17 -10 -37.5 -5t-48.5 29q-26 14 -44 44q-40 66 44 166q79 95 186 129q33 11 62 4q38 -10 66 -48q16 4 29 -4q15 -8 36 -26t31 -31q7 -11 -4 -23q-60 -71 -86 -164q73 13 159 129l3 4q8 11 12 7l3 -3q8 -8 2 -19
l-3 -5q-37 -61 -110 -124.5t-142 -63.5q-33 0 -46.5 25t-6.5 69q-63 -72 -105 -90z" />
    <glyph glyph-name="aring" unicode="&#xe5;" horiz-adv-x="475" 
d="M510 489q0 -43 -33.5 -77t-77.5 -34q-38 0 -66 23.5t-28 59.5q0 42 34 74.5t80 32.5q30 0 51 -15q40 -14 40 -64zM406 430q25 0 46.5 30t14.5 59q-30 6 -57.5 -16t-27.5 -49q0 -24 24 -24zM126 54q82 35 153 129q29 54 57 95q-83 -27 -147.5 -96.5t-62.5 -127.5zM139 -11
q-17 -10 -37.5 -5t-48.5 29q-26 14 -44 44q-40 66 44 166q79 95 186 129q33 11 62 4q38 -10 66 -48q16 4 29 -4q15 -8 36 -26t31 -31q7 -11 -4 -23q-60 -71 -86 -164q73 13 159 129l3 4q8 11 12 7l3 -3q8 -8 2 -19l-3 -5q-37 -61 -110 -124.5t-142 -63.5q-33 0 -46.5 25
t-6.5 69q-63 -72 -105 -90z" />
    <glyph glyph-name="ae" unicode="&#xe6;" horiz-adv-x="615" 
d="M392 -34q-59 0 -105 65q-23 33 -24 72q-72 -91 -124 -114q-17 -10 -37.5 -5t-48.5 29q-26 14 -44 44q-40 66 44 166q79 95 186 129q33 11 62 4q26 -6 53 -33q13 33 20 52q4 10 17 4q24 -12 60 -36q34 14 62 14q25 0 51 -17q23 -16 32 -28q34 -27 34 -59
q0 -24 -18.5 -47.5t-66.5 -54.5q-55 -34 -160 -70q-5 -27 0 -39q13 -7 33 -7q58 0 130.5 43t123.5 111l3 4q8 11 12 7l3 -3q8 -8 2 -19l-3 -5q-52 -87 -137 -147t-160 -60zM517 190q65 47 51 95q-42 -9 -93 -60q-45 -45 -71 -95q74 31 113 60zM126 54q57 25 105 73
q62 62 103 150q-76 -26 -135 -85q-75 -75 -73 -138z" />
    <glyph glyph-name="ccedilla" unicode="&#xe7;" horiz-adv-x="335" 
d="M139 -33q-33 0 -52 9.5t-42 36.5q-80 93 4 205q44 58 114 101t121 43q31 0 65 -27q18 -14 24.5 -26t3 -18.5t-12.5 -8.5q-95 -26 -170.5 -96.5t-82.5 -134.5q18 -10 50 -10q43 0 113 41.5t118 106.5l3 4q8 11 12 7l3 -3q8 -8 2 -19l-3 -5q-43 -71 -125 -138.5t-145 -67.5
zM74 -72q2 3 6 2q36 -15 54 -41q7 -10 2 -26q-9 -23 -51 -73q-14 -16 -34 -20q-45 -9 -77 -3q-8 2 -2 9q69 87 102 152z" />
    <glyph glyph-name="egrave" unicode="&#xe8;" horiz-adv-x="370" 
d="M223 514q-25 32 -9 50q29 29 64 40q7 2 13 -10q18 -35 26 -79q7 -33 3 -55q-5 -28 -13 -48q-2 -5 -5 -7t-6 -1t-5 4q-25 45 -68 106zM147 -34q-30 0 -55.5 14t-56.5 51q-68 79 25 201q40 52 100 88.5t108 36.5q26 0 51 -17q23 -16 32 -28q34 -27 34 -59
q0 -24 -18.5 -47.5t-66.5 -54.5q-55 -34 -160 -70q-5 -27 0 -39q13 -7 33 -7q58 0 130.5 43t123.5 111l3 4q8 11 12 7l3 -3q8 -8 2 -19l-3 -5q-52 -87 -137 -147t-160 -60zM272 190q65 47 51 95q-40 -9 -88.5 -55.5t-75.5 -99.5q74 31 113 60z" />
    <glyph glyph-name="eacute" unicode="&#xe9;" horiz-adv-x="370" 
d="M232 438q119 69 183 131q7 7 16 3q13 -5 30 -16.5t23 -19.5q10 -15 -14 -35q-18 -15 -53.5 -35t-63.5 -30q-25 -9 -49 -11q-29 -3 -68 2q-8 1 -8 5t4 6zM147 -34q-30 0 -55.5 14t-56.5 51q-68 79 25 201q40 52 100 88.5t108 36.5q26 0 51 -17q23 -16 32 -28
q34 -27 34 -59q0 -24 -18.5 -47.5t-66.5 -54.5q-55 -34 -160 -70q-5 -27 0 -39q13 -7 33 -7q58 0 130.5 43t123.5 111l3 4q8 11 12 7l3 -3q8 -8 2 -19l-3 -5q-52 -87 -137 -147t-160 -60zM272 190q65 47 51 95q-40 -9 -88.5 -55.5t-75.5 -99.5q74 31 113 60z" />
    <glyph glyph-name="ecircumflex" unicode="&#xea;" horiz-adv-x="370" 
d="M380 406q-13 0 -21 18q-10 21 -17 40q-37 -9 -139 -50q-17 -7 -17 0q0 18 22 62q11 24 35 35q34 16 116 44q10 4 15 -0.5t10 -21.5q23 -72 30 -104q4 -13 -7 -17q-18 -6 -27 -6zM147 -34q-30 0 -55.5 14t-56.5 51q-68 79 25 201q40 52 100 88.5t108 36.5q26 0 51 -17
q23 -16 32 -28q34 -27 34 -59q0 -24 -18.5 -47.5t-66.5 -54.5q-55 -34 -160 -70q-5 -27 0 -39q13 -7 33 -7q58 0 130.5 43t123.5 111l3 4q8 11 12 7l3 -3q8 -8 2 -19l-3 -5q-52 -87 -137 -147t-160 -60zM272 190q65 47 51 95q-40 -9 -88.5 -55.5t-75.5 -99.5q74 31 113 60z
" />
    <glyph glyph-name="edieresis" unicode="&#xeb;" horiz-adv-x="370" 
d="M260 537q4 7 19 5q32 -6 46 -14q13 -9 7 -24q-13 -37 -41 -61q-16 -12 -24 -12q-14 0 -36 5q-10 2 -7 12q11 48 36 89zM378 528q5 7 19 7q25 0 40 -7q18 -7 7 -36q-8 -18 -23 -37.5t-26 -26.5q-13 -9 -28 -9q-3 0 -33 9q-8 3 -2 19q11 33 46 81zM147 -34q-30 0 -55.5 14
t-56.5 51q-68 79 25 201q40 52 100 88.5t108 36.5q26 0 51 -17q23 -16 32 -28q34 -27 34 -59q0 -24 -18.5 -47.5t-66.5 -54.5q-55 -34 -160 -70q-5 -27 0 -39q13 -7 33 -7q58 0 130.5 43t123.5 111l3 4q8 11 12 7l3 -3q8 -8 2 -19l-3 -5q-52 -87 -137 -147t-160 -60z
M272 190q65 47 51 95q-40 -9 -88.5 -55.5t-75.5 -99.5q74 31 113 60z" />
    <glyph glyph-name="igrave" unicode="&#xec;" horiz-adv-x="260" 
d="M223 504q-25 32 -9 50q29 29 64 40q7 2 13 -10q18 -35 26 -79q7 -33 3 -55q-5 -28 -13 -48q-2 -5 -5 -7t-6 -1t-5 4q-25 45 -68 106zM100 -34q-28 0 -61 23q-28 21 -36 39q-15 28 -2.5 65.5t56.5 95.5q79 105 105 155q9 17 13.5 20.5t14.5 0.5q12 -4 37.5 -11.5
t32.5 -11.5q44 -23 -5 -89q-126 -165 -134 -223q85 11 196 159l3 4q8 11 12 7l3 -3q8 -8 2 -19l-3 -5q-40 -66 -111.5 -136.5t-122.5 -70.5z" />
    <glyph glyph-name="iacute" unicode="&#xed;" horiz-adv-x="260" 
d="M202 438q119 69 183 131q7 7 16 3q13 -5 30 -16.5t23 -19.5q10 -15 -14 -35q-18 -15 -53.5 -35t-63.5 -30q-25 -9 -49 -11q-29 -3 -68 2q-8 1 -8 5t4 6zM100 -34q-28 0 -61 23q-28 21 -36 39q-15 28 -2.5 65.5t56.5 95.5q79 105 105 155q9 17 13.5 20.5t14.5 0.5
q12 -4 37.5 -11.5t32.5 -11.5q44 -23 -5 -89q-126 -165 -134 -223q85 11 196 159l3 4q8 11 12 7l3 -3q8 -8 2 -19l-3 -5q-40 -66 -111.5 -136.5t-122.5 -70.5z" />
    <glyph glyph-name="icircumflex" unicode="&#xee;" horiz-adv-x="260" 
d="M336 406q-13 0 -21 18q-10 21 -17 40q-37 -9 -139 -50q-17 -7 -17 0q0 18 22 62q11 24 35 35q34 16 116 44q10 4 15 -0.5t10 -21.5q23 -72 30 -104q4 -13 -7 -17q-18 -6 -27 -6zM100 -34q-28 0 -61 23q-28 21 -36 39q-15 28 -2.5 65.5t56.5 95.5q79 105 105 155
q9 17 13.5 20.5t14.5 0.5q12 -4 37.5 -11.5t32.5 -11.5q44 -23 -5 -89q-126 -165 -134 -223q85 11 196 159l3 4q8 11 12 7l3 -3q8 -8 2 -19l-3 -5q-40 -66 -111.5 -136.5t-122.5 -70.5z" />
    <glyph glyph-name="idieresis" unicode="&#xef;" horiz-adv-x="260" 
d="M215 532q4 7 19 5q32 -6 46 -14q13 -9 7 -24q-13 -37 -41 -61q-16 -12 -24 -12q-14 0 -36 5q-10 2 -7 12q11 48 36 89zM333 523q5 7 19 7q25 0 40 -7q18 -7 7 -36q-8 -18 -23 -37.5t-26 -26.5q-14 -9 -28 -9q-3 0 -33 9q-8 3 -2 19q11 33 46 81zM100 -34q-28 0 -61 23
q-28 21 -36 39q-15 28 -2.5 65.5t56.5 95.5q79 105 105 155q9 17 13.5 20.5t14.5 0.5q12 -4 37.5 -11.5t32.5 -11.5q44 -23 -5 -89q-126 -165 -134 -223q85 11 196 159l3 4q8 11 12 7l3 -3q8 -8 2 -19l-3 -5q-40 -66 -111.5 -136.5t-122.5 -70.5z" />
    <glyph glyph-name="eth" unicode="&#xf0;" horiz-adv-x="425" 
d="M158 -25q-71 0 -114 45q-35 38 -35 89q0 57 44 115q41 55 99.5 94t114.5 39q22 0 45 -10.5t35 -25.5q19 82 20 153q-32 -18 -60 -31q-29 -13 -39 -13q-15 0 -35 13q-19 12 -19 18q0 4 9 9q39 22 142 73q-9 100 -27 129q-4 8 -2 12.5t7 4.5q48 0 80 -11q43 -16 58 -80
q50 23 67 30q19 7 19 -2q0 -3 -7 -22q-5 -15 -65 -52l-8 -5q1 -9 1 -28q0 -122 -38 -232q-49 -142 -125.5 -227t-166.5 -85zM170 153q-45 -74 -26 -124q70 16 120 89.5t77 175.5q-42 -5 -88 -42t-83 -99z" />
    <glyph glyph-name="ntilde" unicode="&#xf1;" 
d="M432 384q-30 0 -47 35q-7 15 -11.5 19.5t-11.5 4.5q-10 0 -40 -9t-49 -18q-5 -2 -9 -2.5t-5.5 1t-0.5 4.5q8 34 22 46q62 54 106 54q24 0 32 -25t16 -29q56 11 95 50q5 5 8.5 3.5t1.5 -10.5q-12 -53 -17 -63q-9 -18 -36 -41q-25 -20 -54 -20zM93 -9q-16 -16 -25 -16
q-23 0 -51 23q-32 25 -32 57q0 40 72 134q104 137 122 169q5 9 14 9q39 0 82 -41q26 -26 15 -53q89 47 119 47q25 0 47 -20q17 -16 18.5 -32t-10.5 -41q-9 -19 -50.5 -85.5t-48.5 -92.5q81 19 172 140l3 4q8 11 12 7l3 -3q8 -8 2 -19l-3 -5q-37 -61 -104.5 -123.5
t-124.5 -62.5q-34 0 -64 33q-39 44 -18 90q14 30 55 80.5t51 65.5q-61 -41 -148 -117q-82 -122 -108 -148z" />
    <glyph glyph-name="ograve" unicode="&#xf2;" horiz-adv-x="390" 
d="M243 504q-25 32 -9 50q29 29 64 40q7 2 13 -10q18 -35 26 -79q7 -33 3 -55q-5 -28 -13 -48q-2 -5 -5 -7t-6 -1t-5 4q-25 45 -68 106zM142 -25q-55 0 -98 45q-35 38 -35 89q0 57 44 115q40 54 97.5 93.5t105.5 39.5q24 0 49 -12t35 -28q41 -15 41 -77q0 -57 -41 -127
q-37 -64 -89 -101t-109 -37zM170 143q-37 -57 -30 -97q74 19 137 88t63 128q0 23 -14 28q-35 -11 -78 -51t-78 -96z" />
    <glyph glyph-name="oacute" unicode="&#xf3;" horiz-adv-x="390" 
d="M232 428q119 69 183 131q7 7 16 3q13 -5 30 -16.5t23 -19.5q10 -15 -14 -35q-18 -15 -53.5 -35t-63.5 -30q-25 -9 -49 -11q-29 -3 -68 2q-8 1 -8 5t4 6zM142 -25q-55 0 -98 45q-35 38 -35 89q0 57 44 115q40 54 97.5 93.5t105.5 39.5q24 0 49 -12t35 -28q41 -15 41 -77
q0 -57 -41 -127q-37 -64 -89 -101t-109 -37zM170 143q-37 -57 -30 -97q74 19 137 88t63 128q0 23 -14 28q-35 -11 -78 -51t-78 -96z" />
    <glyph glyph-name="ocircumflex" unicode="&#xf4;" horiz-adv-x="390" 
d="M386 406q-13 0 -21 18q-10 21 -17 40q-37 -9 -139 -50q-17 -7 -17 0q0 18 22 62q11 24 35 35q34 16 116 44q10 4 15 -0.5t10 -21.5q23 -72 30 -104q4 -13 -7 -17q-18 -6 -27 -6zM142 -25q-55 0 -98 45q-35 38 -35 89q0 57 44 115q40 54 97.5 93.5t105.5 39.5q24 0 49 -12
t35 -28q41 -15 41 -77q0 -57 -41 -127q-37 -64 -89 -101t-109 -37zM170 143q-37 -57 -30 -97q74 19 137 88t63 128q0 23 -14 28q-35 -11 -78 -51t-78 -96z" />
    <glyph glyph-name="otilde" unicode="&#xf5;" horiz-adv-x="390" 
d="M372 404q-30 0 -47 35q-7 15 -11.5 19.5t-11.5 4.5q-10 0 -40 -9t-49 -18q-5 -2 -9 -2.5t-5.5 1t-0.5 4.5q8 34 22 46q62 54 106 54q24 0 32 -25t16 -29q56 11 95 50q5 5 8.5 3.5t1.5 -10.5q-12 -53 -17 -63q-9 -18 -36 -41q-25 -20 -54 -20zM142 -25q-55 0 -98 45
q-35 38 -35 89q0 57 44 115q40 54 97.5 93.5t105.5 39.5q24 0 49 -12t35 -28q41 -15 41 -77q0 -57 -41 -127q-37 -64 -89 -101t-109 -37zM170 143q-37 -57 -30 -97q74 19 137 88t63 128q0 23 -14 28q-35 -11 -78 -51t-78 -96z" />
    <glyph glyph-name="odieresis" unicode="&#xf6;" horiz-adv-x="390" 
d="M265 532q4 7 19 5q32 -6 46 -14q13 -9 7 -24q-13 -37 -41 -61q-16 -12 -24 -12q-14 0 -36 5q-10 2 -7 12q11 48 36 89zM383 523q5 7 19 7q25 0 40 -7q18 -7 7 -36q-8 -18 -23 -37.5t-26 -26.5q-13 -9 -28 -9q-3 0 -33 9q-8 3 -2 19q11 33 46 81zM142 -25q-55 0 -98 45
q-35 38 -35 89q0 57 44 115q40 54 97.5 93.5t105.5 39.5q24 0 49 -12t35 -28q41 -15 41 -77q0 -57 -41 -127q-37 -64 -89 -101t-109 -37zM170 143q-37 -57 -30 -97q74 19 137 88t63 128q0 23 -14 28q-35 -11 -78 -51t-78 -96z" />
    <glyph glyph-name="divide" unicode="&#xf7;" horiz-adv-x="490" 
d="M312 312q-40 0 -53 8q-10 8 -4 19q4 8 46 89q8 11 20 11q34 0 62 -15q22 -13 14 -34q-5 -14 -19.5 -34.5t-21.5 -27.5q-21 -16 -44 -16zM47 248q0 9 17 10q133 13 401 29q25 0 39 -12q15 -15 15 -35q0 -15 -46 -21q-349 -40 -388 -40q-21 2 -25 22q-1 3 -7 20.5t-6 26.5z
M167 20q-8 2 -5 16q14 40 39 98q6 15 15 17q12 2 38 -0.5t41 -7.5q19 -7 7 -39q-14 -37 -34 -62q-13 -15 -36 -19q-10 -2 -33.5 -3t-31.5 0z" />
    <glyph glyph-name="oslash" unicode="&#xf8;" horiz-adv-x="390" 
d="M141 146q-17 -28 -26 -53q71 61 218 191q-6 9 -16 12q-41 -12 -90 -52.5t-86 -97.5zM132 39q75 13 136 78q43 43 62 95zM-72 -81q-4 -1 -5.5 2t0.5 6q56 51 115 100q-29 37 -29 82q0 57 44 115q40 54 97.5 93.5t105.5 39.5q24 0 49 -12t35 -28q10 -3 18 -11
q6 6 20.5 18.5t21.5 18.5q25 22 30 10q11 -27 11 -28q0 -13 -16 -28q-6 -6 -21 -19.5t-24 -21.5q1 -5 1 -16q0 -57 -41 -127q-37 -64 -89 -101t-109 -37q-38 0 -65 18l-15 -12q-44 -36 -67 -44t-67 -18z" />
    <glyph glyph-name="ugrave" unicode="&#xf9;" 
d="M293 504q-25 32 -9 50q29 29 64 40q7 2 13 -10q18 -35 26 -79q7 -33 3 -55q-5 -28 -13 -48q-2 -5 -5 -7t-6 -1t-5 4q-25 45 -68 106zM277 10q-39 31 -13 94q-49 -58 -94.5 -93.5t-76.5 -35.5q-36 0 -75 45q-26 28 -16.5 68t55.5 101q66 86 84.5 114t22.5 44q2 10 21 10
q37 0 69 -13t32 -42t-25.5 -68t-62.5 -87t-53 -84q92 32 205 220q14 24 20 30.5t17 6.5q19 0 57 -9q34 -8 34 -34q0 -25 -50 -106q-58 -97 -48 -118q67 16 157 136l3 4q8 11 12 7l3 -3q9 -9 2 -19l-3 -5q-36 -60 -100 -122t-117 -62q-32 0 -60 21z" />
    <glyph glyph-name="uacute" unicode="&#xfa;" 
d="M299 432q119 69 183 131q7 7 16 3q13 -5 30 -16.5t23 -19.5q10 -15 -14 -35q-18 -15 -53.5 -35t-63.5 -30q-25 -9 -49 -11q-29 -3 -68 2q-8 1 -8 5t4 6zM277 10q-39 31 -13 94q-49 -58 -94.5 -93.5t-76.5 -35.5q-36 0 -75 45q-26 28 -16.5 68t55.5 101q66 86 84.5 114
t22.5 44q2 10 21 10q37 0 69 -13t32 -42t-25.5 -68t-62.5 -87t-53 -84q92 32 205 220q14 24 20 30.5t17 6.5q19 0 57 -9q34 -8 34 -34q0 -25 -50 -106q-58 -97 -48 -118q67 16 157 136l3 4q8 11 12 7l3 -3q9 -9 2 -19l-3 -5q-36 -60 -100 -122t-117 -62q-32 0 -60 21z" />
    <glyph glyph-name="ucircumflex" unicode="&#xfb;" 
d="M446 406q-13 0 -21 18q-10 21 -17 40q-37 -9 -139 -50q-17 -7 -17 0q0 18 22 62q11 24 35 35q34 16 116 44q10 4 15 -0.5t10 -21.5q23 -72 30 -104q4 -13 -7 -17q-18 -6 -27 -6zM277 10q-39 31 -13 94q-49 -58 -94.5 -93.5t-76.5 -35.5q-36 0 -75 45q-26 28 -16.5 68
t55.5 101q66 86 84.5 114t22.5 44q2 10 21 10q37 0 69 -13t32 -42t-25.5 -68t-62.5 -87t-53 -84q92 32 205 220q14 24 20 30.5t17 6.5q19 0 57 -9q34 -8 34 -34q0 -25 -50 -106q-58 -97 -48 -118q67 16 157 136l3 4q8 11 12 7l3 -3q9 -9 2 -19l-3 -5q-36 -60 -100 -122
t-117 -62q-32 0 -60 21z" />
    <glyph glyph-name="udieresis" unicode="&#xfc;" 
d="M320 532q4 7 19 5q32 -6 46 -14q13 -9 7 -24q-13 -37 -41 -61q-16 -12 -24 -12q-14 0 -36 5q-10 2 -7 12q11 48 36 89zM438 523q5 7 19 7q25 0 40 -7q18 -7 7 -36q-8 -18 -23 -37.5t-26 -26.5q-13 -9 -28 -9q-3 0 -33 9q-8 3 -2 19q11 33 46 81zM277 10q-39 31 -13 94
q-49 -58 -94.5 -93.5t-76.5 -35.5q-36 0 -75 45q-26 28 -16.5 68t55.5 101q66 86 84.5 114t22.5 44q2 10 21 10q37 0 69 -13t32 -42t-25.5 -68t-62.5 -87t-53 -84q92 32 205 220q14 24 20 30.5t17 6.5q19 0 57 -9q34 -8 34 -34q0 -25 -50 -106q-58 -97 -48 -118
q67 16 157 136l3 4q8 11 12 7l3 -3q9 -9 2 -19l-3 -5q-36 -60 -100 -122t-117 -62q-32 0 -60 21z" />
    <glyph glyph-name="yacute" unicode="&#xfd;" horiz-adv-x="450" 
d="M272 438q119 69 183 131q7 7 16 3q13 -5 30 -16.5t23 -19.5q10 -15 -14 -35q-18 -15 -53.5 -35t-63.5 -30q-25 -9 -49 -11q-29 -3 -68 2q-8 1 -8 5t4 6zM-108 -320q-61 0 -93 48q-21 25 -14.5 67.5t44.5 76.5q45 40 120 65.5t199 53.5q31 44 77 120q-49 -53 -90 -81
q-37 -24 -61 -24q-33 0 -63 33q-17 16 -7.5 47.5t53.5 102.5q65 104 77 159q3 15 15 15q20 0 44 -10q33 -14 39.5 -38.5t-14.5 -75.5q-8 -20 -29 -63.5t-29 -62.5q76 46 176 183q19 26 25.5 32.5t13.5 6.5q2 0 43 -13q54 -17 30 -60q-46 -87 -131 -221q123 58 190 148l3 4
q8 10 12 7l4 -3q11 -8 1 -20l-3 -4q-52 -70 -108.5 -116.5t-140.5 -79.5q-97 -143 -196 -220t-187 -77zM-103 -168q-44 -36 -42 -75q112 -2 247 172q-138 -41 -205 -97z" />
    <glyph glyph-name="thorn" unicode="&#xfe;" horiz-adv-x="450" 
d="M148 91q91 20 165 92.5t72 118.5q-58 -7 -155 -84q-51 -77 -82 -127zM-167 -293q-25 -5 -34 -5q-28 0 -12 30q170 304 270 457q208 320 309 469q14 21 21 27.5t16 6.5t29 -6q69 -19 13 -133q-17 -35 -137 -216q32 8 53 8q33 0 61 -26q26 -24 26 -71q0 -71 -71 -154
q-39 -45 -93 -73.5t-97 -28.5q-29 0 -45.5 8.5t-33.5 26.5q-84 -136 -143 -217q-42 -58 -68.5 -76.5t-63.5 -26.5z" />
    <glyph glyph-name="ydieresis" unicode="&#xff;" horiz-adv-x="450" 
d="M295 532q4 7 19 5q32 -6 46 -14q13 -9 7 -24q-13 -37 -41 -61q-16 -12 -24 -12q-14 0 -36 5q-10 2 -7 12q11 48 36 89zM413 523q5 7 19 7q25 0 40 -7q18 -7 7 -36q-8 -18 -23 -37.5t-26 -26.5q-13 -9 -28 -9q-3 0 -33 9q-8 3 -2 19q11 33 46 81zM-108 -320q-61 0 -93 48
q-21 25 -14.5 67.5t44.5 76.5q45 40 120 65.5t199 53.5q31 44 77 120q-49 -53 -90 -81q-37 -24 -61 -24q-33 0 -63 33q-17 16 -7.5 47.5t53.5 102.5q65 104 77 159q3 15 15 15q20 0 44 -10q33 -14 39.5 -38.5t-14.5 -75.5q-8 -20 -29 -63.5t-29 -62.5q76 46 176 183
q19 26 25.5 32.5t13.5 6.5q2 0 43 -13q54 -17 30 -60q-46 -87 -131 -221q123 58 190 148l3 4q8 10 12 7l4 -3q11 -8 1 -20l-3 -4q-52 -70 -108.5 -116.5t-140.5 -79.5q-97 -143 -196 -220t-187 -77zM-103 -168q-44 -36 -42 -75q112 -2 247 172q-138 -41 -205 -97z" />
    <glyph glyph-name="Amacron" unicode="&#x100;" horiz-adv-x="585" 
d="M561 795q108 2 223 6q10 0 9 -10q-3 -19 -9 -32q-10 -21 -48 -24q-72 -4 -149 0q-21 1 -32 5t-10 13q1 7 4 19.5t4 16.5q1 6 8 6zM383 -79q-5 -4 -9.5 -2t-3.5 10q25 144 77 319q-174 -63 -283 -118q-84 -103 -98 -160q-5 -17 -13 -17q-21 0 -66 37q-32 25 -30.5 55
t35.5 78q75 103 237 268.5t243 228.5q48 37 68 48.5t37 11.5q7 0 20 -4.5t31 -11t31 -10.5q61 -18 29 -75q-59 -106 -115 -240q6 -3 12 -9q16 -16 16 -25q0 -5 -24 -13l-27 -9q-51 -126 -106 -299q-10 -31 -35 -48q-1 -1 -11 -6.5t-15 -8.5zM280 266q83 26 189 54
q44 133 77 210q-132 -116 -266 -264z" />
    <glyph glyph-name="amacron" unicode="&#x101;" horiz-adv-x="475" 
d="M284 492q108 2 223 6q10 0 9 -10q-3 -19 -9 -32q-10 -21 -48 -24q-72 -4 -149 0q-21 1 -32 5t-10 13q1 7 4 19.5t4 16.5q2 6 8 6zM126 54q82 35 153 129q29 54 57 95q-83 -27 -147.5 -96.5t-62.5 -127.5zM139 -11q-17 -10 -37.5 -5t-48.5 29q-26 14 -44 44q-40 66 44 166
q79 95 186 129q33 11 62 4q38 -10 66 -48q16 4 29 -4q15 -8 36 -26t31 -31q7 -11 -4 -23q-60 -71 -86 -164q73 13 159 129l3 4q8 11 12 7l3 -3q8 -8 2 -19l-3 -5q-37 -61 -110 -124.5t-142 -63.5q-33 0 -46.5 25t-6.5 69q-63 -72 -105 -90z" />
    <glyph glyph-name="Abreve" unicode="&#x102;" horiz-adv-x="585" 
d="M814 806q-18 -36 -46 -55q-45 -31 -91 -31q-51 0 -74 39q-22 37 -13 78q2 7 5 10t13 8q10 4 11 -8q5 -53 53 -53q56 0 146 65q5 4 9 4.5t5.5 -2t0.5 -6.5q-4 -20 -19 -49zM383 -79q-5 -4 -9.5 -2t-3.5 10q25 144 77 319q-174 -63 -283 -118q-84 -103 -98 -160
q-5 -17 -13 -17q-21 0 -66 37q-32 25 -30.5 55t35.5 78q75 103 237 268.5t243 228.5q48 37 68 48.5t37 11.5q7 0 20 -4.5t31 -11t31 -10.5q61 -18 29 -75q-59 -106 -115 -240q6 -3 12 -9q16 -16 16 -25q0 -5 -24 -13l-27 -9q-51 -126 -106 -299q-10 -31 -35 -48
q-1 -1 -11 -6.5t-15 -8.5zM280 266q83 26 189 54q44 133 77 210q-132 -116 -266 -264z" />
    <glyph glyph-name="abreve" unicode="&#x103;" horiz-adv-x="475" 
d="M517 478q-18 -36 -46 -55q-45 -31 -91 -31q-51 0 -74 39q-22 37 -13 78q1 7 4.5 10t13.5 8q10 4 11 -8q5 -53 53 -53q56 0 146 65q5 4 9 4.5t5.5 -2t0.5 -6.5q-4 -20 -19 -49zM126 54q82 35 153 129q29 54 57 95q-83 -27 -147.5 -96.5t-62.5 -127.5zM139 -11
q-17 -10 -37.5 -5t-48.5 29q-26 14 -44 44q-40 66 44 166q79 95 186 129q33 11 62 4q38 -10 66 -48q16 4 29 -4q15 -8 36 -26t31 -31q7 -11 -4 -23q-60 -71 -86 -164q73 13 159 129l3 4q8 11 12 7l3 -3q8 -8 2 -19l-3 -5q-37 -61 -110 -124.5t-142 -63.5q-33 0 -46.5 25
t-6.5 69q-63 -72 -105 -90z" />
    <glyph glyph-name="Aogonek" unicode="&#x104;" horiz-adv-x="585" 
d="M317 -270q-35 0 -64 25t-29 57q0 23 14.5 42.5t60.5 52.5q38 26 75 46q26 138 73 295q-174 -63 -283 -118q-84 -103 -98 -160q-5 -17 -13 -17q-21 0 -66 37q-32 25 -30.5 55t35.5 78q75 103 237 268.5t243 228.5q48 37 68 48.5t37 11.5q7 0 20 -4.5t31 -11t31 -10.5
q61 -18 29 -75q-59 -106 -115 -240q6 -3 12 -9q16 -16 16 -25q0 -5 -24 -13l-27 -9q-51 -126 -106 -299q-10 -31 -35 -48q-1 0 -5 -2.5t-6 -3.5q-47 -37 -71.5 -61.5t-30.5 -46.5q8 -4 20 -4q45 0 103 24q15 6 15 -1q0 -12 -10 -36q-18 -43 -38 -55q-38 -20 -69 -20z
M280 266q83 26 189 54q44 133 77 210q-132 -116 -266 -264z" />
    <glyph glyph-name="aogonek" unicode="&#x105;" horiz-adv-x="475" 
d="M228 -218q-35 0 -64 25t-29 57q0 26 13.5 48t58.5 47q27 15 63 32q-37 18 -26 88q-63 -72 -105 -90q-17 -10 -37.5 -5t-48.5 29q-26 14 -44 44q-40 66 44 166q79 95 186 129q33 11 62 4q38 -10 66 -48q16 4 29 -4q15 -8 36 -26t31 -31q7 -11 -4 -23q-60 -71 -86 -164
q73 13 159 129l3 4q8 11 12 7l3 -3q8 -8 2 -19l-3 -5q-27 -45 -80 -97.5t-109 -76.5q-80 -45 -114.5 -72t-39.5 -53q9 -4 21 -4q45 0 103 24q15 6 15 -1q0 -12 -10 -36q-18 -43 -38 -55q-38 -20 -69 -20zM126 54q82 35 153 129q29 54 57 95q-83 -27 -147.5 -96.5
t-62.5 -127.5z" />
    <glyph glyph-name="Cacute" unicode="&#x106;" horiz-adv-x="525" 
d="M625 755q117 46 182 93q11 8 20 -2q16 -16 26 -38q18 -38 -27 -55q-22 -9 -68.5 -18t-80.5 -9q-13 0 -25 4q-20 7 -28 12q-4 2 -5 5t0.5 5t5.5 3zM206 -39q-67 0 -99 51q-57 43 -57 122q0 109 104 237.5t259 223.5q147 92 251 92q48 0 81 -38q15 -19 21.5 -32.5t5.5 -19
t-7 -7.5q-249 -79 -426.5 -229.5t-188.5 -281.5q8 -4 25 -4q63 0 162.5 40t170.5 94q13 10 13 -1q0 -48 -28 -81q-65 -76 -142.5 -121t-144.5 -45z" />
    <glyph glyph-name="cacute" unicode="&#x107;" horiz-adv-x="335" 
d="M242 438q119 69 183 131q7 7 16 3q13 -5 30 -16.5t23 -19.5q10 -15 -14 -35q-18 -15 -53.5 -35t-63.5 -30q-25 -9 -49 -11q-29 -3 -68 2q-8 1 -8 5t4 6zM139 -33q-33 0 -52 9.5t-42 36.5q-80 93 4 205q44 58 114 101t121 43q31 0 65 -27q18 -14 24.5 -26t3 -18.5
t-12.5 -8.5q-95 -26 -170.5 -96.5t-82.5 -134.5q18 -10 50 -10q43 0 113 41.5t118 106.5l3 4q8 11 12 7l3 -3q8 -8 2 -19l-3 -5q-43 -71 -125 -138.5t-145 -67.5z" />
    <glyph glyph-name="Ccircumflex" unicode="&#x108;" horiz-adv-x="525" 
d="M766 717q-13 0 -21 18q-10 21 -17 40q-37 -9 -139 -50q-17 -7 -17 0q0 18 22 62q11 24 35 35q34 16 116 44q10 4 15 -0.5t10 -21.5q23 -72 30 -104q4 -13 -7 -17q-18 -6 -27 -6zM206 -39q-67 0 -99 51q-57 43 -57 122q0 109 104 237.5t259 223.5q147 92 251 92
q48 0 81 -38q15 -19 21.5 -32.5t5.5 -19t-7 -7.5q-249 -79 -426.5 -229.5t-188.5 -281.5q8 -4 25 -4q63 0 162.5 40t170.5 94q13 10 13 -1q0 -48 -28 -81q-65 -76 -142.5 -121t-144.5 -45z" />
    <glyph glyph-name="ccircumflex" unicode="&#x109;" horiz-adv-x="335" 
d="M407 406q-13 0 -21 18q-10 21 -17 40q-37 -9 -139 -50q-17 -7 -17 0q0 18 22 62q11 24 35 35q34 16 116 44q10 4 15 -0.5t10 -21.5q23 -72 30 -104q4 -13 -7 -17q-18 -6 -27 -6zM139 -33q-33 0 -52 9.5t-42 36.5q-80 93 4 205q44 58 114 101t121 43q31 0 65 -27
q18 -14 24.5 -26t3 -18.5t-12.5 -8.5q-95 -26 -170.5 -96.5t-82.5 -134.5q18 -10 50 -10q43 0 113 41.5t118 106.5l3 4q8 11 12 7l3 -3q8 -8 2 -19l-3 -5q-43 -71 -125 -138.5t-145 -67.5z" />
    <glyph glyph-name="Cdotaccent" unicode="&#x10a;" horiz-adv-x="525" 
d="M701 819q9 14 21 14q33 -2 53 -10q19 -8 12 -29q-14 -37 -42 -59q-11 -9 -29 -9q-20 0 -40 6q-10 3 -9 16q3 23 34 71zM206 -39q-67 0 -99 51q-57 43 -57 122q0 109 104 237.5t259 223.5q147 92 251 92q48 0 81 -38q15 -19 21.5 -32.5t5.5 -19t-7 -7.5
q-249 -79 -426.5 -229.5t-188.5 -281.5q8 -4 25 -4q63 0 162.5 40t170.5 94q13 10 13 -1q0 -48 -28 -81q-65 -76 -142.5 -121t-144.5 -45z" />
    <glyph glyph-name="cdotaccent" unicode="&#x10b;" horiz-adv-x="335" 
d="M314 518q9 14 21 14q33 -2 53 -10q19 -8 12 -29q-14 -37 -42 -59q-10 -9 -29 -9q-21 0 -40 6q-10 3 -9 16q3 23 34 71zM139 -33q-33 0 -52 9.5t-42 36.5q-80 93 4 205q44 58 114 101t121 43q31 0 65 -27q18 -14 24.5 -26t3 -18.5t-12.5 -8.5q-95 -26 -170.5 -96.5
t-82.5 -134.5q18 -10 50 -10q43 0 113 41.5t118 106.5l3 4q8 11 12 7l3 -3q8 -8 2 -19l-3 -5q-43 -71 -125 -138.5t-145 -67.5z" />
    <glyph glyph-name="Ccaron" unicode="&#x10c;" horiz-adv-x="525" 
d="M683 723q-11 -4 -16 0.5t-10 20.5q-15 44 -32 104q-4 13 8 18q15 6 24 6q14 0 22 -18q11 -20 18 -40q50 15 138 54q16 7 16 0q0 -17 -12 -44q-8 -21 -20.5 -35t-36.5 -26q-19 -10 -99 -40zM206 -39q-67 0 -99 51q-57 43 -57 122q0 109 104 237.5t259 223.5q147 92 251 92
q48 0 81 -38q15 -19 21.5 -32.5t5.5 -19t-7 -7.5q-249 -79 -426.5 -229.5t-188.5 -281.5q8 -4 25 -4q63 0 162.5 40t170.5 94q13 10 13 -1q0 -48 -28 -81q-65 -76 -142.5 -121t-144.5 -45z" />
    <glyph glyph-name="ccaron" unicode="&#x10d;" horiz-adv-x="335" 
d="M309 401q-11 -4 -16 0.5t-10 20.5q-15 44 -32 104q-4 13 8 18q15 6 24 6q14 0 22 -18q11 -20 18 -40q50 15 138 54q16 7 16 0q0 -17 -12 -44q-8 -21 -20.5 -35t-36.5 -26q-19 -10 -99 -40zM139 -33q-33 0 -52 9.5t-42 36.5q-80 93 4 205q44 58 114 101t121 43
q31 0 65 -27q18 -14 24.5 -26t3 -18.5t-12.5 -8.5q-95 -26 -170.5 -96.5t-82.5 -134.5q18 -10 50 -10q43 0 113 41.5t118 106.5l3 4q8 11 12 7l3 -3q8 -8 2 -19l-3 -5q-43 -71 -125 -138.5t-145 -67.5z" />
    <glyph glyph-name="Dcaron" unicode="&#x10e;" horiz-adv-x="615" 
d="M612 687q-11 -4 -16 0.5t-10 20.5q-15 44 -32 104q-4 13 8 18q15 6 24 6q14 0 22 -18q11 -20 18 -40q50 15 138 54q16 7 16 0q0 -17 -12 -44q-8 -21 -20.5 -35t-36.5 -26q-19 -10 -99 -40zM43 -57q-45 0 -64.5 19.5t-31.5 63.5q-7 27 11 28q37 1 75 6q-17 22 -20.5 35
t5.5 27q129 194 299 432q-20 36 -43 65q-19 23 2 28q62 12 116 12l39 54q4 8 12.5 5.5t26.5 -20.5q29 -29 34 -51q129 -31 172 -141q46 -120 -59 -266q-90 -125 -253 -211t-321 -86zM164 83q203 51 331 168t143 224q-42 73 -177 75q-110 -180 -297 -467z" />
    <glyph glyph-name="dcaron" unicode="&#x10f;" horiz-adv-x="475" 
d="M721 605q2 3 6 2q36 -15 54 -41q7 -10 2 -26q-9 -23 -51 -73q-14 -16 -34 -20q-45 -9 -77 -3q-8 2 -2 9q69 87 102 152zM115 50q75 28 149 113q17 55 51 116q-81 -30 -142 -101.5t-58 -127.5zM252 41q-6 13 -4 38q-86 -101 -145 -101q-31 0 -63 39q-43 32 -43 83
q0 50 42 105q52 69 123 112t119 43q31 0 63 -35q154 244 248 370q10 13 21 5q19 -14 53 -46q32 -30 -6 -89q-81 -121 -146 -227q-66 -108 -94.5 -170t-29.5 -106q66 27 142 127l3 4q8 11 12 7l3 -3q9 -9 2 -19l-3 -5q-36 -60 -104.5 -121.5t-131.5 -61.5q-41 0 -61 51z" />
    <glyph glyph-name="Dcroat" unicode="&#x110;" horiz-adv-x="615" 
d="M43 -57q-45 0 -64.5 19.5t-31.5 63.5q-7 27 11 28q37 1 75 6q-17 22 -20.5 35t5.5 27q38 58 107 159h-10q-18 0 -28 13q-3 3 -4.5 9t-3 15t-2.5 12q-3 14 11 17q25 5 91 12q15 22 43 61.5t51 72t44 61.5l-1 2q-22 38 -42 63q-19 23 2 28q62 12 116 12l39 54q4 8 12.5 5.5
t26.5 -20.5q29 -29 34 -51q129 -31 172 -141q46 -120 -59 -266q-90 -125 -253 -211t-321 -86zM446 321q-78 -15 -143 -23q-111 -172 -139 -215q203 51 331 168t143 224q-42 73 -177 75q-95 -153 -109 -175q103 9 136 11q5 0 5 -6q0 -17 -16 -42q-9 -13 -31 -17z" />
    <glyph glyph-name="dcroat" unicode="&#x111;" horiz-adv-x="475" 
d="M115 50q75 28 149 113q17 55 51 116q-81 -30 -142 -101.5t-58 -127.5zM248 79q-86 -101 -145 -101q-31 0 -63 39q-43 32 -43 83q0 50 42 105q52 69 123 112t119 43q31 0 63 -35q8 13 30.5 48t35.5 55q-32 -4 -47 -5q-20 -3 -30 -1.5t-12.5 3.5t-2.5 8q0 15 3 25
q5 19 54 24q13 2 38.5 4.5t36.5 3.5q102 152 142 205q10 13 21 5q19 -14 53 -46q32 -30 -6 -89q-33 -49 -40 -61q42 2 62 0t20 -11q0 -5 -10 -21q-4 -6 -27 -10l-81 -12l-70 -112q-123 -197 -124 -276q66 27 142 127l3 4q8 11 12 7l3 -3q9 -9 2 -19l-3 -5
q-36 -60 -104.5 -121.5t-131.5 -61.5q-41 0 -61 51q-6 13 -4 38z" />
    <glyph glyph-name="Emacron" unicode="&#x112;" horiz-adv-x="515" 
d="M539 796q107 2 223 6q10 0 9 -10q-3 -19 -9 -32q-10 -21 -48 -24q-72 -4 -149 0q-21 1 -32 5t-10 13q1 7 4 19.5t4 16.5q1 6 8 6zM70 -58q-15 0 -26.5 6t-16.5 11.5t-17 22.5q-2 3 -9 12t-9 12t-6 10.5t-4.5 11.5t-1.5 11t1.5 14t6.5 15q65 126 315 466l-9 -1
q-17 -1 -30 10q-21 23 -29 61q-1 11 10 12q61 10 131 18l35 49q20 26 38 15q9 -6 26.5 -25t27.5 -27q140 13 300 16q7 0 7 -5q0 -16 -10 -31q-9 -13 -36 -18q-132 -25 -289 -49q-56 -87 -140 -209q148 14 234 20q11 0 7 -7q-7 -21 -23 -37t-50 -23q-93 -19 -228 -40
l-149 -217q221 30 309 40q17 3 17 -6q0 -2 -3.5 -12.5t-5.5 -19.5q-2 -8 -6 -12t-22 -10q-136 -48 -281 -76q-42 -8 -64 -8z" />
    <glyph glyph-name="emacron" unicode="&#x113;" horiz-adv-x="370" 
d="M205 488q107 2 223 6q10 0 9 -10q-3 -19 -9 -32q-10 -21 -48 -24q-72 -4 -149 0q-21 1 -32 5t-10 13q1 7 4 19.5t4 16.5q1 6 8 6zM147 -34q-30 0 -55.5 14t-56.5 51q-68 79 25 201q40 52 100 88.5t108 36.5q26 0 51 -17q23 -16 32 -28q34 -27 34 -59q0 -24 -18.5 -47.5
t-66.5 -54.5q-55 -34 -160 -70q-5 -27 0 -39q13 -7 33 -7q58 0 130.5 43t123.5 111l3 4q8 11 12 7l3 -3q8 -8 2 -19l-3 -5q-52 -87 -137 -147t-160 -60zM272 190q65 47 51 95q-40 -9 -88.5 -55.5t-75.5 -99.5q74 31 113 60z" />
    <glyph glyph-name="Ebreve" unicode="&#x114;" horiz-adv-x="515" 
d="M770 804q-18 -36 -46 -55q-45 -31 -91 -31q-51 0 -74 39q-22 37 -13 78q2 7 5 10t13 8q10 4 11 -8q5 -53 53 -53q56 0 146 65q5 4 9 4.5t5.5 -2t0.5 -6.5q-4 -20 -19 -49zM70 -58q-15 0 -26.5 6t-16.5 11.5t-17 22.5q-2 3 -9 12t-9 12t-6 10.5t-4.5 11.5t-1.5 11t1.5 14
t6.5 15q65 126 315 466l-9 -1q-17 -1 -30 10q-21 23 -29 61q-1 11 10 12q61 10 131 18l35 49q20 26 38 15q9 -6 26.5 -25t27.5 -27q140 13 300 16q7 0 7 -5q0 -16 -10 -31q-9 -13 -36 -18q-132 -25 -289 -49q-56 -87 -140 -209q148 14 234 20q11 0 7 -7q-7 -21 -23 -37
t-50 -23q-93 -19 -228 -40l-149 -217q221 30 309 40q17 3 17 -6q0 -2 -3.5 -12.5t-5.5 -19.5q-2 -8 -6 -12t-22 -10q-136 -48 -281 -76q-42 -8 -64 -8z" />
    <glyph glyph-name="ebreve" unicode="&#x115;" horiz-adv-x="370" 
d="M437 488q-18 -36 -46 -55q-45 -31 -91 -31q-51 0 -74 39q-22 37 -13 78q1 7 4.5 10.5t13.5 7.5t11 -8q5 -53 53 -53q56 0 146 65q5 4 9 4.5t5.5 -2t0.5 -6.5q-4 -20 -19 -49zM147 -34q-30 0 -55.5 14t-56.5 51q-68 79 25 201q40 52 100 88.5t108 36.5q26 0 51 -17
q23 -16 32 -28q34 -27 34 -59q0 -24 -18.5 -47.5t-66.5 -54.5q-55 -34 -160 -70q-5 -27 0 -39q13 -7 33 -7q58 0 130.5 43t123.5 111l3 4q8 11 12 7l3 -3q8 -8 2 -19l-3 -5q-52 -87 -137 -147t-160 -60zM272 190q65 47 51 95q-40 -9 -88.5 -55.5t-75.5 -99.5q74 31 113 60z
" />
    <glyph glyph-name="Edotaccent" unicode="&#x116;" horiz-adv-x="515" 
d="M622 816q9 14 21 14q33 -2 53 -10q19 -8 12 -29q-14 -37 -42 -59q-10 -9 -29 -9q-21 0 -40 6q-10 3 -9 16q3 23 34 71zM70 -58q-15 0 -26.5 6t-16.5 11.5t-17 22.5q-2 3 -9 12t-9 12t-6 10.5t-4.5 11.5t-1.5 11t1.5 14t6.5 15q65 126 315 466l-9 -1q-17 -1 -30 10
q-21 23 -29 61q-1 11 10 12q61 10 131 18l35 49q20 26 38 15q9 -6 26.5 -25t27.5 -27q140 13 300 16q7 0 7 -5q0 -16 -10 -31q-9 -13 -36 -18q-132 -25 -289 -49q-56 -87 -140 -209q148 14 234 20q11 0 7 -7q-7 -21 -23 -37t-50 -23q-93 -19 -228 -40l-149 -217
q221 30 309 40q17 3 17 -6q0 -2 -3.5 -12.5t-5.5 -19.5q-2 -8 -6 -12t-22 -10q-136 -48 -281 -76q-42 -8 -64 -8z" />
    <glyph glyph-name="edotaccent" unicode="&#x117;" horiz-adv-x="370" 
d="M300 518q9 14 21 14q33 -2 53 -10q19 -8 12 -29q-14 -37 -42 -59q-10 -9 -29 -9q-21 0 -40 6q-10 3 -9 16q3 23 34 71zM147 -34q-30 0 -55.5 14t-56.5 51q-68 79 25 201q40 52 100 88.5t108 36.5q26 0 51 -17q23 -16 32 -28q34 -27 34 -59q0 -24 -18.5 -47.5t-66.5 -54.5
q-55 -34 -160 -70q-5 -27 0 -39q13 -7 33 -7q58 0 130.5 43t123.5 111l3 4q8 11 12 7l3 -3q8 -8 2 -19l-3 -5q-52 -87 -137 -147t-160 -60zM272 190q65 47 51 95q-40 -9 -88.5 -55.5t-75.5 -99.5q74 31 113 60z" />
    <glyph glyph-name="Eogonek" unicode="&#x118;" horiz-adv-x="515" 
d="M265 -202q-35 0 -64 25t-29 57q0 26 13.5 48t58.5 47q-67 -17 -110 -25q-42 -8 -64 -8q-15 0 -26.5 6t-16.5 11.5t-17 22.5q-2 3 -9 12t-9 12t-6 10.5t-4.5 11.5t-1.5 11t1.5 14t6.5 15q65 126 315 466l-9 -1q-17 -1 -30 10q-21 23 -29 61q-1 11 10 12q61 10 131 18
l35 49q20 26 38 15q9 -6 26.5 -25t27.5 -27q140 13 300 16q7 0 7 -5q0 -16 -10 -31q-9 -13 -36 -18q-132 -25 -289 -49q-56 -87 -140 -209q148 14 234 20q11 0 7 -7q-7 -21 -23 -37t-50 -23q-93 -19 -228 -40l-149 -217q221 30 309 40q17 3 17 -6q0 -2 -3.5 -12.5
t-5.5 -19.5q-1 -6 -2.5 -8.5t-6 -5.5t-13.5 -6q-93 -51 -132.5 -81t-45.5 -57q9 -4 21 -4q45 0 103 24q15 6 15 -1q0 -12 -10 -36q-18 -43 -38 -55q-38 -20 -69 -20z" />
    <glyph glyph-name="eogonek" unicode="&#x119;" horiz-adv-x="370" 
d="M125 -218q-35 0 -64 25t-29 57q0 26 13.5 48t58.5 47l18 9q-41 9 -87 63q-68 79 25 201q40 52 100 88.5t108 36.5q26 0 51 -17q23 -16 32 -28q34 -27 34 -59q0 -24 -18.5 -47.5t-66.5 -54.5q-55 -34 -160 -70q-5 -27 0 -39q13 -7 33 -7q58 0 130.5 43t123.5 111l3 4
q8 11 12 7l3 -3q8 -8 2 -19l-3 -5q-38 -64 -96 -115t-119 -75q-64 -37 -92.5 -61t-33.5 -48q9 -4 21 -4q45 0 103 24q15 6 15 -1q0 -12 -10 -36q-18 -43 -38 -55q-38 -20 -69 -20zM272 190q65 47 51 95q-40 -9 -88.5 -55.5t-75.5 -99.5q74 31 113 60z" />
    <glyph glyph-name="Ecaron" unicode="&#x11a;" horiz-adv-x="515" 
d="M625 720q-11 -4 -16 0.5t-10 20.5q-15 44 -32 104q-4 13 8 18q15 6 24 6q14 0 22 -18q11 -20 18 -40q50 15 138 54q16 7 16 0q0 -17 -12 -44q-8 -21 -20.5 -35t-36.5 -26q-19 -10 -99 -40zM70 -58q-15 0 -26.5 6t-16.5 11.5t-17 22.5q-2 3 -9 12t-9 12t-6 10.5t-4.5 11.5
t-1.5 11t1.5 14t6.5 15q65 126 315 466l-9 -1q-17 -1 -30 10q-21 23 -29 61q-1 11 10 12q61 10 131 18l35 49q20 26 38 15q9 -6 26.5 -25t27.5 -27q140 13 300 16q7 0 7 -5q0 -16 -10 -31q-9 -13 -36 -18q-132 -25 -289 -49q-56 -87 -140 -209q148 14 234 20q11 0 7 -7
q-7 -21 -23 -37t-50 -23q-93 -19 -228 -40l-149 -217q221 30 309 40q17 3 17 -6q0 -2 -3.5 -12.5t-5.5 -19.5q-2 -8 -6 -12t-22 -10q-136 -48 -281 -76q-42 -8 -64 -8z" />
    <glyph glyph-name="ecaron" unicode="&#x11b;" horiz-adv-x="370" 
d="M303 401q-11 -4 -16 0.5t-10 20.5q-15 44 -32 104q-4 13 8 18q15 6 24 6q14 0 22 -18q11 -20 18 -40q50 15 138 54q16 7 16 0q0 -17 -12 -44q-8 -21 -20.5 -35t-36.5 -26q-19 -10 -99 -40zM147 -34q-30 0 -55.5 14t-56.5 51q-68 79 25 201q40 52 100 88.5t108 36.5
q26 0 51 -17q23 -16 32 -28q34 -27 34 -59q0 -24 -18.5 -47.5t-66.5 -54.5q-55 -34 -160 -70q-5 -27 0 -39q13 -7 33 -7q58 0 130.5 43t123.5 111l3 4q8 11 12 7l3 -3q8 -8 2 -19l-3 -5q-52 -87 -137 -147t-160 -60zM272 190q65 47 51 95q-40 -9 -88.5 -55.5t-75.5 -99.5
q74 31 113 60z" />
    <glyph glyph-name="Gcircumflex" unicode="&#x11c;" horiz-adv-x="580" 
d="M742 713q-13 0 -21 18q-10 21 -17 40q-37 -9 -139 -50q-17 -7 -17 0q0 18 22 62q11 24 35 35q34 16 116 44q10 4 15 -0.5t10 -21.5q23 -72 30 -104q4 -13 -7 -17q-18 -6 -27 -6zM230 -49q-82 0 -118 53q-61 51 -62 138t70 192q90 126 271.5 239t259.5 113q18 0 30.5 -10
t27.5 -35q10 -18 13.5 -33t2 -22t-5.5 -9q-189 -83 -315.5 -165.5t-202.5 -192.5q-58 -85 -49 -156q68 -3 168.5 38t163.5 103q-6 -2 -78 -21q-35 -8 -44 9q-17 32 -22 60q-3 17 11 20q36 8 146.5 25.5t152.5 21.5q4 0 6 -2.5t0.5 -6.5t-5.5 -7q-12 -9 -30 -30t-23 -25
q-26 -18 -82 -35q-2 -29 -8 -61q-8 -34 -38 -69q-46 -49 -112.5 -90.5t-127.5 -41.5z" />
    <glyph glyph-name="gcircumflex" unicode="&#x11d;" horiz-adv-x="470" 
d="M446 406q-13 0 -21 18q-10 21 -17 40q-37 -9 -139 -50q-17 -7 -17 0q0 18 22 62q11 24 35 35q34 16 116 44q10 4 15 -0.5t10 -21.5q23 -72 30 -104q4 -13 -7 -17q-18 -6 -27 -6zM-106 -320q-58 0 -93 35q-26 26 -26 62q0 86 119 139q29 13 66.5 24.5t61 17t74 17
t65.5 14.5q27 36 56 79q-74 -62 -124 -62q-27 0 -46 19q-25 13 -38 38t-6 64.5t39 81.5q47 63 116 107t128 44q49 0 80 -45q17 25 38 20q45 -12 67 -29q16 -13 7 -31q-43 -81 -139 -231q125 60 188 145l3 4q8 10 12 7l4 -3q11 -8 1 -20l-3 -4q-51 -68 -108 -114t-140 -80
q-74 -106 -153 -176t-139 -96.5t-110 -26.5zM110 74q94 15 191 129q23 38 41 71q-83 -24 -151.5 -84.5t-80.5 -115.5zM-54 -216q79 43 164 141q-122 -40 -184 -77t-74 -95q44 4 94 31z" />
    <glyph glyph-name="Gbreve" unicode="&#x11e;" horiz-adv-x="580" 
d="M813 813q-18 -36 -46 -55q-45 -31 -91 -31q-51 0 -74 39q-22 37 -13 78q1 8 4.5 11t13.5 7t11 -8q5 -53 53 -53q56 0 146 65q5 4 9 4.5t5.5 -2t0.5 -6.5q-4 -20 -19 -49zM230 -49q-82 0 -118 53q-61 51 -62 138t70 192q90 126 271.5 239t259.5 113q18 0 30.5 -10
t27.5 -35q10 -18 13.5 -33t2 -22t-5.5 -9q-189 -83 -315.5 -165.5t-202.5 -192.5q-58 -85 -49 -156q68 -3 168.5 38t163.5 103q-6 -2 -78 -21q-35 -8 -44 9q-17 32 -22 60q-3 17 11 20q36 8 146.5 25.5t152.5 21.5q4 0 6 -2.5t0.5 -6.5t-5.5 -7q-12 -9 -30 -30t-23 -25
q-26 -18 -82 -35q-2 -29 -8 -61q-8 -34 -38 -69q-46 -49 -112.5 -90.5t-127.5 -41.5z" />
    <glyph glyph-name="gbreve" unicode="&#x11f;" horiz-adv-x="470" 
d="M530 488q-18 -36 -46 -55q-45 -31 -91 -31q-51 0 -74 39q-22 37 -13 78q2 7 5 10.5t13 7.5t11 -8q5 -53 53 -53q56 0 146 65q5 4 9 4.5t5.5 -2t0.5 -6.5q-4 -20 -19 -49zM-106 -320q-58 0 -93 35q-26 26 -26 62q0 86 119 139q29 13 66.5 24.5t61 17t74 17t65.5 14.5
q27 36 56 79q-74 -62 -124 -62q-27 0 -46 19q-25 13 -38 38t-6 64.5t39 81.5q47 63 116 107t128 44q49 0 80 -45q17 25 38 20q45 -12 67 -29q16 -13 7 -31q-43 -81 -139 -231q125 60 188 145l3 4q8 10 12 7l4 -3q11 -8 1 -20l-3 -4q-51 -68 -108 -114t-140 -80
q-74 -106 -153 -176t-139 -96.5t-110 -26.5zM110 74q94 15 191 129q23 38 41 71q-83 -24 -151.5 -84.5t-80.5 -115.5zM-54 -216q79 43 164 141q-122 -40 -184 -77t-74 -95q44 4 94 31z" />
    <glyph glyph-name="Gdotaccent" unicode="&#x120;" horiz-adv-x="580" 
d="M666 824q9 14 21 14q33 -2 53 -10q19 -8 12 -29q-14 -37 -42 -59q-10 -9 -29 -9q-21 0 -40 6q-10 3 -9 16q3 23 34 71zM230 -49q-82 0 -118 53q-61 51 -62 138t70 192q90 126 271.5 239t259.5 113q18 0 30.5 -10t27.5 -35q10 -18 13.5 -33t2 -22t-5.5 -9
q-189 -83 -315.5 -165.5t-202.5 -192.5q-58 -85 -49 -156q68 -3 168.5 38t163.5 103q-6 -2 -78 -21q-35 -8 -44 9q-17 32 -22 60q-3 17 11 20q36 8 146.5 25.5t152.5 21.5q4 0 6 -2.5t0.5 -6.5t-5.5 -7q-12 -9 -30 -30t-23 -25q-26 -18 -82 -35q-2 -29 -8 -61
q-8 -34 -38 -69q-46 -49 -112.5 -90.5t-127.5 -41.5z" />
    <glyph glyph-name="gdotaccent" unicode="&#x121;" horiz-adv-x="470" 
d="M380 518q9 14 21 14q33 -2 53 -10q19 -8 12 -29q-14 -37 -42 -59q-10 -9 -29 -9q-21 0 -40 6q-10 3 -9 16q3 23 34 71zM-106 -320q-58 0 -93 35q-26 26 -26 62q0 86 119 139q29 13 66.5 24.5t61 17t74 17t65.5 14.5q27 36 56 79q-74 -62 -124 -62q-27 0 -46 19
q-25 13 -38 38t-6 64.5t39 81.5q47 63 116 107t128 44q49 0 80 -45q17 25 38 20q45 -12 67 -29q16 -13 7 -31q-43 -81 -139 -231q125 60 188 145l3 4q8 10 12 7l4 -3q11 -8 1 -20l-3 -4q-51 -68 -108 -114t-140 -80q-74 -106 -153 -176t-139 -96.5t-110 -26.5zM110 74
q94 15 191 129q23 38 41 71q-83 -24 -151.5 -84.5t-80.5 -115.5zM-54 -216q79 43 164 141q-122 -40 -184 -77t-74 -95q44 4 94 31z" />
    <glyph glyph-name="uni0122" unicode="&#x122;" horiz-adv-x="580" 
d="M230 -49q-82 0 -118 53q-61 51 -62 138t70 192q90 126 271.5 239t259.5 113q18 0 30.5 -10t27.5 -35q10 -18 13.5 -33t2 -22t-5.5 -9q-189 -83 -315.5 -165.5t-202.5 -192.5q-58 -85 -49 -156q68 -3 168.5 38t163.5 103q-6 -2 -78 -21q-35 -8 -44 9q-17 32 -22 60
q-3 17 11 20q36 8 146.5 25.5t152.5 21.5q4 0 6 -2.5t0.5 -6.5t-5.5 -7q-12 -9 -30 -30t-23 -25q-26 -18 -82 -35q-2 -29 -8 -61q-8 -34 -38 -69q-46 -49 -112.5 -90.5t-127.5 -41.5zM74 -246q-4 1 -5.5 4.5t2.5 5.5q66 50 119 142q6 10 10 10q7 0 27 -8.5t32 -17.5
q13 -10 7 -26q-7 -20 -35 -50t-52 -45q-27 -16 -64 -18q-23 0 -41 3z" />
    <glyph glyph-name="uni0123" unicode="&#x123;" horiz-adv-x="470" 
d="M551 572q4 -1 5.5 -4.5t-2.5 -5.5q-66 -50 -119 -142q-6 -10 -10 -10q-7 0 -27 8.5t-32 17.5q-13 10 -7 26q7 20 35 50t52 45q27 16 64 18q23 0 41 -3zM-106 -320q-58 0 -93 35q-26 26 -26 62q0 86 119 139q29 13 66.5 24.5t61 17t74 17t65.5 14.5q27 36 56 79
q-74 -62 -124 -62q-27 0 -46 19q-25 13 -38 38t-6 64.5t39 81.5q47 63 116 107t128 44q49 0 80 -45q17 25 38 20q45 -12 67 -29q16 -13 7 -31q-43 -81 -139 -231q125 60 188 145l3 4q8 10 12 7l4 -3q11 -8 1 -20l-3 -4q-51 -68 -108 -114t-140 -80q-74 -106 -153 -176
t-139 -96.5t-110 -26.5zM110 74q94 15 191 129q23 38 41 71q-83 -24 -151.5 -84.5t-80.5 -115.5zM-54 -216q79 43 164 141q-122 -40 -184 -77t-74 -95q44 4 94 31z" />
    <glyph glyph-name="Hcircumflex" unicode="&#x124;" horiz-adv-x="630" 
d="M704 730q-13 0 -21 18q-10 21 -17 40q-37 -9 -139 -50q-17 -7 -17 0q0 18 22 62q11 24 35 35q34 16 116 44q10 4 15 -0.5t10 -21.5q23 -72 30 -104q4 -13 -7 -17q-18 -6 -27 -6zM278 -72q-16 0 -26 4.5t-5 12.5q82 122 221 338q-106 -11 -187 -22q-104 -141 -160 -210
q-24 -30 -39 -42.5t-43 -24.5q-46 -20 -105 -38q-12 -4 -16.5 0t3.5 20q74 122 173 270q-10 3 -18 14q-15 19 -15 35q0 6 8 7l72 13q132 191 256 359q17 22 31 8q55 -60 61 -73q8 -14 4.5 -28.5t-21.5 -40.5q-47 -68 -135 -192q39 7 187 31q169 263 204 315q8 12 20 5
q28 -17 66 -49q31 -27 2 -69q-238 -356 -409 -589q-21 -29 -51 -37q-60 -17 -78 -17z" />
    <glyph glyph-name="hcircumflex" unicode="&#x125;" 
d="M606 706q-13 0 -21 18q-10 21 -17 40q-37 -9 -139 -50q-17 -7 -17 0q0 18 22 62q11 24 35 35q34 16 116 44q10 4 15 -0.5t10 -21.5q23 -72 30 -104q4 -13 -7 -17q-18 -6 -27 -6zM120 30q-44 -62 -56 -62q-5 0 -9 2t-13 8.5t-15 10.5q-47 30 -47 59q0 14 14 39.5t63 101.5
q278 430 302 488q7 16 20 9q8 -4 21.5 -10.5t24 -12t17.5 -11.5q34 -31 0 -100q-22 -44 -94.5 -154t-117.5 -183q56 53 90 80q60 50 87 50q29 0 52 -21q15 -14 15.5 -41.5t-10.5 -51.5q-7 -17 -41.5 -75t-46.5 -104q76 24 161 137l3 4q8 11 12 7l3 -3q8 -8 2 -19l-3 -5
q-52 -87 -118 -137t-108 -50q-31 0 -52 27q-35 35 -18 88q8 28 18 51.5t20 43t13 27.5q-108 -80 -189 -193z" />
    <glyph glyph-name="Hbar" unicode="&#x126;" horiz-adv-x="630" 
d="M278 -72q-16 0 -26 4.5t-5 12.5q82 122 221 338q-106 -11 -187 -22q-104 -141 -160 -210q-24 -30 -39 -42.5t-43 -24.5q-46 -20 -105 -38q-12 -4 -16.5 0t3.5 20q74 122 173 270q-10 3 -18 14q-15 19 -15 35q0 6 8 7q14 2 39 7t33 6q26 36 78 112q-12 -2 -36 -4
q-20 -3 -30 -1.5t-12.5 3.5t-2.5 8q0 14 3 25q5 19 54 24q10 1 33.5 3.5t35.5 4.5q72 100 133 184q17 22 31 8q55 -60 61 -73q8 -14 4.5 -28.5t-21.5 -40.5q-14 -20 -21 -31q137 12 166 15q91 140 111 170q8 12 20 5q28 -17 66 -49q31 -27 2 -69q-3 -4 -13 -19t-17 -26
q72 3 72 -11q0 -5 -10 -21q-5 -8 -27 -10l-70 -9q-219 -322 -344 -493q-21 -29 -51 -37q-60 -17 -78 -17zM337 338q39 7 187 31q8 12 26.5 41t28.5 44q-114 -12 -173 -18q-4 -6 -69 -98z" />
    <glyph glyph-name="hbar" unicode="&#x127;" 
d="M120 30q-44 -62 -56 -62q-5 0 -9 2t-13 8.5t-15 10.5q-47 30 -47 59q0 14 14 39.5t63 101.5q26 40 77.5 119.5t74.5 115.5q-3 0 -8.5 -0.5t-7.5 -0.5q-20 -3 -30 -1.5t-12.5 3.5t-2.5 8q0 15 3 25q5 19 54 24q7 1 21.5 2.5t21.5 2.5q92 145 111 190q7 16 20 9
q8 -4 21.5 -10.5t24 -12t17.5 -11.5q34 -31 0 -100q-8 -16 -28 -50q5 0 16 0.5t16 1.5q44 2 65 0t21 -11q0 -5 -10 -21q-4 -6 -27 -10t-64.5 -10t-52.5 -8q-135 -208 -148 -229q56 53 90 80q60 50 87 50q29 0 52 -21q15 -14 15.5 -41.5t-10.5 -51.5q-7 -17 -41.5 -75
t-46.5 -104q76 24 161 137l3 4q8 11 12 7l3 -3q8 -8 2 -19l-3 -5q-52 -87 -118 -137t-108 -50q-31 0 -52 27q-35 35 -18 88q8 28 18 51.5t20 43t13 27.5q-108 -80 -189 -193z" />
    <glyph glyph-name="Itilde" unicode="&#x128;" horiz-adv-x="305" 
d="M545 705q-29 0 -47 35q-7 15 -11.5 19.5t-11.5 4.5q-10 0 -40 -9t-49 -18q-5 -2 -9 -2.5t-5.5 1t-0.5 4.5q8 34 22 46q62 54 106 54q24 0 32 -25t16 -29q56 11 95 50q5 5 8.5 3.5t1.5 -10.5q-12 -53 -17 -63q-9 -18 -36 -41q-25 -20 -54 -20zM-81 -23q273 402 480 695
q10 13 25 7q30 -12 49 -24q51 -32 -18 -129q-134 -205 -345 -505q-19 -26 -31 -36.5t-35 -13.5q-11 -2 -46.5 -6t-51.5 -7q-15 -3 -23.5 -1.5t-8.5 7t5 13.5z" />
    <glyph glyph-name="itilde" unicode="&#x129;" horiz-adv-x="260" 
d="M322 404q-30 0 -47 35q-7 15 -11.5 19.5t-11.5 4.5q-10 0 -40 -9t-49 -18q-5 -2 -9 -2.5t-5.5 1t-0.5 4.5q8 34 22 46q62 54 106 54q24 0 32 -25t16 -29q56 11 95 50q5 5 8.5 3.5t1.5 -10.5q-12 -53 -17 -63q-9 -18 -36 -41q-25 -20 -54 -20zM100 -34q-28 0 -61 23
q-28 21 -36 39q-15 28 -2.5 65.5t56.5 95.5q79 105 105 155q9 17 13.5 20.5t14.5 0.5q12 -4 37.5 -11.5t32.5 -11.5q44 -23 -5 -89q-126 -165 -134 -223q85 11 196 159l3 4q8 11 12 7l3 -3q8 -8 2 -19l-3 -5q-40 -66 -111.5 -136.5t-122.5 -70.5z" />
    <glyph glyph-name="Imacron" unicode="&#x12a;" horiz-adv-x="305" 
d="M381 793q108 2 223 6q10 0 9 -10q-3 -19 -9 -32q-10 -21 -48 -24q-72 -4 -149 0q-21 1 -32 5t-10 13q1 7 4 19.5t4 16.5q1 6 8 6zM-81 -23q273 402 480 695q10 13 25 7q30 -12 49 -24q51 -32 -18 -129q-134 -205 -345 -505q-19 -26 -31 -36.5t-35 -13.5q-11 -2 -46.5 -6
t-51.5 -7q-15 -3 -23.5 -1.5t-8.5 7t5 13.5z" />
    <glyph glyph-name="imacron" unicode="&#x12b;" horiz-adv-x="260" 
d="M154 492q108 2 223 6q10 0 9 -10q-3 -19 -9 -32q-10 -21 -48 -24q-72 -4 -149 0q-21 1 -32 5t-10 13q1 7 4 19.5t4 16.5q2 6 8 6zM100 -34q-28 0 -61 23q-28 21 -36 39q-15 28 -2.5 65.5t56.5 95.5q79 105 105 155q9 17 13.5 20.5t14.5 0.5q12 -4 37.5 -11.5t32.5 -11.5
q44 -23 -5 -89q-126 -165 -134 -223q85 11 196 159l3 4q8 11 12 7l3 -3q8 -8 2 -19l-3 -5q-40 -66 -111.5 -136.5t-122.5 -70.5z" />
    <glyph glyph-name="Ibreve" unicode="&#x12c;" horiz-adv-x="305" 
d="M641 811q-18 -36 -46 -55q-45 -31 -91 -31q-51 0 -74 39q-22 37 -13 78q1 7 4 10.5t14 7.5q10 4 11 -8q5 -53 53 -53q56 0 146 65q5 4 9 4.5t5.5 -2t0.5 -6.5q-4 -20 -19 -49zM-81 -23q273 402 480 695q10 13 25 7q30 -12 49 -24q51 -32 -18 -129q-134 -205 -345 -505
q-19 -26 -31 -36.5t-35 -13.5q-11 -2 -46.5 -6t-51.5 -7q-15 -3 -23.5 -1.5t-8.5 7t5 13.5z" />
    <glyph glyph-name="ibreve" unicode="&#x12d;" horiz-adv-x="260" 
d="M405 488q-18 -36 -46 -55q-45 -31 -91 -31q-51 0 -74 39q-22 37 -13 78q1 7 4.5 10.5t13.5 7.5t11 -8q5 -53 53 -53q56 0 146 65q5 4 9 4.5t5.5 -2t0.5 -6.5q-4 -20 -19 -49zM100 -34q-28 0 -61 23q-28 21 -36 39q-15 28 -2.5 65.5t56.5 95.5q79 105 105 155
q9 17 13.5 20.5t14.5 0.5q12 -4 37.5 -11.5t32.5 -11.5q44 -23 -5 -89q-126 -165 -134 -223q85 11 196 159l3 4q8 11 12 7l3 -3q8 -8 2 -19l-3 -5q-40 -66 -111.5 -136.5t-122.5 -70.5z" />
    <glyph glyph-name="Iogonek" unicode="&#x12e;" horiz-adv-x="305" 
d="M-85 -249q-35 0 -64 25t-29 57q0 26 13.5 48t58.5 47q42 22 64 32q-4 0 -12 -2q-15 -3 -23.5 -1.5t-8.5 7t5 13.5q273 402 480 695q10 13 25 7q30 -12 49 -24q51 -32 -18 -129q-134 -205 -345 -505q-16 -22 -26 -32t-26 -15q-86 -48 -122.5 -76.5t-42.5 -54.5q9 -4 21 -4
q45 0 103 24q15 6 15 -1q0 -12 -10 -36q-18 -43 -38 -55q-38 -20 -69 -20z" />
    <glyph glyph-name="iogonek" unicode="&#x12f;" horiz-adv-x="260" 
d="M253 432q-7 7 2 17q37 44 77 109q4 6 10 4q40 -16 55 -42q10 -18 -6 -37q-36 -38 -50 -47q-20 -13 -53 -13q-26 0 -35 9zM24 -228q-35 0 -64 25t-29 57q0 26 13.5 48t58.5 47q9 5 55 28q-7 4 -19 12q-28 21 -36 39q-15 28 -2.5 65.5t56.5 95.5q79 105 105 155
q9 17 13.5 20.5t14.5 0.5q12 -4 37.5 -11.5t32.5 -11.5q44 -23 -5 -89q-126 -165 -134 -223q85 11 196 159l3 4q8 11 12 7l3 -3q8 -8 2 -19l-3 -5q-34 -58 -98.5 -124t-114.5 -80q-61 -35 -88 -58.5t-31 -46.5q9 -4 21 -4q45 0 103 24q15 6 15 -1q0 -12 -10 -36
q-18 -43 -38 -55q-38 -20 -69 -20z" />
    <glyph glyph-name="Idotaccent" unicode="&#x130;" horiz-adv-x="305" 
d="M493 813q9 14 21 14q33 -2 53 -10q19 -8 12 -29q-14 -37 -42 -59q-11 -9 -29 -9q-21 0 -40 6q-10 3 -9 16q3 23 34 71zM-81 -23q273 402 480 695q10 13 25 7q30 -12 49 -24q51 -32 -18 -129q-134 -205 -345 -505q-19 -26 -31 -36.5t-35 -13.5q-11 -2 -46.5 -6t-51.5 -7
q-15 -3 -23.5 -1.5t-8.5 7t5 13.5z" />
    <glyph glyph-name="dotlessi" unicode="&#x131;" horiz-adv-x="260" 
d="M100 -34q-28 0 -61 23q-28 21 -36 39q-15 28 -2.5 65.5t56.5 95.5q79 105 105 155q9 17 13.5 20.5t14.5 0.5q12 -4 37.5 -11.5t32.5 -11.5q44 -23 -5 -89q-126 -165 -134 -223q85 11 196 159l3 4q8 11 12 7l3 -3q8 -8 2 -19l-3 -5q-40 -66 -111.5 -136.5t-122.5 -70.5z
" />
    <glyph glyph-name="ij" unicode="&#x133;" horiz-adv-x="510" 
d="M253 432q-7 7 2 17q37 44 77 109q4 6 10 4q40 -16 55 -42q10 -18 -6 -37q-36 -38 -50 -47q-20 -13 -53 -13q-26 0 -35 9zM501 428q-9 3 -3 15q36 63 70 111q4 5 11 4q40 -10 59 -25q15 -14 2 -34q-26 -42 -48 -59q-19 -16 -44 -16q-33 0 -47 4zM-21 -320q-17 0 -36 20
q-13 16 -13 26q0 22 43 64q45 44 132 100q41 36 102 130l4 6q-67 -60 -111 -60q-28 0 -61 23q-28 21 -36 39q-15 28 -2.5 65.5t56.5 95.5q79 105 105 155q9 17 13.5 20.5t14.5 0.5q12 -4 37.5 -11.5t32.5 -11.5q44 -23 -5 -89q-126 -165 -134 -223q85 11 196 159
q77 119 85 157q3 12 21 12q24 0 48 -8q81 -28 3 -167q-43 -76 -114 -172q138 85 207 178l3 4q8 10 12 7l4 -3q11 -8 1 -20l-3 -4q-110 -146 -309 -268q-111 -124 -235 -203q-34 -22 -61 -22z" />
    <glyph glyph-name="Jcircumflex" unicode="&#x134;" horiz-adv-x="555" 
d="M793 715q-13 0 -21 18q-10 21 -17 40q-37 -9 -139 -50q-17 -7 -17 0q0 18 22 62q11 24 35 35q34 16 116 44q10 4 15 -0.5t10 -21.5q23 -72 30 -104q4 -13 -7 -17q-18 -6 -27 -6zM139 -54q-50 0 -85 26q-55 40 -55 121q0 62 47.5 128t120.5 90q55 19 93 19q8 0 11.5 -4.5
t-3.5 -10.5q-68 -53 -109 -122.5t-41 -124.5q0 -25 9 -40q103 38 235 227q233 333 273 413q13 25 30 16q32 -18 47 -29q20 -18 17 -52.5t-25 -72.5q-47 -85 -155 -245q-126 -186 -223.5 -262.5t-186.5 -76.5z" />
    <glyph glyph-name="jcircumflex" unicode="&#x135;" horiz-adv-x="250" 
d="M313 406q-13 0 -21 18q-10 21 -17 40q-37 -9 -139 -50q-17 -7 -17 0q0 18 22 62q11 24 35 35q34 16 116 44q10 4 15 -0.5t10 -21.5q23 -72 30 -104q4 -13 -7 -17q-18 -6 -27 -6zM-281 -320q-17 0 -36 20q-13 16 -13 26q0 22 43 64q45 44 132 100q41 36 102 130l110 169
q77 119 85 157q3 12 21 12q24 0 48 -8q81 -28 3 -167q-43 -76 -114 -172q138 85 207 178l3 4q8 10 12 7l4 -3q11 -8 1 -20l-3 -4q-110 -146 -309 -268q-111 -124 -235 -203q-34 -22 -61 -22z" />
    <glyph glyph-name="uni0136" unicode="&#x136;" horiz-adv-x="540" 
d="M427 -19q-17 -15 -32 7q-72 107 -137 246q-60 -83 -128 -177q-38 -52 -76 -59q-103 -19 -110 -19q-12 0 -13 8.5t7 19.5q300 442 470 675q11 16 31 4q10 -7 28.5 -28t24.5 -27q23 -25 2 -55q-64 -95 -153 -224q128 58 250 143t192 162q9 9 13 0q10 -19 5 -33.5t-31 -43.5
q-57 -63 -163 -148t-218 -154q39 -90 82 -194q11 -28 11 -39.5t-13 -24.5q-3 -3 -17 -15.5t-25 -23.5zM58 -216q-4 1 -5.5 4.5t2.5 5.5q66 50 119 142q6 10 10 10q7 0 27 -8.5t32 -17.5q13 -10 7 -26q-7 -20 -35 -50t-52 -45q-27 -16 -64 -18q-23 0 -41 3z" />
    <glyph glyph-name="uni0137" unicode="&#x137;" horiz-adv-x="410" 
d="M117 21q-32 -39 -58 -39q-16 0 -43 16q-31 19 -31 49q0 19 12.5 43.5t59.5 98.5q218 336 307 479q9 15 15 19t15 -1q40 -26 51 -37q34 -36 -8 -106q-14 -22 -89 -136t-121 -190q94 79 265 181q8 5 8 -2t-8 -23q-6 -12 -9 -17.5t-13 -15.5t-26 -21q-44 -31 -80 -59
q-30 -81 -30 -152q0 -16 4 -27q61 16 129 108l3 4q8 11 12 7l3 -3q8 -8 2 -19l-3 -5q-42 -69 -100.5 -122.5t-99.5 -53.5q-26 0 -44 10q-23 13 -27.5 43t2.5 79q-52 -52 -98 -108zM3 -226q-4 1 -5.5 4.5t2.5 5.5q66 50 119 142q6 10 10 10q7 0 27 -8.5t32 -17.5
q13 -10 7 -26q-7 -20 -35 -50t-52 -45q-27 -16 -64 -18q-23 0 -41 3z" />
    <glyph glyph-name="Lacute" unicode="&#x139;" horiz-adv-x="490" 
d="M441 754q117 46 182 93q11 8 20 -2q16 -16 26 -38q18 -38 -27 -55q-22 -9 -68.5 -18t-80.5 -9q-13 0 -25 4q-20 7 -28 12q-4 2 -5 5t0.5 5t5.5 3zM88 -52q-20 -3 -32.5 1.5t-37.5 22.5q-32 22 -34.5 48t19.5 73q24 54 179.5 272t207.5 309q9 14 23 6q32 -14 59 -50
q13 -13 8.5 -39t-30.5 -72q-21 -37 -145 -211.5t-155 -245.5q235 33 300 33q10 0 7 -10q-6 -21 -17 -32.5t-41 -21.5q-214 -68 -311 -83z" />
    <glyph glyph-name="lacute" unicode="&#x13a;" horiz-adv-x="265" 
d="M412 738q119 69 183 131q7 7 16 3q13 -5 30 -16.5t23 -19.5q10 -15 -14 -35q-18 -15 -53.5 -35t-63.5 -30q-25 -9 -49 -11q-29 -3 -68 2q-8 1 -8 5t4 6zM92 -37q-43 0 -70 35q-22 28 -22 52q0 51 57 139q185 285 332 491q11 15 26 5q15 -9 37 -26q13 -11 18.5 -21
t0.5 -32t-25 -54q-88 -145 -258 -394q-60 -90 -63 -125q91 15 197 156l3 4q8 11 12 7l3 -3q8 -8 2 -19l-3 -5q-19 -31 -43 -63t-57 -67.5t-72 -57.5t-75 -22z" />
    <glyph glyph-name="uni013B" unicode="&#x13b;" horiz-adv-x="490" 
d="M88 -52q-20 -3 -32.5 1.5t-37.5 22.5q-32 22 -34.5 48t19.5 73q24 54 179.5 272t207.5 309q9 14 23 6q32 -14 59 -50q13 -13 8.5 -39t-30.5 -72q-21 -37 -145 -211.5t-155 -245.5q235 33 300 33q10 0 7 -10q-6 -21 -17 -32.5t-41 -21.5q-214 -68 -311 -83zM48 -266
q-4 1 -5.5 4.5t2.5 5.5q66 50 119 142q6 10 10 10q7 0 27 -8.5t32 -17.5q13 -10 7 -26q-7 -20 -35 -50t-52 -45q-27 -16 -64 -18q-23 0 -41 3z" />
    <glyph glyph-name="uni013C" unicode="&#x13c;" horiz-adv-x="265" 
d="M92 -37q-43 0 -70 35q-22 28 -22 52q0 51 57 139q185 285 332 491q11 15 26 5q15 -9 37 -26q13 -11 18.5 -21t0.5 -32t-25 -54q-88 -145 -258 -394q-60 -90 -63 -125q91 15 197 156l3 4q8 11 12 7l3 -3q8 -8 2 -19l-3 -5q-19 -31 -43 -63t-57 -67.5t-72 -57.5t-75 -22z
M-112 -236q-4 1 -5.5 4.5t2.5 5.5q66 50 119 142q6 10 10 10q7 0 27 -8.5t32 -17.5q13 -10 7 -26q-7 -20 -35 -50t-52 -45q-27 -16 -64 -18q-23 0 -41 3z" />
    <glyph glyph-name="Lcaron" unicode="&#x13d;" horiz-adv-x="490" 
d="M88 -52q-20 -3 -32.5 1.5t-37.5 22.5q-32 22 -34.5 48t19.5 73q24 54 179.5 272t207.5 309q9 14 23 6q32 -14 59 -50q13 -13 8.5 -39t-30.5 -72q-21 -37 -145 -211.5t-155 -245.5q235 33 300 33q10 0 7 -10q-6 -21 -17 -32.5t-41 -21.5q-214 -68 -311 -83zM576 587
q2 3 6 2q36 -15 54 -41q7 -10 2 -26q-9 -23 -51 -73q-14 -16 -34 -20q-45 -9 -77 -3q-8 2 -2 9q69 87 102 152z" />
    <glyph glyph-name="lcaron" unicode="&#x13e;" horiz-adv-x="265" 
d="M92 -37q-43 0 -70 35q-22 28 -22 52q0 51 57 139q185 285 332 491q11 15 26 5q15 -9 37 -26q13 -11 18.5 -21t0.5 -32t-25 -54q-88 -145 -258 -394q-60 -90 -63 -125q91 15 197 156l3 4q8 11 12 7l3 -3q8 -8 2 -19l-3 -5q-19 -31 -43 -63t-57 -67.5t-72 -57.5t-75 -22z
M527 619q2 3 6 2q36 -15 54 -41q7 -10 2 -26q-9 -23 -51 -73q-14 -16 -34 -20q-45 -9 -77 -3q-8 2 -2 9q69 87 102 152z" />
    <glyph glyph-name="Ldot" unicode="&#x13f;" horiz-adv-x="490" 
d="M88 -52q-20 -3 -32.5 1.5t-37.5 22.5q-32 22 -34.5 48t19.5 73q24 54 179.5 272t207.5 309q9 14 23 6q32 -14 59 -50q13 -13 8.5 -39t-30.5 -72q-21 -37 -145 -211.5t-155 -245.5q235 33 300 33q10 0 7 -10q-6 -21 -17 -32.5t-41 -21.5q-214 -68 -311 -83zM440 378
q9 14 21 14q33 -2 53 -10q19 -8 12 -29q-14 -37 -42 -59q-10 -9 -29 -9q-20 0 -40 6q-10 3 -9 16q3 23 34 71z" />
    <glyph glyph-name="ldot" unicode="&#x140;" horiz-adv-x="363" 
d="M92 -37q-43 0 -70 35q-22 28 -22 52q0 51 57 139q185 285 332 491q11 15 26 5q15 -9 37 -26q13 -11 18.5 -21t0.5 -32t-25 -54q-88 -145 -258 -394q-57 -85 -63 -124q68 11 126 71q4 4 6 0q2 -6 2 -15t-8 -19q-27 -39 -72.5 -73.5t-86.5 -34.5zM370 348q9 14 21 14
q33 -2 53 -10q19 -8 12 -29q-14 -37 -42 -59q-10 -9 -29 -9q-21 0 -40 6q-10 3 -9 16q3 23 34 71z" />
    <glyph glyph-name="Lslash" unicode="&#x141;" horiz-adv-x="490" 
d="M88 -52q-20 -3 -32.5 1.5t-37.5 22.5q-32 22 -34.5 48t19.5 73q13 28 43 76q-19 -3 -29 7q-15 16 -15 31q0 5 15 10q15 6 43.5 17t39.5 15q22 32 92.5 130.5t118 168.5t79.5 126q9 14 23 6q32 -14 59 -50q13 -13 8.5 -39t-30.5 -72q-19 -33 -129 -190q26 9 124 43
q28 10 28 -3q0 -15 -8 -28q-10 -16 -50 -32q-55 -26 -154 -64q-84 -121 -111 -183q235 33 300 33q10 0 7 -10q-6 -21 -17 -32.5t-41 -21.5q-214 -68 -311 -83z" />
    <glyph glyph-name="lslash" unicode="&#x142;" horiz-adv-x="265" 
d="M92 -37q-43 0 -70 35q-22 28 -22 52q0 51 57 139q108 166 249 373q-7 -1 -18.5 -2.5t-15.5 -1.5q-32 -3 -39 13q-5 15 -5 27q0 10 13 12q64 11 111 17q13 19 37 53q11 15 26 5q15 -9 37 -26q9 -7 15 -15q56 7 149 19q14 1 18 -1t2 -8q-3 -17 -10 -25q-11 -13 -48 -21
q-47 -11 -114 -22q-5 -14 -18 -34q-88 -145 -258 -394q-60 -90 -63 -125q91 15 197 156l3 4q8 11 12 7l3 -3q8 -8 2 -19l-3 -5q-19 -31 -43 -63t-57 -67.5t-72 -57.5t-75 -22z" />
    <glyph glyph-name="Nacute" unicode="&#x143;" horiz-adv-x="610" 
d="M634 743q117 46 182 93q11 8 20 -2q16 -16 26 -38q18 -38 -27 -55q-22 -9 -68.5 -18t-80.5 -9q-13 0 -25 4q-20 7 -28 12q-4 2 -5 5t0.5 5t5.5 3zM8 -19q-9 -12 -30.5 -19.5t-39.5 -7.5q-12 0 -12 10q0 11 14 34q100 165 255 384.5t224 291.5q17 17 31 14q39 -8 71 -29
q20 -13 23 -35t-7 -62q-7 -37 -80 -344q117 159 352 424q20 23 52 18q16 -2 7 -12q-288 -363 -420 -594q-14 -24 -25 -34t-30 -16q-64 -20 -90 -20q-21 0 -28.5 12.5t0.5 45.5q46 206 106 429q-169 -199 -373 -490z" />
    <glyph glyph-name="nacute" unicode="&#x144;" 
d="M332 428q119 69 183 131q7 7 16 3q13 -5 30 -16.5t23 -19.5q10 -15 -14 -35q-18 -15 -53.5 -35t-63.5 -30q-25 -9 -49 -11q-29 -3 -68 2q-8 1 -8 5t4 6zM93 -9q-16 -16 -25 -16q-23 0 -51 23q-32 25 -32 57q0 40 72 134q104 137 122 169q5 9 14 9q39 0 82 -41
q26 -26 15 -53q89 47 119 47q25 0 47 -20q17 -16 18.5 -32t-10.5 -41q-9 -19 -50.5 -85.5t-48.5 -92.5q81 19 172 140l3 4q8 11 12 7l3 -3q8 -8 2 -19l-3 -5q-37 -61 -104.5 -123.5t-124.5 -62.5q-34 0 -64 33q-39 44 -18 90q14 30 55 80.5t51 65.5q-61 -41 -148 -117
q-82 -122 -108 -148z" />
    <glyph glyph-name="uni0145" unicode="&#x145;" horiz-adv-x="610" 
d="M8 -19q-9 -12 -30.5 -19.5t-39.5 -7.5q-12 0 -12 10q0 11 14 34q100 165 255 384.5t224 291.5q17 17 31 14q39 -8 71 -29q20 -13 23 -35t-7 -62q-7 -37 -80 -344q117 159 352 424q20 23 52 18q16 -2 7 -12q-288 -363 -420 -594q-14 -24 -25 -34t-30 -16q-64 -20 -90 -20
q-21 0 -28.5 12.5t0.5 45.5q46 206 106 429q-169 -199 -373 -490zM8 -236q-4 1 -5.5 4.5t2.5 5.5q66 50 119 142q6 10 10 10q7 0 27 -8.5t32 -17.5q13 -10 7 -26q-7 -20 -35 -50t-52 -45q-27 -16 -64 -18q-23 0 -41 3z" />
    <glyph glyph-name="uni0146" unicode="&#x146;" 
d="M93 -9q-16 -16 -25 -16q-23 0 -51 23q-32 25 -32 57q0 40 72 134q104 137 122 169q5 9 14 9q39 0 82 -41q26 -26 15 -53q89 47 119 47q25 0 47 -20q17 -16 18.5 -32t-10.5 -41q-9 -19 -50.5 -85.5t-48.5 -92.5q81 19 172 140l3 4q8 11 12 7l3 -3q8 -8 2 -19l-3 -5
q-37 -61 -104.5 -123.5t-124.5 -62.5q-34 0 -64 33q-39 44 -18 90q14 30 55 80.5t51 65.5q-61 -41 -148 -117q-82 -122 -108 -148zM32 -226q-4 1 -5.5 4.5t2.5 5.5q66 50 119 142q6 10 10 10q7 0 27 -8.5t32 -17.5q13 -10 7 -26q-7 -20 -35 -50t-52 -45q-27 -16 -64 -18
q-23 0 -41 3z" />
    <glyph glyph-name="Ncaron" unicode="&#x147;" horiz-adv-x="610" 
d="M677 691q-11 -4 -16 0.5t-10 20.5q-15 44 -32 104q-4 13 8 18q15 6 24 6q14 0 22 -18q11 -20 18 -40q50 15 138 54q16 7 16 0q0 -17 -12 -44q-8 -21 -20.5 -35t-36.5 -26q-19 -10 -99 -40zM8 -19q-9 -12 -30.5 -19.5t-39.5 -7.5q-12 0 -12 10q0 11 14 34
q100 165 255 384.5t224 291.5q17 17 31 14q39 -8 71 -29q20 -13 23 -35t-7 -62q-7 -37 -80 -344q117 159 352 424q20 23 52 18q16 -2 7 -12q-288 -363 -420 -594q-14 -24 -25 -34t-30 -16q-64 -20 -90 -20q-21 0 -28.5 12.5t0.5 45.5q46 206 106 429q-169 -199 -373 -490z
" />
    <glyph glyph-name="ncaron" unicode="&#x148;" 
d="M367 391q-11 -4 -16 0.5t-10 20.5q-15 44 -32 104q-4 13 8 18q15 6 24 6q14 0 22 -18q11 -20 18 -40q50 15 138 54q16 7 16 0q0 -17 -12 -44q-8 -21 -20.5 -35t-36.5 -26q-19 -10 -99 -40zM93 -9q-16 -16 -25 -16q-23 0 -51 23q-32 25 -32 57q0 40 72 134
q104 137 122 169q5 9 14 9q39 0 82 -41q26 -26 15 -53q89 47 119 47q25 0 47 -20q17 -16 18.5 -32t-10.5 -41q-9 -19 -50.5 -85.5t-48.5 -92.5q81 19 172 140l3 4q8 11 12 7l3 -3q8 -8 2 -19l-3 -5q-37 -61 -104.5 -123.5t-124.5 -62.5q-34 0 -64 33q-39 44 -18 90
q14 30 55 80.5t51 65.5q-61 -41 -148 -117q-82 -122 -108 -148z" />
    <glyph glyph-name="napostrophe" unicode="&#x149;" 
d="M156 406q-5 -1 -17 -3.5t-21 -4.5t-14 -2q-10 0 -13 6.5t4 12.5q97 97 119 163q8 25 16 25q5 0 52 -17q34 -13 13 -63q-24 -53 -87 -96q-25 -17 -52 -21zM93 -9q-16 -16 -25 -16q-23 0 -51 23q-32 25 -32 57q0 40 72 134q104 137 122 169q5 9 14 9q39 0 82 -41
q26 -26 15 -53q89 47 119 47q25 0 47 -20q17 -16 18.5 -32t-10.5 -41q-9 -19 -50.5 -85.5t-48.5 -92.5q81 19 172 140l3 4q8 11 12 7l3 -3q8 -8 2 -19l-3 -5q-37 -61 -104.5 -123.5t-124.5 -62.5q-34 0 -64 33q-39 44 -18 90q14 30 55 80.5t51 65.5q-61 -41 -148 -117
q-82 -122 -108 -148z" />
    <glyph glyph-name="Omacron" unicode="&#x14c;" horiz-adv-x="620" 
d="M514 792q107 2 223 6q10 0 9 -10q-3 -19 -9 -32q-10 -21 -48 -24q-72 -4 -149 0q-21 1 -32 5t-10 13q1 7 4 19.5t4 16.5q2 6 8 6zM246 -44q-45 0 -102 37q-47 30 -64.5 62.5t-17.5 87.5q0 118 99 258q81 114 195 194t187 80q50 0 84 -45q72 -35 72 -151
q0 -49 -18.5 -112.5t-48.5 -116.5q-80 -140 -189 -217t-197 -77zM294 326q-39 -53 -65.5 -134t-15.5 -133q96 20 194 95.5t161 175t63 184.5q0 54 -27 78q-165 -70 -310 -266z" />
    <glyph glyph-name="omacron" unicode="&#x14d;" horiz-adv-x="390" 
d="M214 492q108 2 223 6q10 0 9 -10q-3 -19 -9 -32q-10 -21 -48 -24q-72 -4 -149 0q-21 1 -32 5t-10 13q1 7 4 19.5t4 16.5q2 6 8 6zM142 -25q-55 0 -98 45q-35 38 -35 89q0 57 44 115q40 54 97.5 93.5t105.5 39.5q24 0 49 -12t35 -28q41 -15 41 -77q0 -57 -41 -127
q-37 -64 -89 -101t-109 -37zM170 143q-37 -57 -30 -97q74 19 137 88t63 128q0 23 -14 28q-35 -11 -78 -51t-78 -96z" />
    <glyph glyph-name="Obreve" unicode="&#x14e;" horiz-adv-x="620" 
d="M776 808q-18 -36 -46 -55q-45 -31 -91 -31q-51 0 -74 39q-22 37 -13 78q2 7 5 10t13 8q10 4 11 -8q5 -53 53 -53q56 0 146 65q5 4 9 4.5t5.5 -2t0.5 -6.5q-4 -20 -19 -49zM246 -44q-45 0 -102 37q-47 30 -64.5 62.5t-17.5 87.5q0 118 99 258q81 114 195 194t187 80
q50 0 84 -45q72 -35 72 -151q0 -49 -18.5 -112.5t-48.5 -116.5q-80 -140 -189 -217t-197 -77zM294 326q-39 -53 -65.5 -134t-15.5 -133q96 20 194 95.5t161 175t63 184.5q0 54 -27 78q-165 -70 -310 -266z" />
    <glyph glyph-name="obreve" unicode="&#x14f;" horiz-adv-x="390" 
d="M460 480q-18 -36 -46 -55q-45 -31 -91 -31q-51 0 -74 39q-22 37 -13 78q2 7 5 10t13 8q10 4 11 -8q5 -53 53 -53q56 0 146 65q5 4 9 4.5t5.5 -2t0.5 -6.5q-4 -20 -19 -49zM142 -25q-55 0 -98 45q-35 38 -35 89q0 57 44 115q40 54 97.5 93.5t105.5 39.5q24 0 49 -12
t35 -28q41 -15 41 -77q0 -57 -41 -127q-37 -64 -89 -101t-109 -37zM170 143q-37 -57 -30 -97q74 19 137 88t63 128q0 23 -14 28q-35 -11 -78 -51t-78 -96z" />
    <glyph glyph-name="Ohungarumlaut" unicode="&#x150;" horiz-adv-x="620" 
d="M573 753q94 96 144 130q9 6 15 2q22 -12 22 -32q0 -23 -20 -43q-47 -47 -97 -72q-24 -12 -39 -12q-25 0 -32 9q-4 7 7 18zM678 737q12 10 72.5 57.5t82.5 63.5q8 6 15 -4q11 -16 11 -26q0 -12 -14 -30q-36 -41 -71 -60q-23 -13 -38 -14q-24 -3 -56 2q-13 3 -2 11z
M246 -44q-45 0 -102 37q-47 30 -64.5 62.5t-17.5 87.5q0 118 99 258q81 114 195 194t187 80q50 0 84 -45q72 -35 72 -151q0 -49 -18.5 -112.5t-48.5 -116.5q-80 -140 -189 -217t-197 -77zM294 326q-39 -53 -65.5 -134t-15.5 -133q96 20 194 95.5t161 175t63 184.5
q0 54 -27 78q-165 -70 -310 -266z" />
    <glyph glyph-name="ohungarumlaut" unicode="&#x151;" horiz-adv-x="390" 
d="M223 440q94 96 144 130q9 6 15 2q22 -12 22 -32q0 -23 -20 -43q-47 -47 -97 -72q-24 -12 -39 -12q-25 0 -32 9q-4 7 7 18zM328 424q12 10 72.5 57.5t82.5 63.5q8 6 15 -4q11 -17 11 -26q0 -12 -14 -30q-36 -41 -71 -60q-23 -13 -38 -14q-24 -3 -56 2q-13 3 -2 11z
M142 -25q-55 0 -98 45q-35 38 -35 89q0 57 44 115q40 54 97.5 93.5t105.5 39.5q24 0 49 -12t35 -28q41 -15 41 -77q0 -57 -41 -127q-37 -64 -89 -101t-109 -37zM170 143q-37 -57 -30 -97q74 19 137 88t63 128q0 23 -14 28q-35 -11 -78 -51t-78 -96z" />
    <glyph glyph-name="OE" unicode="&#x152;" horiz-adv-x="890" 
d="M493 -53q-18 -1 -31 4.5t-18.5 12t-18.5 23.5q-8 10 -17 23q-88 -54 -162 -54q-45 0 -102 37q-47 30 -64.5 62.5t-17.5 87.5q0 118 99 258q81 114 195 194t187 80q50 0 84 -45q53 -26 68 -101q8 12 24 33.5t22 30.5q13 17 21.5 22.5t21.5 4.5q7 16 36 19q194 19 358 23
q7 0 7 -5q0 -16 -10 -31q-9 -13 -36 -18q-185 -35 -269 -48q-33 -54 -140 -209q177 16 214 19q10 0 7 -7q-7 -21 -23 -37t-50 -23q-106 -22 -208 -39q-112 -163 -149 -218q226 33 289 40q17 3 17 -6q0 -2 -3.5 -12.5t-5.5 -19.5q-2 -8 -6 -12t-22 -10q-70 -25 -161.5 -50
t-135.5 -29zM294 326q-39 -53 -65.5 -134t-15.5 -133q130 27 253 147q53 81 144 207q21 53 21 101q0 54 -27 78q-165 -70 -310 -266z" />
    <glyph glyph-name="oe" unicode="&#x153;" horiz-adv-x="645" 
d="M422 -34q-59 0 -105 65q-8 11 -15 28q-73 -84 -160 -84q-55 0 -98 45q-35 38 -35 89q0 57 44 115q40 54 97.5 93.5t105.5 39.5q24 0 49 -12t35 -28q29 -11 37 -46q40 38 85 62t81 24q25 0 51 -17q23 -16 32 -28q34 -27 34 -59q0 -24 -18.5 -47.5t-66.5 -54.5
q-55 -34 -160 -70q-5 -27 0 -39q13 -7 33 -7q58 0 130.5 43t123.5 111l3 4q8 11 12 7l3 -3q8 -8 2 -19l-3 -5q-52 -87 -137 -147t-160 -60zM170 143q-37 -57 -30 -97q74 19 137 88t63 128q0 23 -14 28q-35 -11 -78 -51t-78 -96zM547 190q65 47 51 95q-40 -9 -88.5 -55.5
t-75.5 -99.5q74 31 113 60z" />
    <glyph glyph-name="Racute" unicode="&#x154;" horiz-adv-x="560" 
d="M511 763q117 46 182 93q11 8 20 -2q16 -16 26 -38q18 -38 -27 -55q-22 -9 -68.5 -18t-80.5 -9q-13 0 -25 4q-20 7 -28 12q-4 2 -5 5t0.5 5t5.5 3zM442 -43q-11 -14 -20.5 -17.5t-14.5 5.5q-34 78 -163 275q-112 -154 -130 -178q-26 -34 -46.5 -48t-53.5 -21
q-57 -12 -83 -12q-4 0 -5.5 4.5t0.5 11.5t7 14q205 329 380 553q-4 4 -5 6q-12 20 -25 85q-4 21 12 25q63 18 152 18q144 0 212 -72q34 -35 34 -89q0 -88 -85 -168t-217 -118q46 -88 74 -156q14 -33 14 -52q0 -10 -2.5 -17.5t-6 -12t-12.5 -15.5t-16 -21zM439 504
q-104 -154 -119 -175q98 10 203 78.5t117 139.5q-30 29 -103 29q-55 0 -121 -15q22 -19 27 -30t-4 -27z" />
    <glyph glyph-name="racute" unicode="&#x155;" horiz-adv-x="325" 
d="M282 458q119 69 183 131q7 7 16 3q13 -5 30 -16.5t23 -19.5q10 -15 -14 -35q-18 -15 -53.5 -35t-63.5 -30q-25 -9 -49 -11q-29 -3 -68 2q-8 1 -8 5t4 6zM74 -19q-22 0 -54 22q-33 23 -33 51q0 42 70 135q88 119 116 172q4 8 20 7q31 -2 54 -14q25 -14 12 -66
q64 54 161 110q27 15 32 15q11 0 11 -26q0 -11 -19 -25q-156 -113 -305 -316q-32 -44 -42.5 -54.5t-22.5 -10.5z" />
    <glyph glyph-name="uni0156" unicode="&#x156;" horiz-adv-x="560" 
d="M442 -43q-11 -14 -20.5 -17.5t-14.5 5.5q-34 78 -163 275q-112 -154 -130 -178q-26 -34 -46.5 -48t-53.5 -21q-57 -12 -83 -12q-4 0 -5.5 4.5t0.5 11.5t7 14q205 329 380 553q-4 4 -5 6q-12 20 -25 85q-4 21 12 25q63 18 152 18q144 0 212 -72q34 -35 34 -89
q0 -88 -85 -168t-217 -118q46 -88 74 -156q14 -33 14 -52q0 -10 -2.5 -17.5t-6 -12t-12.5 -15.5t-16 -21zM439 504q-104 -154 -119 -175q98 10 203 78.5t117 139.5q-30 29 -103 29q-55 0 -121 -15q22 -19 27 -30t-4 -27zM40 -246q-4 1 -5.5 4.5t2.5 5.5q66 50 119 142
q6 10 10 10q7 0 27 -8.5t32 -17.5q13 -10 7 -26q-7 -20 -35 -50t-52 -45q-27 -16 -64 -18q-23 0 -41 3z" />
    <glyph glyph-name="uni0157" unicode="&#x157;" horiz-adv-x="325" 
d="M74 -19q-22 0 -54 22q-33 23 -33 51q0 42 70 135q88 119 116 172q4 8 20 7q31 -2 54 -14q25 -14 12 -66q64 54 161 110q27 15 32 15q11 0 11 -26q0 -11 -19 -25q-156 -113 -305 -316q-32 -44 -42.5 -54.5t-22.5 -10.5zM-142 -226q-4 1 -5.5 4.5t2.5 5.5q66 50 119 142
q6 10 10 10q7 0 27 -8.5t32 -17.5q13 -10 7 -26q-7 -20 -35 -50t-52 -45q-27 -16 -64 -18q-23 0 -41 3z" />
    <glyph glyph-name="Rcaron" unicode="&#x158;" horiz-adv-x="560" 
d="M557 713q-11 -4 -16 0.5t-10 20.5q-15 44 -32 104q-4 13 8 18q15 6 24 6q14 0 22 -18q11 -20 18 -40q50 15 138 54q16 7 16 0q0 -17 -12 -44q-8 -21 -20.5 -35t-36.5 -26q-19 -10 -99 -40zM442 -43q-11 -14 -20.5 -17.5t-14.5 5.5q-34 78 -163 275q-112 -154 -130 -178
q-26 -34 -46.5 -48t-53.5 -21q-57 -12 -83 -12q-4 0 -5.5 4.5t0.5 11.5t7 14q205 329 380 553q-4 4 -5 6q-12 20 -25 85q-4 21 12 25q63 18 152 18q144 0 212 -72q34 -35 34 -89q0 -88 -85 -168t-217 -118q46 -88 74 -156q14 -33 14 -52q0 -10 -2.5 -17.5t-6 -12
t-12.5 -15.5t-16 -21zM439 504q-104 -154 -119 -175q98 10 203 78.5t117 139.5q-30 29 -103 29q-55 0 -121 -15q22 -19 27 -30t-4 -27z" />
    <glyph glyph-name="rcaron" unicode="&#x159;" horiz-adv-x="325" 
d="M307 421q-11 -4 -16 0.5t-10 20.5q-15 44 -32 104q-4 13 8 18q15 6 24 6q14 0 22 -18q11 -20 18 -40q50 15 138 54q16 7 16 0q0 -17 -12 -44q-8 -21 -20.5 -35t-36.5 -26q-19 -10 -99 -40zM74 -19q-22 0 -54 22q-33 23 -33 51q0 42 70 135q88 119 116 172q4 8 20 7
q31 -2 54 -14q25 -14 12 -66q64 54 161 110q27 15 32 15q11 0 11 -26q0 -11 -19 -25q-156 -113 -305 -316q-32 -44 -42.5 -54.5t-22.5 -10.5z" />
    <glyph glyph-name="Sacute" unicode="&#x15a;" horiz-adv-x="445" 
d="M551 773q117 46 182 93q11 8 20 -2q16 -16 26 -38q18 -38 -27 -55q-22 -9 -68.5 -18t-80.5 -9q-13 0 -25 4q-20 7 -28 12q-4 2 -5 5t0.5 5t5.5 3zM396 138q0 -51 -46.5 -100.5t-114 -79.5t-129.5 -30q-69 0 -117 65q-38 52 -22 63q2 1 5 1q5 0 18.5 -0.5t20.5 -0.5
q116 0 200 37t84 84q0 20 -14.5 35.5t-55.5 40.5q-30 18 -44.5 29.5t-29 33.5t-14.5 48q0 100 179 220q78 53 154 86.5t121 33.5q47 0 84 -54q32 -45 12 -51q-158 -54 -291 -134q-78 -47 -113.5 -81.5t-35.5 -65.5q0 -29 47 -59q61 -39 80 -62q22 -27 22 -59z" />
    <glyph glyph-name="sacute" unicode="&#x15b;" horiz-adv-x="245" 
d="M182 438q119 69 183 131q7 7 16 3q13 -5 30 -16.5t23 -19.5q10 -15 -14 -35q-18 -15 -53.5 -35t-63.5 -30q-25 -9 -49 -11q-29 -3 -68 2q-8 1 -8 5t4 6zM41 -72q-35 0 -58 25q-16 17 -22 33q-6 14 6 18q71 24 110 55.5t39 57.5q0 17 -32.5 54t-32.5 65q0 62 77 106
q40 24 73 24q43 0 71 -44q30 -47 11 -54q-57 -18 -101 -46.5t-44 -53.5q0 -12 15.5 -26t31 -35t15.5 -48q0 -53 -61 -97q-47 -34 -98 -34z" />
    <glyph glyph-name="Scircumflex" unicode="&#x15c;" horiz-adv-x="445" 
d="M716 736q-13 0 -21 18q-10 21 -17 40q-37 -9 -139 -50q-17 -7 -17 0q0 18 22 62q11 24 35 35q34 16 116 44q10 4 15 -0.5t10 -21.5q23 -72 30 -104q4 -13 -7 -17q-18 -6 -27 -6zM396 138q0 -51 -46.5 -100.5t-114 -79.5t-129.5 -30q-69 0 -117 65q-38 52 -22 63q2 1 5 1
q5 0 18.5 -0.5t20.5 -0.5q116 0 200 37t84 84q0 20 -14.5 35.5t-55.5 40.5q-30 18 -44.5 29.5t-29 33.5t-14.5 48q0 100 179 220q78 53 154 86.5t121 33.5q47 0 84 -54q32 -45 12 -51q-158 -54 -291 -134q-78 -47 -113.5 -81.5t-35.5 -65.5q0 -29 47 -59q61 -39 80 -62
q22 -27 22 -59z" />
    <glyph glyph-name="scircumflex" unicode="&#x15d;" horiz-adv-x="245" 
d="M326 406q-13 0 -21 18q-10 21 -17 40q-37 -9 -139 -50q-17 -7 -17 0q0 18 22 62q11 24 35 35q34 16 116 44q10 4 15 -0.5t10 -21.5q23 -72 30 -104q4 -13 -7 -17q-18 -6 -27 -6zM41 -72q-35 0 -58 25q-16 17 -22 33q-6 14 6 18q71 24 110 55.5t39 57.5q0 17 -32.5 54
t-32.5 65q0 62 77 106q40 24 73 24q43 0 71 -44q30 -47 11 -54q-57 -18 -101 -46.5t-44 -53.5q0 -12 15.5 -26t31 -35t15.5 -48q0 -53 -61 -97q-47 -34 -98 -34z" />
    <glyph glyph-name="uni015E" unicode="&#x15e;" horiz-adv-x="445" 
d="M396 138q0 -51 -46.5 -100.5t-114 -79.5t-129.5 -30q-69 0 -117 65q-38 52 -22 63q2 1 5 1q5 0 18.5 -0.5t20.5 -0.5q116 0 200 37t84 84q0 20 -14.5 35.5t-55.5 40.5q-30 18 -44.5 29.5t-29 33.5t-14.5 48q0 100 179 220q78 53 154 86.5t121 33.5q47 0 84 -54
q32 -45 12 -51q-158 -54 -291 -134q-78 -47 -113.5 -81.5t-35.5 -65.5q0 -29 47 -59q61 -39 80 -62q22 -27 22 -59zM70 -128q2 3 6 2q36 -15 54 -41q7 -10 2 -26q-9 -23 -51 -73q-14 -16 -34 -20q-45 -9 -77 -3q-8 2 -2 9q69 87 102 152z" />
    <glyph glyph-name="uni015F" unicode="&#x15f;" horiz-adv-x="245" 
d="M41 -72q-35 0 -58 25q-16 17 -22 33q-6 14 6 18q71 24 110 55.5t39 57.5q0 17 -32.5 54t-32.5 65q0 62 77 106q40 24 73 24q43 0 71 -44q30 -47 11 -54q-57 -18 -101 -46.5t-44 -53.5q0 -12 15.5 -26t31 -35t15.5 -48q0 -53 -61 -97q-47 -34 -98 -34zM13 -122q2 3 6 2
q36 -15 54 -41q7 -10 2 -26q-9 -23 -51 -73q-14 -16 -34 -20q-45 -9 -77 -3q-8 2 -2 9q69 87 102 152z" />
    <glyph glyph-name="Scaron" unicode="&#x160;" horiz-adv-x="445" 
d="M620 731q-11 -4 -16 0.5t-10 20.5q-15 44 -32 104q-4 13 8 18q15 6 24 6q14 0 22 -18q11 -20 18 -40q50 15 138 54q16 7 16 0q0 -17 -12 -44q-8 -21 -20.5 -35t-36.5 -26q-19 -10 -99 -40zM396 138q0 -51 -46.5 -100.5t-114 -79.5t-129.5 -30q-69 0 -117 65
q-38 52 -22 63q2 1 5 1q5 0 18.5 -0.5t20.5 -0.5q116 0 200 37t84 84q0 20 -14.5 35.5t-55.5 40.5q-30 18 -44.5 29.5t-29 33.5t-14.5 48q0 100 179 220q78 53 154 86.5t121 33.5q47 0 84 -54q32 -45 12 -51q-158 -54 -291 -134q-78 -47 -113.5 -81.5t-35.5 -65.5
q0 -29 47 -59q61 -39 80 -62q22 -27 22 -59z" />
    <glyph glyph-name="scaron" unicode="&#x161;" horiz-adv-x="245" 
d="M237 411q-11 -4 -16 0.5t-10 20.5q-15 44 -32 104q-4 13 8 18q15 6 24 6q14 0 22 -18q11 -20 18 -40q50 15 138 54q16 7 16 0q0 -17 -12 -44q-8 -21 -20.5 -35t-36.5 -26q-19 -10 -99 -40zM41 -72q-35 0 -58 25q-16 17 -22 33q-6 14 6 18q71 24 110 55.5t39 57.5
q0 17 -32.5 54t-32.5 65q0 62 77 106q40 24 73 24q43 0 71 -44q30 -47 11 -54q-57 -18 -101 -46.5t-44 -53.5q0 -12 15.5 -26t31 -35t15.5 -48q0 -53 -61 -97q-47 -34 -98 -34z" />
    <glyph glyph-name="Tcommaaccent" unicode="&#x162;" horiz-adv-x="540" 
d="M58 -59q-13 0 -6 12q102 170 390 591q-93 -14 -207 -34q-8 -1 -12.5 -0.5t-5 3t1.5 6.5q4 10 10.5 26t11 25.5t9.5 15.5q14 18 30 27t47 14q52 9 185 21q6 9 20 31q7 11 13.5 12.5t19.5 -5.5q21 -11 49 -30q80 5 125 5q30 0 64 -22q33 -22 33 -29q0 -6 -12 -8
q-70 -9 -202 -30q-58 -92 -185.5 -278t-219.5 -306q-28 -36 -65 -36q-28 -1 -57 -6t-37 -5zM-59 -276q-4 1 -5.5 4.5t2.5 5.5q66 50 119 142q6 10 10 10q7 0 27 -8.5t32 -17.5q13 -10 7 -26q-7 -20 -35 -50t-52 -45q-27 -16 -64 -18q-23 0 -41 3z" />
    <glyph glyph-name="tcommaaccent" unicode="&#x163;" horiz-adv-x="300" 
d="M120 -25q-44 0 -79 34q-34 27 -32 68t48 112q61 93 70 108q-15 0 -26 10q-24 22 -24 40q0 7 19 9q6 1 34 4.5l44 5.5q60 87 109 152q36 48 50 48q6 0 11 -4t12 -13t14 -15q21 -18 24 -35.5t-8 -42t-45 -76.5q58 2 75 2q11 0 11 -7q0 -19 -21 -23q-4 -1 -16.5 -6.5
t-33.5 -10.5l-52 -12q-88 -134 -122 -192t-39 -84q59 4 109.5 37t104.5 105l3 4q8 11 12 7l3 -3q8 -8 2 -19l-3 -5q-35 -57 -114.5 -127.5t-139.5 -70.5zM36 -68q2 3 6 2q36 -15 54 -41q7 -10 2 -26q-9 -23 -51 -73q-14 -16 -34 -20q-45 -9 -77 -3q-8 2 -2 9q69 87 102 152z
" />
    <glyph glyph-name="Tcaron" unicode="&#x164;" horiz-adv-x="540" 
d="M607 721q-11 -4 -16 0.5t-10 20.5q-15 44 -32 104q-4 13 8 18q15 6 24 6q14 0 22 -18q11 -20 18 -40q50 15 138 54q16 7 16 0q0 -17 -12 -44q-8 -21 -20.5 -35t-36.5 -26q-19 -10 -99 -40zM58 -59q-13 0 -6 12q102 170 390 591q-93 -14 -207 -34q-8 -1 -12.5 -0.5t-5 3
t1.5 6.5q4 10 10.5 26t11 25.5t9.5 15.5q14 18 30 27t47 14q52 9 185 21q6 9 20 31q7 11 13.5 12.5t19.5 -5.5q21 -11 49 -30q80 5 125 5q30 0 64 -22q33 -22 33 -29q0 -6 -12 -8q-70 -9 -202 -30q-58 -92 -185.5 -278t-219.5 -306q-28 -36 -65 -36q-28 -1 -57 -6t-37 -5z
" />
    <glyph glyph-name="tcaron" unicode="&#x165;" horiz-adv-x="300" 
d="M511 611q2 3 6 2q36 -15 54 -41q7 -10 2 -26q-9 -23 -51 -73q-14 -16 -34 -20q-45 -9 -77 -3q-8 2 -2 9q69 87 102 152zM120 -25q-44 0 -79 34q-34 27 -32 68t48 112q61 93 70 108q-15 0 -26 10q-24 22 -24 40q0 7 19 9q6 1 34 4.5l44 5.5q60 87 109 152q36 48 50 48
q6 0 11 -4t12 -13t14 -15q21 -18 24 -35.5t-8 -42t-45 -76.5q58 2 75 2q11 0 11 -7q0 -19 -21 -23q-4 -1 -16.5 -6.5t-33.5 -10.5l-52 -12q-88 -134 -122 -192t-39 -84q59 4 109.5 37t104.5 105l3 4q8 11 12 7l3 -3q8 -8 2 -19l-3 -5q-35 -57 -114.5 -127.5t-139.5 -70.5z
" />
    <glyph glyph-name="Tbar" unicode="&#x166;" horiz-adv-x="540" 
d="M58 -59q-13 0 -6 12q58 97 173 270q-34 -2 -50 -2q-18 0 -28 13q-3 3 -4.5 9t-3 15t-2.5 12q-3 14 11 17q27 5 130 16q107 159 164 241q-93 -14 -207 -34q-8 -1 -12.5 -0.5t-5 3t1.5 6.5q4 10 10.5 26t11 25.5t9.5 15.5q14 18 30 27t47 14q52 9 185 21q6 9 20 31
q7 11 13.5 12.5t19.5 -5.5q21 -11 49 -30q80 5 125 5q30 0 64 -22q33 -22 33 -29q0 -6 -12 -8q-70 -9 -202 -30q-52 -86 -168 -254q69 6 94 8q5 0 5 -6q0 -17 -16 -42q-9 -13 -31 -17q-75 -13 -104 -17q-117 -168 -185 -256q-28 -36 -65 -36q-28 -1 -57 -6t-37 -5z" />
    <glyph glyph-name="tbar" unicode="&#x167;" horiz-adv-x="300" 
d="M120 -25q-44 0 -79 34q-33 26 -32 66t43 106q-22 -1 -28 1.5t-6 9.5q0 14 3 25q4 16 54 24q14 2 18 4q29 44 34 52q-15 0 -26 10q-24 22 -24 40q0 7 19 9q6 1 34 4.5l44 5.5q60 87 109 152q36 48 50 48q6 0 11 -4t12 -13t14 -15q21 -18 24 -35.5t-8 -42t-45 -76.5
q58 2 75 2q11 0 11 -7q0 -19 -21 -23q-4 -1 -16.5 -6.5t-33.5 -10.5l-52 -12q-4 -6 -8.5 -13t-9.5 -14.5t-8 -11.5h8q44 2 65 0t21 -11q0 -5 -10 -21q-4 -6 -27 -10q-49 -8 -97 -21q-89 -138 -95 -174q59 4 109.5 37t104.5 105l3 4q8 11 12 7l3 -3q8 -8 2 -19l-3 -5
q-35 -57 -114.5 -127.5t-139.5 -70.5z" />
    <glyph glyph-name="Utilde" unicode="&#x168;" horiz-adv-x="610" 
d="M716 722q-30 0 -47 35q-7 15 -11.5 19.5t-11.5 4.5q-10 0 -40 -9t-49 -18q-5 -2 -9 -2.5t-5.5 1t-0.5 4.5q8 34 22 46q62 54 106 54q24 0 32 -25t16 -29q56 11 95 50q5 5 8.5 3.5t1.5 -10.5q-12 -53 -17 -63q-9 -18 -36 -41q-25 -20 -54 -20zM219 -42q-51 0 -85 23
q-78 28 -78 131q0 110 150 315q102 142 213 255q11 11 23 4q25 -14 59 -52q28 -30 -5 -68q-106 -127 -176 -223q-153 -212 -146 -308q111 15 282 215q132 152 274 391q8 12 18 2q3 -3 8.5 -11.5t9.5 -12.5q23 -26 1 -69q-103 -203 -226 -360q-94 -121 -169 -176.5
t-153 -55.5z" />
    <glyph glyph-name="utilde" unicode="&#x169;" 
d="M422 404q-30 0 -47 35q-7 15 -11.5 19.5t-11.5 4.5q-10 0 -40 -9t-49 -18q-5 -2 -9 -2.5t-5.5 1t-0.5 4.5q8 34 22 46q62 54 106 54q24 0 32 -25t16 -29q56 11 95 50q5 5 8.5 3.5t1.5 -10.5q-12 -53 -17 -63q-9 -18 -36 -41q-25 -20 -54 -20zM277 10q-39 31 -13 94
q-49 -58 -94.5 -93.5t-76.5 -35.5q-36 0 -75 45q-26 28 -16.5 68t55.5 101q66 86 84.5 114t22.5 44q2 10 21 10q37 0 69 -13t32 -42t-25.5 -68t-62.5 -87t-53 -84q92 32 205 220q14 24 20 30.5t17 6.5q19 0 57 -9q34 -8 34 -34q0 -25 -50 -106q-58 -97 -48 -118
q67 16 157 136l3 4q8 11 12 7l3 -3q9 -9 2 -19l-3 -5q-36 -60 -100 -122t-117 -62q-32 0 -60 21z" />
    <glyph glyph-name="Umacron" unicode="&#x16a;" horiz-adv-x="610" 
d="M559 802q108 2 223 6q10 0 9 -10q-3 -19 -9 -32q-10 -21 -48 -24q-72 -4 -149 0q-21 1 -32 5t-10 13q1 7 4 19.5t4 16.5q1 6 8 6zM219 -42q-51 0 -85 23q-78 28 -78 131q0 110 150 315q102 142 213 255q11 11 23 4q25 -14 59 -52q28 -30 -5 -68q-106 -127 -176 -223
q-153 -212 -146 -308q111 15 282 215q132 152 274 391q8 12 18 2q3 -3 8.5 -11.5t9.5 -12.5q23 -26 1 -69q-103 -203 -226 -360q-94 -121 -169 -176.5t-153 -55.5z" />
    <glyph glyph-name="umacron" unicode="&#x16b;" 
d="M277 492q107 2 223 6q10 0 9 -10q-3 -19 -9 -32q-10 -21 -48 -24q-72 -4 -149 0q-21 1 -32 5t-10 13q1 7 4 19.5t4 16.5q1 6 8 6zM277 10q-39 31 -13 94q-49 -58 -94.5 -93.5t-76.5 -35.5q-36 0 -75 45q-26 28 -16.5 68t55.5 101q66 86 84.5 114t22.5 44q2 10 21 10
q37 0 69 -13t32 -42t-25.5 -68t-62.5 -87t-53 -84q92 32 205 220q14 24 20 30.5t17 6.5q19 0 57 -9q34 -8 34 -34q0 -25 -50 -106q-58 -97 -48 -118q67 16 157 136l3 4q8 11 12 7l3 -3q9 -9 2 -19l-3 -5q-36 -60 -100 -122t-117 -62q-32 0 -60 21z" />
    <glyph glyph-name="Ubreve" unicode="&#x16c;" horiz-adv-x="610" 
d="M785 808q-18 -36 -46 -55q-45 -31 -91 -31q-51 0 -74 39q-22 37 -13 78q1 7 4.5 10t13.5 8q10 4 11 -8q5 -53 53 -53q56 0 146 65q5 4 9 4.5t5.5 -2t0.5 -6.5q-4 -20 -19 -49zM219 -42q-51 0 -85 23q-78 28 -78 131q0 110 150 315q102 142 213 255q11 11 23 4
q25 -14 59 -52q28 -30 -5 -68q-106 -127 -176 -223q-153 -212 -146 -308q111 15 282 215q132 152 274 391q8 12 18 2q3 -3 8.5 -11.5t9.5 -12.5q23 -26 1 -69q-103 -203 -226 -360q-94 -121 -169 -176.5t-153 -55.5z" />
    <glyph glyph-name="ubreve" unicode="&#x16d;" 
d="M496 478q-18 -36 -46 -55q-45 -31 -91 -31q-51 0 -74 39q-22 37 -13 78q2 7 5 10t13 8q10 4 11 -8q5 -53 53 -53q56 0 146 65q5 4 9 4.5t5.5 -2t0.5 -6.5q-4 -20 -19 -49zM277 10q-39 31 -13 94q-49 -58 -94.5 -93.5t-76.5 -35.5q-36 0 -75 45q-26 28 -16.5 68t55.5 101
q66 86 84.5 114t22.5 44q2 10 21 10q37 0 69 -13t32 -42t-25.5 -68t-62.5 -87t-53 -84q92 32 205 220q14 24 20 30.5t17 6.5q19 0 57 -9q34 -8 34 -34q0 -25 -50 -106q-58 -97 -48 -118q67 16 157 136l3 4q8 11 12 7l3 -3q9 -9 2 -19l-3 -5q-36 -60 -100 -122t-117 -62
q-32 0 -60 21z" />
    <glyph glyph-name="Uring" unicode="&#x16e;" horiz-adv-x="610" 
d="M760 789q0 -43 -33.5 -77t-77.5 -34q-38 0 -66 23.5t-28 59.5q0 42 34 74.5t80 32.5q30 0 51 -15q40 -14 40 -64zM656 730q25 0 46.5 30t14.5 59q-30 6 -57.5 -16t-27.5 -49q0 -24 24 -24zM219 -42q-51 0 -85 23q-78 28 -78 131q0 110 150 315q102 142 213 255
q11 11 23 4q25 -14 59 -52q28 -30 -5 -68q-106 -127 -176 -223q-153 -212 -146 -308q111 15 282 215q132 152 274 391q8 12 18 2q3 -3 8.5 -11.5t9.5 -12.5q23 -26 1 -69q-103 -203 -226 -360q-94 -121 -169 -176.5t-153 -55.5z" />
    <glyph glyph-name="uring" unicode="&#x16f;" 
d="M480 489q0 -43 -33.5 -77t-77.5 -34q-38 0 -66 23.5t-28 59.5q0 42 34 74.5t80 32.5q30 0 51 -15q40 -14 40 -64zM376 430q25 0 46.5 30t14.5 59q-30 6 -57.5 -16t-27.5 -49q0 -24 24 -24zM277 10q-39 31 -13 94q-49 -58 -94.5 -93.5t-76.5 -35.5q-36 0 -75 45
q-26 28 -16.5 68t55.5 101q66 86 84.5 114t22.5 44q2 10 21 10q37 0 69 -13t32 -42t-25.5 -68t-62.5 -87t-53 -84q92 32 205 220q14 24 20 30.5t17 6.5q19 0 57 -9q34 -8 34 -34q0 -25 -50 -106q-58 -97 -48 -118q67 16 157 136l3 4q8 11 12 7l3 -3q9 -9 2 -19l-3 -5
q-36 -60 -100 -122t-117 -62q-32 0 -60 21z" />
    <glyph glyph-name="Uhungarumlaut" unicode="&#x170;" horiz-adv-x="610" 
d="M563 760q94 96 144 130q9 6 15 2q22 -12 22 -32q0 -23 -20 -43q-47 -47 -97 -72q-24 -12 -39 -12q-25 0 -32 9q-4 7 7 18zM668 744q12 10 72.5 57.5t82.5 63.5q8 6 15 -4q11 -17 11 -26q0 -12 -14 -30q-36 -41 -71 -60q-23 -13 -38 -14q-24 -3 -56 2q-13 3 -2 11z
M219 -42q-51 0 -85 23q-78 28 -78 131q0 110 150 315q102 142 213 255q11 11 23 4q25 -14 59 -52q28 -30 -5 -68q-106 -127 -176 -223q-153 -212 -146 -308q111 15 282 215q132 152 274 391q8 12 18 2q3 -3 8.5 -11.5t9.5 -12.5q23 -26 1 -69q-103 -203 -226 -360
q-94 -121 -169 -176.5t-153 -55.5z" />
    <glyph glyph-name="uhungarumlaut" unicode="&#x171;" 
d="M283 450q94 96 144 130q9 6 15 2q22 -12 22 -32q0 -23 -20 -43q-47 -47 -97 -72q-24 -12 -39 -12q-25 0 -32 9q-4 7 7 18zM388 434q12 10 72.5 57.5t82.5 63.5q8 6 15 -4q11 -16 11 -26q0 -12 -14 -30q-36 -41 -71 -60q-23 -13 -38 -14q-24 -3 -56 2q-13 3 -2 11zM277 10
q-39 31 -13 94q-49 -58 -94.5 -93.5t-76.5 -35.5q-36 0 -75 45q-26 28 -16.5 68t55.5 101q66 86 84.5 114t22.5 44q2 10 21 10q37 0 69 -13t32 -42t-25.5 -68t-62.5 -87t-53 -84q92 32 205 220q14 24 20 30.5t17 6.5q19 0 57 -9q34 -8 34 -34q0 -25 -50 -106
q-58 -97 -48 -118q67 16 157 136l3 4q8 11 12 7l3 -3q9 -9 2 -19l-3 -5q-36 -60 -100 -122t-117 -62q-32 0 -60 21z" />
    <glyph glyph-name="Uogonek" unicode="&#x172;" horiz-adv-x="610" 
d="M174 -238q-35 0 -64 25t-29 57q0 26 13.5 48t58.5 47q6 3 19.5 10t20.5 11q-35 5 -59 21q-78 28 -78 131q0 110 150 315q102 142 213 255q11 11 23 4q25 -14 59 -52q28 -30 -5 -68q-106 -127 -176 -223q-153 -212 -146 -308q111 15 282 215q132 152 274 391q8 12 18 2
q3 -3 8.5 -11.5t9.5 -12.5q23 -26 1 -69q-103 -203 -226 -360q-73 -94 -133.5 -147.5t-118.5 -73.5q-70 -40 -101 -65.5t-36 -49.5q9 -4 21 -4q45 0 103 24q15 6 15 -1q0 -12 -10 -36q-18 -43 -38 -55q-38 -20 -69 -20z" />
    <glyph glyph-name="uogonek" unicode="&#x173;" 
d="M261 -208q-35 0 -64 25t-29 57q0 26 13.5 48t58.5 47q10 6 30 16l26 13q-7 4 -19 12q-39 31 -13 94q-49 -58 -94.5 -93.5t-76.5 -35.5q-36 0 -75 45q-26 28 -16.5 68t55.5 101q66 86 84.5 114t22.5 44q2 10 21 10q37 0 69 -13t32 -42t-25.5 -68t-62.5 -87t-53 -84
q92 32 205 220q14 24 20 30.5t17 6.5q19 0 57 -9q34 -8 34 -34q0 -25 -50 -106q-58 -97 -48 -118q67 16 157 136l3 4q8 11 12 7l3 -3q9 -9 2 -19l-3 -5q-20 -34 -56 -76t-74 -71q-33 -24 -57 -32q-65 -38 -94 -62t-34 -48q9 -4 21 -4q45 0 103 24q15 6 15 -1q0 -12 -10 -36
q-18 -43 -38 -55q-38 -20 -69 -20z" />
    <glyph glyph-name="Wcircumflex" unicode="&#x174;" horiz-adv-x="740" 
d="M746 666q-13 0 -21 18q-10 21 -17 40q-37 -9 -139 -50q-17 -7 -17 0q0 18 22 62q11 24 35 35q34 16 116 44q10 4 15 -0.5t10 -21.5q23 -72 30 -104q4 -13 -7 -17q-18 -6 -27 -6zM179 8q-26 -33 -35.5 -38.5t-27.5 2.5q-19 11 -36 29q-32 35 -2 114q135 354 241 548
q16 28 29 16q13 -10 51 -35q26 -17 27 -41t-23 -75q-51 -103 -141 -329q143 183 256 306q16 17 29 17q6 0 35 -13q36 -22 23 -59q-28 -80 -79 -268q108 135 240.5 277t211.5 209q8 8 8 -2q0 -2 -2 -7.5t-4.5 -14t-4.5 -14.5q-5 -17 -18.5 -35.5t-58.5 -68.5
q-189 -207 -394 -499q-17 -25 -29 -32t-27 -5q-24 4 -59 17q-38 16 -17 109q29 127 48 188q-168 -202 -241 -296z" />
    <glyph glyph-name="wcircumflex" unicode="&#x175;" horiz-adv-x="520" 
d="M464 376q-13 0 -21 18q-10 21 -17 40q-37 -9 -139 -50q-17 -7 -17 0q0 18 22 62q11 24 35 35q34 16 116 44q10 4 15 -0.5t10 -21.5q23 -72 30 -104q4 -13 -7 -17q-18 -6 -27 -6zM147 24q-34 -49 -70 -49q-19 0 -46 30q-22 23 -23.5 39t14.5 65q9 25 52 117t50 122
q5 22 20 16q6 -2 24 -6.5t32 -10.5t19 -15q15 -22 3 -73q-6 -26 -39 -111q79 72 133 140q9 11 25 8q48 -7 57 -12q14 -7 -3 -44q-31 -66 -47 -119q60 69 135.5 137t130.5 109q8 6 8 0q0 -1 -1.5 -5t-3.5 -10t-3 -10q-5 -17 -47 -60q-92 -95 -200 -241q-36 -49 -70 -49
q-23 0 -60 15q-14 7 -11 39q3 41 19 114q-49 -65 -98 -136z" />
    <glyph glyph-name="Ycircumflex" unicode="&#x176;" horiz-adv-x="475" 
d="M629 706q-13 0 -21 18q-10 21 -17 40q-37 -9 -139 -50q-17 -7 -17 0q0 18 22 62q11 24 35 35q34 16 116 44q10 4 15 -0.5t10 -21.5q23 -72 30 -104q4 -13 -7 -17q-18 -6 -27 -6zM8 -44q-13 0 -4 15q96 154 199 306q31 244 64 383q6 31 17 31q10 0 31.5 -7t32.5 -13
q21 -10 29.5 -32t2.5 -72q-15 -126 -20 -208q202 168 369 325q9 8 12 1q3 -9 3 -25q0 -17 -25 -45q-155 -172 -355 -352q-97 -139 -186 -257q-18 -28 -58 -33q-20 -2 -62.5 -9.5t-49.5 -7.5z" />
    <glyph glyph-name="ycircumflex" unicode="&#x177;" horiz-adv-x="450" 
d="M426 406q-13 0 -21 18q-10 21 -17 40q-37 -9 -139 -50q-17 -7 -17 0q0 18 22 62q11 24 35 35q34 16 116 44q10 4 15 -0.5t10 -21.5q23 -72 30 -104q4 -13 -7 -17q-18 -6 -27 -6zM-108 -320q-61 0 -93 48q-21 25 -14.5 67.5t44.5 76.5q45 40 120 65.5t199 53.5
q31 44 77 120q-49 -53 -90 -81q-37 -24 -61 -24q-33 0 -63 33q-17 16 -7.5 47.5t53.5 102.5q65 104 77 159q3 15 15 15q20 0 44 -10q33 -14 39.5 -38.5t-14.5 -75.5q-8 -20 -29 -63.5t-29 -62.5q76 46 176 183q19 26 25.5 32.5t13.5 6.5q2 0 43 -13q54 -17 30 -60
q-46 -87 -131 -221q123 58 190 148l3 4q8 10 12 7l4 -3q11 -8 1 -20l-3 -4q-52 -70 -108.5 -116.5t-140.5 -79.5q-97 -143 -196 -220t-187 -77zM-103 -168q-44 -36 -42 -75q112 -2 247 172q-138 -41 -205 -97z" />
    <glyph glyph-name="Ydieresis" unicode="&#x178;" horiz-adv-x="475" 
d="M492 820q4 7 19 5q32 -6 46 -14q13 -9 7 -24q-13 -37 -41 -61q-16 -12 -24 -12q-14 0 -36 5q-10 2 -7 12q11 48 36 89zM610 811q5 7 19 7q25 0 40 -7q18 -7 7 -36q-8 -18 -23 -37.5t-26 -26.5q-13 -9 -28 -9q-3 0 -33 9q-8 3 -2 19q11 33 46 81zM8 -44q-13 0 -4 15
q96 154 199 306q31 244 64 383q6 31 17 31q10 0 31.5 -7t32.5 -13q21 -10 29.5 -32t2.5 -72q-15 -126 -20 -208q202 168 369 325q9 8 12 1q3 -9 3 -25q0 -17 -25 -45q-155 -172 -355 -352q-97 -139 -186 -257q-18 -28 -58 -33q-20 -2 -62.5 -9.5t-49.5 -7.5z" />
    <glyph glyph-name="Zacute" unicode="&#x179;" horiz-adv-x="510" 
d="M479 753q117 46 182 93q11 8 20 -2q16 -16 26 -38q18 -38 -27 -55q-22 -9 -68.5 -18t-80.5 -9q-13 0 -25 4q-20 7 -28 12q-4 2 -5 5t0.5 5t5.5 3zM19 -38q-18 0 -27.5 8t-18.5 30q-34 81 29 137q78 69 275.5 228.5t270.5 222.5q-138 -9 -270 -23q-19 -2 -19 4q0 8 15 33
q13 22 31.5 31t52.5 14q60 8 163 16.5t131 8.5q35 0 49 -19q23 -34 23 -65q0 -20 -38 -54q-90 -81 -290 -234.5t-286 -228.5q140 3 319 15q18 1 18 -5q0 -12 -21 -40t-58 -34q-81 -15 -204.5 -30t-144.5 -15z" />
    <glyph glyph-name="zacute" unicode="&#x17a;" horiz-adv-x="345" 
d="M232 438q119 69 183 131q7 7 16 3q13 -5 30 -16.5t23 -19.5q10 -15 -14 -35q-18 -15 -53.5 -35t-63.5 -30q-25 -9 -49 -11q-29 -3 -68 2q-8 1 -8 5t4 6zM47 -26q-36 0 -50 23q-7 11 -13 36t-6 34q0 37 73 87q92 63 176 131q-45 -5 -107 -12q-12 -2 -20.5 -1t-13.5 9
q-10 16 -12 19q-3 3 -2.5 6.5t3.5 4.5q159 46 217 46q18 0 53 -18q24 -12 34.5 -21.5t10.5 -22.5q0 -29 -48 -66q-12 -10 -90.5 -69t-132.5 -103q91 10 168 23q4 1 6.5 -1t0.5 -5l-10 -20q-6 -11 -53 -29q-134 -51 -184 -51z" />
    <glyph glyph-name="Zdotaccent" unicode="&#x17b;" horiz-adv-x="510" 
d="M530 821q9 14 21 14q33 -2 53 -10q19 -8 12 -29q-14 -37 -42 -59q-10 -9 -29 -9q-21 0 -40 6q-10 3 -9 16q3 23 34 71zM19 -38q-18 0 -27.5 8t-18.5 30q-34 81 29 137q78 69 275.5 228.5t270.5 222.5q-138 -9 -270 -23q-19 -2 -19 4q0 8 15 33q13 22 31.5 31t52.5 14
q60 8 163 16.5t131 8.5q35 0 49 -19q23 -34 23 -65q0 -20 -38 -54q-90 -81 -290 -234.5t-286 -228.5q140 3 319 15q18 1 18 -5q0 -12 -21 -40t-58 -34q-81 -15 -204.5 -30t-144.5 -15z" />
    <glyph glyph-name="zdotaccent" unicode="&#x17c;" horiz-adv-x="345" 
d="M287 518q9 14 21 14q33 -2 53 -10q19 -8 12 -29q-14 -37 -42 -59q-11 -9 -29 -9q-20 0 -40 6q-10 3 -9 16q3 23 34 71zM47 -26q-36 0 -50 23q-7 11 -13 36t-6 34q0 37 73 87q92 63 176 131q-45 -5 -107 -12q-12 -2 -20.5 -1t-13.5 9q-10 16 -12 19q-3 3 -2.5 6.5t3.5 4.5
q159 46 217 46q18 0 53 -18q24 -12 34.5 -21.5t10.5 -22.5q0 -29 -48 -66q-12 -10 -90.5 -69t-132.5 -103q91 10 168 23q4 1 6.5 -1t0.5 -5l-10 -20q-6 -11 -53 -29q-134 -51 -184 -51z" />
    <glyph glyph-name="Zcaron" unicode="&#x17d;" horiz-adv-x="510" 
d="M547 724q-11 -4 -16 0.5t-10 20.5q-15 44 -32 104q-4 13 8 18q15 6 24 6q14 0 22 -18q11 -20 18 -40q50 15 138 54q16 7 16 0q0 -17 -12 -44q-8 -21 -20.5 -35t-36.5 -26q-19 -10 -99 -40zM19 -38q-18 0 -27.5 8t-18.5 30q-34 81 29 137q78 69 275.5 228.5t270.5 222.5
q-138 -9 -270 -23q-19 -2 -19 4q0 8 15 33q13 22 31.5 31t52.5 14q60 8 163 16.5t131 8.5q35 0 49 -19q23 -34 23 -65q0 -20 -38 -54q-90 -81 -290 -234.5t-286 -228.5q140 3 319 15q18 1 18 -5q0 -12 -21 -40t-58 -34q-81 -15 -204.5 -30t-144.5 -15z" />
    <glyph glyph-name="zcaron" unicode="&#x17e;" horiz-adv-x="345" 
d="M298 402q-11 -4 -16 0.5t-10 20.5q-15 44 -32 104q-4 13 8 18q15 6 24 6q14 0 22 -18q11 -20 18 -40q50 15 138 54q16 7 16 0q0 -17 -12 -44q-8 -21 -20.5 -35t-36.5 -26q-19 -10 -99 -40zM47 -26q-36 0 -50 23q-7 11 -13 36t-6 34q0 37 73 87q92 63 176 131
q-45 -5 -107 -12q-12 -2 -20.5 -1t-13.5 9q-10 16 -12 19q-3 3 -2.5 6.5t3.5 4.5q159 46 217 46q18 0 53 -18q24 -12 34.5 -21.5t10.5 -22.5q0 -29 -48 -66q-12 -10 -90.5 -69t-132.5 -103q91 10 168 23q4 1 6.5 -1t0.5 -5l-10 -20q-6 -11 -53 -29q-134 -51 -184 -51z" />
    <glyph glyph-name="uni0192" unicode="&#x192;" horiz-adv-x="320" 
d="M-89 -171q-4 -1 -18.5 -5t-22.5 -4q-26 0 -13 31q20 48 71 135.5t102 161.5q34 51 66 96q-33 0 -40 12l-4 12q-3 11 -4 15q-2 16 11 18q4 0 32 1.5t47 2.5q98 142 201 252q61 68 89 68q25 0 42 -10q26 -14 26 -39q0 -20 -15 -69.5t-36 -84.5q-15 -21 -36 -21
q-6 0 -15.5 -0.5t-14.5 -0.5q-11 0 -15 9q-30 -33 -71 -94q31 1 66 5q5 0 4 -5q-4 -14 -11 -28q-5 -13 -31 -18q-23 -5 -66 -12q-199 -298 -279 -386q-33 -37 -65 -42z" />
    <glyph glyph-name="AEacute" unicode="&#x1fc;" horiz-adv-x="865" 
d="M824 757q117 46 182 93q11 8 20 -2q16 -16 26 -38q18 -38 -27 -55q-22 -9 -68.5 -18t-80.5 -9q-13 0 -25 4q-20 7 -28 12q-4 2 -5 5t0.5 5t5.5 3zM438 -58q-18 -1 -31 4.5t-18.5 12t-18.5 23.5l-7 10q-7 9 -9 12t-7 13t-5.5 16.5t0.5 16t6 18.5q35 67 95 157l-216 -36
l-13 -13q-72 -74 -102.5 -118t-44.5 -85q-6 -15 -11 -16h-3q-20 0 -63 41q-32 27 -29 61t43 81q87 104 275.5 269t284.5 230q51 33 71.5 43t37.5 9q7 0 18.5 -5t30 -13.5t32.5 -13.5q12 16 17 24q20 26 38 15q9 -6 25.5 -24.5t27.5 -26.5l1 -1q160 13 290 16q7 0 7 -5
q0 -16 -10 -31q-9 -13 -36 -18q-104 -20 -279 -48q-34 -56 -145 -217q155 20 229 27q11 0 7 -7q-8 -22 -23 -38q-17 -17 -50 -24q-116 -25 -222 -43q-80 -115 -145 -212q160 24 299 40q17 3 17 -6q0 -2 -3.5 -12.5t-5.5 -19.5q-2 -8 -6 -12t-22 -10q-73 -26 -175 -53
t-152 -31zM331 292q32 5 95 14t81 12q36 52 206 284q-172 -114 -382 -310z" />
    <glyph glyph-name="aeacute" unicode="&#x1fd;" horiz-adv-x="615" 
d="M382 448q119 69 183 131q7 7 16 3q13 -5 30 -16.5t23 -19.5q10 -15 -14 -35q-18 -15 -53.5 -35t-63.5 -30q-25 -9 -49 -11q-29 -3 -68 2q-8 1 -8 5t4 6zM392 -34q-59 0 -105 65q-23 33 -24 72q-72 -91 -124 -114q-17 -10 -37.5 -5t-48.5 29q-26 14 -44 44q-40 66 44 166
q79 95 186 129q33 11 62 4q26 -6 53 -33q13 33 20 52q4 10 17 4q24 -12 60 -36q34 14 62 14q25 0 51 -17q23 -16 32 -28q34 -27 34 -59q0 -24 -18.5 -47.5t-66.5 -54.5q-55 -34 -160 -70q-5 -27 0 -39q13 -7 33 -7q58 0 130.5 43t123.5 111l3 4q8 11 12 7l3 -3q8 -8 2 -19
l-3 -5q-52 -87 -137 -147t-160 -60zM517 190q65 47 51 95q-42 -9 -93 -60q-45 -45 -71 -95q74 31 113 60zM126 54q57 25 105 73q62 62 103 150q-76 -26 -135 -85q-75 -75 -73 -138z" />
    <glyph glyph-name="uni0218" unicode="&#x218;" horiz-adv-x="445" 
d="M396 138q0 -51 -46.5 -100.5t-114 -79.5t-129.5 -30q-69 0 -117 65q-38 52 -22 63q2 1 5 1q5 0 18.5 -0.5t20.5 -0.5q116 0 200 37t84 84q0 20 -14.5 35.5t-55.5 40.5q-30 18 -44.5 29.5t-29 33.5t-14.5 48q0 100 179 220q78 53 154 86.5t121 33.5q47 0 84 -54
q32 -45 12 -51q-158 -54 -291 -134q-78 -47 -113.5 -81.5t-35.5 -65.5q0 -29 47 -59q61 -39 80 -62q22 -27 22 -59zM-42 -276q-4 1 -5.5 4.5t2.5 5.5q66 50 119 142q6 10 10 10q7 0 27 -8.5t32 -17.5q13 -10 7 -26q-7 -20 -35 -50t-52 -45q-27 -16 -64 -18q-23 0 -41 3z" />
    <glyph glyph-name="uni0219" unicode="&#x219;" horiz-adv-x="245" 
d="M41 -72q-35 0 -58 25q-16 17 -22 33q-6 14 6 18q71 24 110 55.5t39 57.5q0 17 -32.5 54t-32.5 65q0 62 77 106q40 24 73 24q43 0 71 -44q30 -47 11 -54q-57 -18 -101 -46.5t-44 -53.5q0 -12 15.5 -26t31 -35t15.5 -48q0 -53 -61 -97q-47 -34 -98 -34zM-131 -276
q-4 1 -5.5 4.5t2.5 5.5q66 50 119 142q6 10 10 10q7 0 27 -8.5t32 -17.5q13 -10 7 -26q-7 -20 -35 -50t-52 -45q-27 -16 -64 -18q-23 0 -41 3z" />
    <glyph glyph-name="uni021A" unicode="&#x21a;" horiz-adv-x="540" 
d="M58 -59q-13 0 -6 12q102 170 390 591q-93 -14 -207 -34q-8 -1 -12.5 -0.5t-5 3t1.5 6.5q4 10 10.5 26t11 25.5t9.5 15.5q14 18 30 27t47 14q52 9 185 21q6 9 20 31q7 11 13.5 12.5t19.5 -5.5q21 -11 49 -30q80 5 125 5q30 0 64 -22q33 -22 33 -29q0 -6 -12 -8
q-70 -9 -202 -30q-58 -92 -185.5 -278t-219.5 -306q-28 -36 -65 -36q-28 -1 -57 -6t-37 -5zM-65 -288q-4 1 -5.5 4.5t2.5 5.5q66 50 119 142q6 10 10 10q7 0 27 -8.5t32 -17.5q13 -10 7 -26q-7 -20 -35 -50t-52 -45q-27 -16 -64 -18q-23 0 -41 3z" />
    <glyph glyph-name="uni021B" unicode="&#x21b;" horiz-adv-x="300" 
d="M120 -25q-44 0 -79 34q-34 27 -32 68t48 112q61 93 70 108q-15 0 -26 10q-24 22 -24 40q0 7 19 9q6 1 34 4.5l44 5.5q60 87 109 152q36 48 50 48q6 0 11 -4t12 -13t14 -15q21 -18 24 -35.5t-8 -42t-45 -76.5q58 2 75 2q11 0 11 -7q0 -19 -21 -23q-4 -1 -16.5 -6.5
t-33.5 -10.5l-52 -12q-88 -134 -122 -192t-39 -84q59 4 109.5 37t104.5 105l3 4q8 11 12 7l3 -3q8 -8 2 -19l-3 -5q-35 -57 -114.5 -127.5t-139.5 -70.5zM-92 -226q-4 1 -5.5 4.5t2.5 5.5q66 50 119 142q6 10 10 10q7 0 27 -8.5t32 -17.5q13 -10 7 -26q-7 -20 -35 -50
t-52 -45q-27 -16 -64 -18q-23 0 -41 3z" />
    <glyph glyph-name="uni0237" unicode="&#x237;" horiz-adv-x="250" 
d="M-281 -320q-17 0 -36 20q-13 16 -13 26q0 22 43 64q45 44 132 100q41 36 102 130l110 169q77 119 85 157q3 12 21 12q24 0 48 -8q81 -28 3 -167q-43 -76 -114 -172q138 85 207 178l3 4q8 10 12 7l4 -3q11 -8 1 -20l-3 -4q-110 -146 -309 -268q-111 -124 -235 -203
q-34 -22 -61 -22z" />
    <glyph glyph-name="circumflex" unicode="&#x2c6;" horiz-adv-x="333" 
d="M426 406q-13 0 -21 18q-10 21 -17 40q-37 -9 -139 -50q-17 -7 -17 0q0 18 22 62q11 24 35 35q34 16 116 44q10 4 15 -0.5t10 -21.5q23 -72 30 -104q4 -13 -7 -17q-18 -6 -27 -6z" />
    <glyph glyph-name="caron" unicode="&#x2c7;" horiz-adv-x="333" 
d="M337 391q-11 -4 -16 0.5t-10 20.5q-15 44 -32 104q-4 13 8 18q15 6 24 6q14 0 22 -18q11 -20 18 -40q50 15 138 54q16 7 16 0q0 -17 -12 -44q-8 -21 -20.5 -35t-36.5 -26q-19 -10 -99 -40z" />
    <glyph glyph-name="breve" unicode="&#x2d8;" horiz-adv-x="333" 
d="M500 498q-18 -36 -46 -55q-45 -31 -91 -31q-51 0 -74 39q-22 37 -13 78q2 7 5 10t13 8q10 4 11 -8q5 -53 53 -53q56 0 146 65q5 4 9 4.5t5.5 -2t0.5 -6.5q-4 -20 -19 -49z" />
    <glyph glyph-name="dotaccent" unicode="&#x2d9;" horiz-adv-x="333" 
d="M350 518q9 14 21 14q33 -2 53 -10q19 -8 12 -29q-14 -37 -42 -59q-10 -9 -29 -9q-21 0 -40 6q-10 3 -9 16q3 23 34 71z" />
    <glyph glyph-name="ring" unicode="&#x2da;" horiz-adv-x="333" 
d="M490 509q0 -43 -33.5 -77t-77.5 -34q-38 0 -66 23.5t-28 59.5q0 42 34 74.5t80 32.5q30 0 51 -15q40 -14 40 -64zM386 450q25 0 46.5 30t14.5 59q-30 6 -57.5 -16t-27.5 -49q0 -24 24 -24z" />
    <glyph glyph-name="ogonek" unicode="&#x2db;" horiz-adv-x="333" 
d="M-36 -238q-35 0 -64 25t-29 57q0 26 13.5 48t58.5 47q36 19 124 61h60v-4q-98 -53 -138.5 -83.5t-46.5 -58.5q9 -4 21 -4q45 0 103 24q15 6 15 -1q0 -12 -10 -36q-18 -43 -38 -55q-38 -20 -69 -20z" />
    <glyph glyph-name="tilde" unicode="&#x2dc;" horiz-adv-x="333" 
d="M402 404q-30 0 -47 35q-7 15 -11.5 19.5t-11.5 4.5q-10 0 -40 -9t-49 -18q-5 -2 -9 -2.5t-5.5 1t-0.5 4.5q8 34 22 46q62 54 106 54q24 0 32 -25t16 -29q56 11 95 50q5 5 8.5 3.5t1.5 -10.5q-12 -53 -17 -63q-9 -18 -36 -41q-25 -20 -54 -20z" />
    <glyph glyph-name="hungarumlaut" unicode="&#x2dd;" horiz-adv-x="333" 
d="M223 450q94 96 144 130q9 6 15 2q22 -12 22 -32q0 -23 -20 -43q-47 -47 -97 -72q-24 -12 -39 -12q-25 0 -32 9q-4 7 7 18zM328 434q12 10 72.5 57.5t82.5 63.5q8 6 15 -4q11 -16 11 -26q0 -12 -14 -30q-36 -41 -71 -60q-23 -13 -38 -14q-24 -3 -56 2q-13 3 -2 11z" />
    <glyph glyph-name="Wgrave" unicode="&#x1e80;" horiz-adv-x="740" 
d="M541 729q-16 7 -8 26q8 17 25 38q15 18 28 18.5t29 -13.5q19 -15 47 -46q22 -30 30 -51q10 -32 10 -47q0 -8 -4.5 -10t-10.5 2q-70 53 -146 83zM179 8q-26 -33 -35.5 -38.5t-27.5 2.5q-19 11 -36 29q-32 35 -2 114q135 354 241 548q16 28 29 16q13 -10 51 -35
q26 -17 27 -41t-23 -75q-51 -103 -141 -329q143 183 256 306q16 17 29 17q6 0 35 -13q36 -22 23 -59q-28 -80 -79 -268q108 135 240.5 277t211.5 209q8 8 8 -2q0 -2 -2 -7.5t-4.5 -14t-4.5 -14.5q-5 -17 -18.5 -35.5t-58.5 -68.5q-189 -207 -394 -499q-17 -25 -29 -32
t-27 -5q-24 4 -59 17q-38 16 -17 109q29 127 48 188q-168 -202 -241 -296z" />
    <glyph glyph-name="wgrave" unicode="&#x1e81;" horiz-adv-x="520" 
d="M333 484q-25 32 -9 50q29 29 64 40q7 2 13 -10q18 -35 26 -79q7 -33 3 -55q-5 -28 -13 -48q-2 -5 -5 -7t-6 -1t-5 4q-25 45 -68 106zM147 24q-34 -49 -70 -49q-19 0 -46 30q-22 23 -23.5 39t14.5 65q9 25 52 117t50 122q5 22 20 16q6 -2 24 -6.5t32 -10.5t19 -15
q15 -22 3 -73q-6 -26 -39 -111q79 72 133 140q9 11 25 8q48 -7 57 -12q14 -7 -3 -44q-31 -66 -47 -119q60 69 135.5 137t130.5 109q8 6 8 0q0 -1 -1.5 -5t-3.5 -10t-3 -10q-5 -17 -47 -60q-92 -95 -200 -241q-36 -49 -70 -49q-23 0 -60 15q-14 7 -11 39q3 41 19 114
q-49 -65 -98 -136z" />
    <glyph glyph-name="Wacute" unicode="&#x1e82;" horiz-adv-x="740" 
d="M601 692q117 46 182 93q11 8 20 -2q16 -16 26 -38q18 -38 -27 -55q-22 -9 -68.5 -18t-80.5 -9q-13 0 -25 4q-20 7 -28 12q-4 2 -5 5t0.5 5t5.5 3zM179 8q-26 -33 -35.5 -38.5t-27.5 2.5q-19 11 -36 29q-32 35 -2 114q135 354 241 548q16 28 29 16q13 -10 51 -35
q26 -17 27 -41t-23 -75q-51 -103 -141 -329q143 183 256 306q16 17 29 17q6 0 35 -13q36 -22 23 -59q-28 -80 -79 -268q108 135 240.5 277t211.5 209q8 8 8 -2q0 -2 -2 -7.5t-4.5 -14t-4.5 -14.5q-5 -17 -18.5 -35.5t-58.5 -68.5q-189 -207 -394 -499q-17 -25 -29 -32
t-27 -5q-24 4 -59 17q-38 16 -17 109q29 127 48 188q-168 -202 -241 -296z" />
    <glyph glyph-name="wacute" unicode="&#x1e83;" horiz-adv-x="520" 
d="M332 408q119 69 183 131q7 7 16 3q13 -5 30 -16.5t23 -19.5q10 -15 -14 -35q-18 -15 -53.5 -35t-63.5 -30q-25 -9 -49 -11q-29 -3 -68 2q-8 1 -8 5t4 6zM147 24q-34 -49 -70 -49q-19 0 -46 30q-22 23 -23.5 39t14.5 65q9 25 52 117t50 122q5 22 20 16q6 -2 24 -6.5
t32 -10.5t19 -15q15 -22 3 -73q-6 -26 -39 -111q79 72 133 140q9 11 25 8q48 -7 57 -12q14 -7 -3 -44q-31 -66 -47 -119q60 69 135.5 137t130.5 109q8 6 8 0q0 -1 -1.5 -5t-3.5 -10t-3 -10q-5 -17 -47 -60q-92 -95 -200 -241q-36 -49 -70 -49q-23 0 -60 15q-14 7 -11 39
q3 41 19 114q-49 -65 -98 -136z" />
    <glyph glyph-name="Wdieresis" unicode="&#x1e84;" horiz-adv-x="740" 
d="M620 797q4 7 19 5q32 -6 46 -14q13 -9 7 -24q-13 -37 -41 -61q-16 -12 -24 -12q-14 0 -36 5q-10 2 -7 12q11 48 36 89zM738 788q5 7 19 7q25 0 40 -7q18 -7 7 -36q-8 -18 -23 -37.5t-26 -26.5q-13 -9 -28 -9q-3 0 -33 9q-8 3 -2 19q11 33 46 81zM179 8
q-26 -33 -35.5 -38.5t-27.5 2.5q-19 11 -36 29q-32 35 -2 114q135 354 241 548q16 28 29 16q13 -10 51 -35q26 -17 27 -41t-23 -75q-51 -103 -141 -329q143 183 256 306q16 17 29 17q6 0 35 -13q36 -22 23 -59q-28 -80 -79 -268q108 135 240.5 277t211.5 209q8 8 8 -2
q0 -2 -2 -7.5t-4.5 -14t-4.5 -14.5q-5 -17 -18.5 -35.5t-58.5 -68.5q-189 -207 -394 -499q-17 -25 -29 -32t-27 -5q-24 4 -59 17q-38 16 -17 109q29 127 48 188q-168 -202 -241 -296z" />
    <glyph glyph-name="wdieresis" unicode="&#x1e85;" horiz-adv-x="520" 
d="M345 512q4 7 19 5q32 -6 46 -14q13 -9 7 -24q-13 -37 -41 -61q-16 -12 -24 -12q-14 0 -36 5q-10 2 -7 12q11 48 36 89zM463 503q5 7 19 7q25 0 40 -7q18 -7 7 -36q-8 -18 -23 -37.5t-26 -26.5q-14 -9 -28 -9q-3 0 -33 9q-8 3 -2 19q11 33 46 81zM147 24q-34 -49 -70 -49
q-19 0 -46 30q-22 23 -23.5 39t14.5 65q9 25 52 117t50 122q5 22 20 16q6 -2 24 -6.5t32 -10.5t19 -15q15 -22 3 -73q-6 -26 -39 -111q79 72 133 140q9 11 25 8q48 -7 57 -12q14 -7 -3 -44q-31 -66 -47 -119q60 69 135.5 137t130.5 109q8 6 8 0q0 -1 -1.5 -5t-3.5 -10
t-3 -10q-5 -17 -47 -60q-92 -95 -200 -241q-36 -49 -70 -49q-23 0 -60 15q-14 7 -11 39q3 41 19 114q-49 -65 -98 -136z" />
    <glyph glyph-name="uni1EBC" unicode="&#x1ebc;" horiz-adv-x="515" 
d="M668 724q-30 0 -47 35q-7 15 -11.5 19.5t-11.5 4.5q-10 0 -40 -9t-49 -18q-5 -2 -9 -2.5t-5.5 1t-0.5 4.5q8 34 22 46q62 54 106 54q24 0 32 -25t16 -29q56 11 95 50q5 5 8.5 3.5t1.5 -10.5q-12 -53 -17 -63q-9 -18 -36 -41q-25 -20 -54 -20zM70 -58q-15 0 -26.5 6
t-16.5 11.5t-17 22.5q-2 3 -9 12t-9 12t-6 10.5t-4.5 11.5t-1.5 11t1.5 14t6.5 15q65 126 315 466l-9 -1q-17 -1 -30 10q-21 23 -29 61q-1 11 10 12q61 10 131 18l35 49q20 26 38 15q9 -6 26.5 -25t27.5 -27q140 13 300 16q7 0 7 -5q0 -16 -10 -31q-9 -13 -36 -18
q-132 -25 -289 -49q-56 -87 -140 -209q148 14 234 20q11 0 7 -7q-7 -21 -23 -37t-50 -23q-93 -19 -228 -40l-149 -217q221 30 309 40q17 3 17 -6q0 -2 -3.5 -12.5t-5.5 -19.5q-2 -8 -6 -12t-22 -10q-136 -48 -281 -76q-42 -8 -64 -8z" />
    <glyph glyph-name="uni1EBD" unicode="&#x1ebd;" horiz-adv-x="370" 
d="M356 404q-30 0 -47 35q-7 15 -11.5 19.5t-11.5 4.5q-10 0 -40 -9t-49 -18q-5 -2 -9 -2.5t-5.5 1t-0.5 4.5q8 34 22 46q62 54 106 54q24 0 32 -25t16 -29q56 11 95 50q5 5 8.5 3.5t1.5 -10.5q-12 -53 -17 -63q-9 -18 -36 -41q-25 -20 -54 -20zM147 -34q-30 0 -55.5 14
t-56.5 51q-68 79 25 201q40 52 100 88.5t108 36.5q26 0 51 -17q23 -16 32 -28q34 -27 34 -59q0 -24 -18.5 -47.5t-66.5 -54.5q-55 -34 -160 -70q-5 -27 0 -39q13 -7 33 -7q58 0 130.5 43t123.5 111l3 4q8 11 12 7l3 -3q8 -8 2 -19l-3 -5q-52 -87 -137 -147t-160 -60z
M272 190q65 47 51 95q-40 -9 -88.5 -55.5t-75.5 -99.5q74 31 113 60z" />
    <glyph glyph-name="Ygrave" unicode="&#x1ef2;" horiz-adv-x="475" 
d="M401 779q-16 7 -8 26q8 17 25 38q15 18 28 18.5t29 -13.5q19 -15 47 -46q22 -30 30 -51q10 -32 10 -47q0 -8 -4.5 -10t-10.5 2q-70 53 -146 83zM8 -44q-13 0 -4 15q96 154 199 306q31 244 64 383q6 31 17 31q10 0 31.5 -7t32.5 -13q21 -10 29.5 -32t2.5 -72
q-15 -126 -20 -208q202 168 369 325q9 8 12 1q3 -9 3 -25q0 -17 -25 -45q-155 -172 -355 -352q-97 -139 -186 -257q-18 -28 -58 -33q-20 -2 -62.5 -9.5t-49.5 -7.5z" />
    <glyph glyph-name="ygrave" unicode="&#x1ef3;" horiz-adv-x="450" 
d="M263 504q-25 32 -9 50q29 29 64 40q7 2 13 -10q18 -35 26 -79q7 -33 3 -55q-5 -28 -13 -48q-2 -5 -5 -7t-6 -1t-5 4q-25 45 -68 106zM-108 -320q-61 0 -93 48q-21 25 -14.5 67.5t44.5 76.5q45 40 120 65.5t199 53.5q31 44 77 120q-49 -53 -90 -81q-37 -24 -61 -24
q-33 0 -63 33q-17 16 -7.5 47.5t53.5 102.5q65 104 77 159q3 15 15 15q20 0 44 -10q33 -14 39.5 -38.5t-14.5 -75.5q-8 -20 -29 -63.5t-29 -62.5q76 46 176 183q19 26 25.5 32.5t13.5 6.5q2 0 43 -13q54 -17 30 -60q-46 -87 -131 -221q123 58 190 148l3 4q8 10 12 7l4 -3
q11 -8 1 -20l-3 -4q-52 -70 -108.5 -116.5t-140.5 -79.5q-97 -143 -196 -220t-187 -77zM-103 -168q-44 -36 -42 -75q112 -2 247 172q-138 -41 -205 -97z" />
    <glyph glyph-name="uni1EF8" unicode="&#x1ef8;" horiz-adv-x="475" 
d="M588 670q-30 0 -47 35q-7 15 -11.5 19.5t-11.5 4.5q-10 0 -40 -9t-49 -18q-5 -2 -9 -2.5t-5.5 1t-0.5 4.5q8 34 22 46q62 54 106 54q24 0 32 -25t16 -29q56 11 95 50q5 5 8.5 3.5t1.5 -10.5q-12 -53 -17 -63q-9 -18 -36 -41q-25 -20 -54 -20zM8 -44q-13 0 -4 15
q96 154 199 306q31 244 64 383q6 31 17 31q10 0 31.5 -7t32.5 -13q21 -10 29.5 -32t2.5 -72q-15 -126 -20 -208q202 168 369 325q9 8 12 1q3 -9 3 -25q0 -17 -25 -45q-155 -172 -355 -352q-97 -139 -186 -257q-18 -28 -58 -33q-20 -2 -62.5 -9.5t-49.5 -7.5z" />
    <glyph glyph-name="uni1EF9" unicode="&#x1ef9;" horiz-adv-x="450" 
d="M402 404q-30 0 -47 35q-7 15 -11.5 19.5t-11.5 4.5q-10 0 -40 -9t-49 -18q-5 -2 -9 -2.5t-5.5 1t-0.5 4.5q8 34 22 46q62 54 106 54q24 0 32 -25t16 -29q56 11 95 50q5 5 8.5 3.5t1.5 -10.5q-12 -53 -17 -63q-9 -18 -36 -41q-25 -20 -54 -20zM-108 -320q-61 0 -93 48
q-21 25 -14.5 67.5t44.5 76.5q45 40 120 65.5t199 53.5q31 44 77 120q-49 -53 -90 -81q-37 -24 -61 -24q-33 0 -63 33q-17 16 -7.5 47.5t53.5 102.5q65 104 77 159q3 15 15 15q20 0 44 -10q33 -14 39.5 -38.5t-14.5 -75.5q-8 -20 -29 -63.5t-29 -62.5q76 46 176 183
q19 26 25.5 32.5t13.5 6.5q2 0 43 -13q54 -17 30 -60q-46 -87 -131 -221q123 58 190 148l3 4q8 10 12 7l4 -3q11 -8 1 -20l-3 -4q-52 -70 -108.5 -116.5t-140.5 -79.5q-97 -143 -196 -220t-187 -77zM-103 -168q-44 -36 -42 -75q112 -2 247 172q-138 -41 -205 -97z" />
    <glyph glyph-name="uni2009" unicode="&#x2009;" horiz-adv-x="30" 
 />
    <glyph glyph-name="endash" unicode="&#x2013;" horiz-adv-x="481" 
d="M32 209q0 13 19 14q176 6 430 28q9 0 9 -6q0 -17 -14 -43q-7 -14 -19 -19.5t-46 -9.5q-276 -34 -329 -34q-20 0 -28 5t-13 19q-9 25 -9 46z" />
    <glyph glyph-name="emdash" unicode="&#x2014;" horiz-adv-x="688" 
d="M42 219q57 3 210 10t272 13t169 10q11 0 11 -6q0 -3 -6.5 -10.5t-16 -19t-15.5 -20.5q-10 -17 -34 -20q-83 -12 -303.5 -24.5t-254.5 -8.5q-26 2 -31 20q-9 36 -9 47q0 9 8 9z" />
    <glyph glyph-name="quoteleft" unicode="&#x2018;" horiz-adv-x="200" 
d="M362 652q31 4 47 3q10 -1 13.5 -5.5t-1.5 -9.5q-58 -58 -80.5 -89t-30.5 -60q-6 -23 -19 -24q-9 -1 -23 -4t-23 -4.5t-14 -1.5q-22 1 -20 35q5 59 66 111q51 44 85 49z" />
    <glyph glyph-name="quoteright" unicode="&#x2019;" horiz-adv-x="207" 
d="M236 456q-5 -1 -17 -3.5t-21 -4.5t-14 -2q-10 0 -13 6.5t4 12.5q97 97 119 163q8 25 16 25q5 0 52 -17q34 -13 13 -63q-24 -53 -87 -96q-25 -17 -52 -21z" />
    <glyph glyph-name="quotesinglbase" unicode="&#x201a;" horiz-adv-x="220" 
d="M-41 -76q-5 -1 -17 -3.5t-21 -4.5t-14 -2q-10 0 -13 6.5t4 12.5q97 97 119 163q8 25 16 25q5 0 52 -17q34 -13 13 -63q-24 -53 -87 -96q-25 -17 -52 -21z" />
    <glyph glyph-name="quotedblleft" unicode="&#x201c;" horiz-adv-x="343" 
d="M375 655q14 0 38 -6q13 -4 -2 -19l-6 -6q-57 -52 -83 -118q-9 -23 -15.5 -30.5t-15.5 -10.5q-26 -7 -57 -7q-23 0 -23 26q0 32 39.5 84t84.5 76q20 11 40 11zM551 654q11 0 15 -5.5t-3 -12.5q-89 -89 -104 -138q-8 -26 -20 -30q-39 -13 -61 -13q-9 0 -15.5 11t-6.5 24
q0 61 79 125q23 19 45 27q34 12 71 12z" />
    <glyph glyph-name="quotedblright" unicode="&#x201d;" horiz-adv-x="345" 
d="M192 447q-15 0 -20.5 6.5t2.5 13.5q88 94 118 161q7 14 10.5 17.5t9.5 3.5q18 0 49 -12q27 -12 20 -42q-10 -46 -80 -110q-23 -21 -49 -29q-29 -9 -60 -9zM320 438q-7 0 -9.5 6t3.5 12q36 32 71.5 84.5t44.5 82.5q5 15 8 20t9 5t21 -4t25 -6q34 -7 27 -42
q-12 -49 -68 -105q-22 -22 -36.5 -31.5t-33.5 -13.5q-26 -8 -62 -8z" />
    <glyph glyph-name="quotedblbase" unicode="&#x201e;" horiz-adv-x="365" 
d="M-82 -83q-15 0 -20.5 6.5t2.5 13.5q88 94 118 161q7 14 10.5 17.5t9.5 3.5q18 0 49 -12q27 -12 20 -42q-10 -46 -80 -110q-23 -21 -49 -29q-29 -9 -60 -9zM46 -92q-7 0 -9.5 6t3.5 12q36 32 71.5 84.5t44.5 82.5q5 15 8 20t9 5t21 -4t25 -6q34 -7 27 -42
q-12 -49 -68 -105q-22 -22 -36.5 -31.5t-33.5 -13.5q-26 -8 -62 -8z" />
    <glyph glyph-name="dagger" unicode="&#x2020;" horiz-adv-x="325" 
d="M142 229q-8 0 0 14q59 97 136 210q-4 0 -12 -0.5t-12 -1.5q-34 -2 -44 14q-14 19 -14 38q0 5 9 6q51 9 125 20q35 49 86 117q13 20 24 1q15 -21 24 -44q9 -27 -13 -59q16 2 17 2q30 3 36 -5q16 -19 19 -32q4 -14 -1 -20t-22 -9q-14 -3 -102 -14q-86 -125 -140 -190
q-26 -32 -52 -39q-32 -8 -64 -8z" />
    <glyph glyph-name="daggerdbl" unicode="&#x2021;" horiz-adv-x="325" 
d="M105 174q-9 0 -1 14q34 55 77 122q-49 -6 -62 15q-14 23 -14 39q0 6 7 8q15 4 122 18q8 12 46 68q-4 0 -12.5 -1t-12.5 -1q-34 -2 -44 14q-14 19 -14 38q0 4 9 6q46 9 128 20q20 28 82 112q12 18 24 1q15 -21 24 -44q8 -26 -10 -53q4 0 9 0.5t6 0.5q30 3 36 -5
q16 -19 19 -32q4 -14 -1 -20t-22 -9q-35 -6 -99 -14q-5 -7 -21 -31t-25 -37q53 5 76 5q6 0 4 -6q-5 -18 -27 -45q-11 -13 -51 -21q-42 -8 -57 -10q-49 -68 -81 -105q-26 -32 -52 -39q-32 -8 -63 -8z" />
    <glyph glyph-name="bullet" unicode="&#x2022;" horiz-adv-x="395" 
d="M363 266q-11 -31 -39.5 -70t-45.5 -54q-27 -23 -61 -23q-18 0 -36.5 7t-39.5 19t-32 16q-16 6 -16 29q0 44 46 109q37 47 58.5 62.5t55.5 15.5q33 0 90 -26q42 -20 20 -85z" />
    <glyph glyph-name="ellipsis" unicode="&#x2026;" horiz-adv-x="595" 
d="M158 -4q-13 5 -3 34q7 20 32 79q10 25 38 23q30 -2 58 -11q18 -7 7 -37q-15 -39 -37 -70q-18 -27 -44 -26q-37 2 -51 8zM14 -20q-12 0 -38 8q-19 6 -9 24q30 61 57 104q8 14 23 11q34 -9 45 -14q25 -12 14 -50q-13 -41 -35 -63q-20 -20 -57 -20zM418 -10q-15 -16 -47 -16
q-33 0 -53 9q-15 8 1 37q36 63 52 87q12 19 23 19q3 0 8.5 -2t17 -6t24.5 -8q39 -10 12 -62q-18 -38 -38 -58z" />
    <glyph glyph-name="perthousand" unicode="&#x2030;" horiz-adv-x="885" 
d="M292 368q-39 0 -73 23q-31 20 -35 60.5t27 89.5q22 33 63.5 58.5t85.5 25.5q27 0 41 -26q25 1 38.5 -17.5t13.5 -48.5q0 -43 -28 -87q-54 -78 -133 -78zM63 -12q-51 -13 -68 -13q-14 0 -2 12q390 377 642 596q49 42 60 42q6 0 12 -21q11 -41 -38 -87q-293 -276 -511 -469
q-57 -48 -95 -60zM293 505q-23 -33 -20 -69q48 -4 86 40q19 21 26 44.5t1 37.5q-56 1 -93 -53zM698 -5q-39 0 -73 23q-31 20 -35 60.5t27 89.5q22 33 63.5 58.5t85.5 25.5q35 0 54 -28q39 -8 39 -64q0 -43 -28 -87q-54 -78 -133 -78zM403 -25q-42 0 -71 23q-29 24 -34 62.5
t23 87.5q21 31 61 56t83 25q31 0 53 -18q44 -13 44 -72q0 -43 -29 -86q-24 -35 -58.5 -56.5t-71.5 -21.5zM699 132q-18 -26 -20 -60q52 -11 86 31q19 23 27 47.5t1 34.5q-56 3 -94 -53zM403 111q-25 -34 -17 -69q47 -3 82 38q22 25 27 55t-8 38q-43 -5 -84 -62z" />
    <glyph glyph-name="guilsinglleft" unicode="&#x2039;" horiz-adv-x="220" 
d="M56 -3q-3 0 -9 10q-17 50 -30 135q-9 44 19 64q119 86 196 138q34 23 45 23q8 0 8 -9q0 -14 -7.5 -32t-16.5 -26q-70 -70 -139 -127q5 -32 15 -66q12 -46 -20 -69q-52 -41 -61 -41z" />
    <glyph glyph-name="guilsinglright" unicode="&#x203a;" horiz-adv-x="220" 
d="M-50 -10q-8 0 -8 9q0 14 7.5 32t16.5 26q70 70 139 127q-5 32 -15 66q-12 46 20 69q52 41 61 41q3 0 9 -10q17 -50 30 -135q9 -44 -19 -64q-119 -86 -196 -138q-35 -23 -45 -23z" />
    <glyph glyph-name="fraction" unicode="&#x2044;" horiz-adv-x="169" 
d="M-155 -12q-51 -13 -68 -13q-14 0 -2 12q390 377 642 596q49 42 60 42q6 0 12 -21q11 -41 -38 -87q-293 -276 -511 -469q-57 -48 -95 -60z" />
    <glyph glyph-name="Euro" unicode="&#x20ac;" horiz-adv-x="580" 
d="M248 -37q-53 0 -84 43q-56 39 -59 114v20h-5q-36 -2 -45 12q-6 8 -11 31q-3 18 13 18q2 0 64 7q7 20 25 55q-6 -1 -16 -1q-18 -1 -26 3t-10 16v29q-1 6 4 9t19 4q2 0 73 7q83 109 215 193q150 102 246 102q40 0 78 -38q44 -46 19 -55q-192 -60 -341 -176q89 12 137 20
q8 1 8 -4q-2 -17 -14 -36q-8 -13 -36 -20q-59 -14 -177 -32q-28 -29 -50 -56q142 19 188 26q4 2 4 -4v-2q-7 -18 -12 -31q-6 -13 -36 -23q-85 -23 -190 -39q-22 -46 -25 -85q9 -4 26 -4q58 0 145 35.5t151 85.5q12 9 12 -1q0 -16 -3 -26q-6 -27 -23 -45q-62 -67 -137 -109.5
t-127 -42.5z" />
    <glyph glyph-name="trademark" unicode="&#x2122;" horiz-adv-x="600" 
d="M623 369q-15 0 -1 30q33 70 89 170q-63 -63 -102 -120q-12 -19 -22 -24t-25 0l-30 9q-7 4 -3 24q17 66 34 120q-16 -21 -53.5 -77t-57.5 -85q-18 -25 -34 -36q-18 -10 -45 -10q-12 0 -3 19q3 5 8 14q59 100 179 248q15 19 25 19q30 0 58 -8q33 -11 23 -38q-1 -3 -6.5 -16
t-11.5 -28.5t-11 -30.5q46 56 92 99q14 14 27 14q15 0 57 -10q17 -4 20.5 -16.5t-8.5 -30.5q-102 -160 -119 -196q-15 -29 -46 -35q-20 -5 -34 -5zM176 353q-12 -2 -15 3.5t5 19.5q28 43 162 220q-40 -4 -72 -4q-21 0 -21 7t19 33q11 15 36 19q96 12 221 12q25 0 25 -5
q0 -8 -19 -25q-12 -10 -56 -19q-24 -4 -35 -5q-105 -160 -125 -185q-38 -46 -76 -61q-5 -2 -49 -10z" />
    <glyph glyph-name="minus" unicode="&#x2212;" horiz-adv-x="470" 
d="M64 268q186 5 405 22q10 -1 13 -12q3 -17 11 -41q6 -19 -10.5 -27t-54.5 -13q-54 -8 -180 -16t-153 -4q-17 2 -30 30q-12 23 -13 48q-1 13 12 13z" />
    <glyph glyph-name="zero.01" horiz-adv-x="485" 
d="M196 -25q-51 0 -103 48q-30 28 -41 50.5t-11 60.5q0 85 67 179q64 84 145 135.5t158 51.5q16 0 26 -9.5t26 -33.5q29 -11 46 -41t17 -72q0 -77 -47 -163t-125 -146t-158 -60zM238 249q-42 -55 -50 -104.5t17 -77.5q77 13 141 70t95 119.5t31 110.5q0 25 -12 46
q-127 -40 -222 -164z" />
    <glyph glyph-name="one.01" horiz-adv-x="320" 
d="M22 -16q-20 0 -26 4t0 14q47 73 111.5 175.5t101.5 158.5q-62 -42 -97 -70q-12 -9 -17 3q-6 13 -2 23.5t22 27.5q111 104 172 153q29 24 34 24q20 0 53 -34q22 -23 24 -43.5t-8 -43t-43 -77.5q-42 -69 -163 -246q-33 -50 -103 -63q-36 -6 -59 -6z" />
    <glyph glyph-name="two.01" horiz-adv-x="410" 
d="M32 -8q-38 0 -53.5 5.5t-15.5 22.5q0 28 26 70q33 51 94.5 94.5t115 67.5t94 50.5t40.5 49.5q0 30 -51 30q-66 0 -149 -36q-9 -4 -12 -0.5t2 11.5q24 48 44 71.5t58 40.5q50 21 115 21q69 0 112.5 -35t43.5 -83q0 -56 -64 -97q-37 -24 -167 -71.5t-177 -91.5
q164 10 268 10q25 0 25 -10q0 -6 -33 -53q-22 -32 -45.5 -43.5t-63.5 -14.5q-130 -9 -207 -9z" />
    <glyph glyph-name="three.01" horiz-adv-x="410" 
d="M-14 -180q-42 0 -59.5 15.5t-28.5 50.5q-18 60 6 60q2 0 21 -2.5t33 -2.5q122 0 201.5 39.5t106.5 91.5q-18 25 -61.5 43.5t-105.5 21.5q-10 0 -10 9q0 5 4 15t6 18q11 37 71 49q146 30 161 92q6 27 -10.5 45t-54.5 18q-64 0 -147 -57q-6 -4 -11.5 -4t-8.5 4t-1 9
q15 35 33 63q26 41 61 58q61 29 124 29q82 0 120 -35t38 -82q0 -54 -60 -102t-158 -64q34 -29 52 -59q28 -45 23.5 -90t-28 -82.5t-62.5 -67.5q-48 -37 -123 -60t-132 -23z" />
    <glyph glyph-name="four.01" horiz-adv-x="515" 
d="M80 -198q-19 0 -9 24q43 78 107 184q-79 -3 -135 -3q-39 0 -46 26q-8 28 -8 47q0 56 58 104q75 61 200 158t148 116q48 37 66 37q27 0 67 -26q74 -46 36 -108q-48 -78 -150 -233l55 3q18 1 18 -6q0 -4 -4.5 -12.5t-12.5 -22.5t-13 -26q-16 -37 -68 -41q-6 0 -22.5 -1.5
t-26.5 -2.5q-80 -117 -116 -164q-30 -36 -58 -41q-12 -2 -32 -5t-34 -5t-20 -2zM92 123q61 -2 155 0q102 162 197 299q-147 -103 -352 -299z" />
    <glyph glyph-name="five.01" horiz-adv-x="410" 
d="M-12 -170q-31 0 -49.5 8t-33.5 35q-13 24 -13.5 43t12.5 21q144 16 255 68.5t129 116.5q-29 12 -79 12t-104 -12q-22 -5 -34 1q-18 12 -26 22q-6 8 -3.5 22.5t11.5 27.5q84 126 124 182q-11 28 -11 55q0 11 5.5 15t21.5 4q23 0 37 1q27 37 36 37q10 0 19 -8
q19 -16 19 -26q151 9 233 18q20 2 20 -7t-20 -45q-22 -36 -40.5 -48.5t-50.5 -17.5q-139 -21 -214 -21q-31 -42 -71 -93q83 -1 117.5 -18.5t49.5 -57.5q20 -50 20 -95q0 -59 -58.5 -116t-142 -90.5t-159.5 -33.5z" />
    <glyph glyph-name="six.01" 
d="M215 -30q-41 0 -70 21q-29 10 -54 42q-43 57 -41 129.5t44 137.5q134 207 396 309q40 16 67 16q11 0 19.5 -3t20.5 -8.5t24 -9.5q31 -10 -4 -27q-170 -77 -276 -188q52 -12 93 -56q50 -55 50 -109q0 -83 -80 -168.5t-189 -85.5zM233 257q-44 -62 -59.5 -115t-4.5 -85
q51 4 101 35.5t84 84.5q49 75 36 127q-46 26 -125 -3q-29 -40 -32 -44z" />
    <glyph glyph-name="seven.01" horiz-adv-x="415" 
d="M-47 -199q-7 0 -9.5 9t-1.5 34q0 36 61 114q160 203 342 391q-150 -9 -223 -10q-14 0 -14 7q0 6 3.5 13.5t8.5 14t16.5 21.5t21.5 28q26 36 81 39q34 2 121.5 7t132.5 8q21 1 24 -11q6 -24 6 -44q0 -21 -32 -53q-284 -277 -488 -520q-39 -48 -50 -48z" />
    <glyph glyph-name="eight.01" horiz-adv-x="460" 
d="M182 -35q-42 0 -68 13q-53 15 -81 54t-28 84q0 60 47 107.5t155 88.5q-32 45 -32 89q0 79 72 149.5t161 70.5q28 0 47 -11q55 -8 87.5 -40t32.5 -73q0 -57 -43.5 -98.5t-143.5 -85.5q52 -73 52 -124q0 -80 -76 -152t-182 -72zM317 457q0 -40 38 -98q116 57 116 137
q0 42 -28 70q-43 12 -84.5 -22.5t-41.5 -86.5zM179 31q52 0 94.5 37t42.5 86q0 8 -3.5 18t-7 17.5t-12.5 19t-14.5 18t-18 20.5t-17.5 20q-122 -59 -122 -158q0 -51 37 -76q12 -2 21 -2z" />
    <glyph glyph-name="nine.01" 
d="M-28 -190q-31 0 -60 31q-9 10 -4.5 17t27.5 17q163 72 276 171q-42 12 -83 56q-95 103 -8 234q43 64 105.5 106.5t130.5 42.5q29 0 44.5 -7t29.5 -27q35 -5 57.5 -44.5t22.5 -101.5q0 -94 -66 -196q-59 -91 -166 -163t-236 -120q-46 -16 -70 -16zM234 292
q-26 -49 -37 -98.5t-2 -73.5q44 -6 107 20l36 48q36 52 53.5 101.5t16 83t-18.5 47.5q-44 -7 -85.5 -40.5t-69.5 -87.5z" />
    <glyph glyph-name="uni00200326" horiz-adv-x="333" 
d="M-122 -226q-4 1 -5.5 4.5t2.5 5.5q66 50 119 142q6 10 10 10q7 0 27 -8.5t32 -17.5q13 -10 7 -26q-7 -20 -35 -50t-52 -45q-27 -16 -64 -18q-23 0 -41 3z" />
    <glyph glyph-name="quoteright.alt" horiz-adv-x="1" 
d="M131 456q-5 -1 -17 -3.5t-21 -4.5t-14 -2q-10 0 -13 6.5t4 12.5q97 97 119 163q8 25 16 25q5 0 52 -17q34 -13 13 -63q-24 -53 -87 -96q-25 -17 -52 -21z" />
    <glyph glyph-name="acute.uc" horiz-adv-x="333" 
d="M251 453q117 46 182 93q11 8 20 -2q16 -16 26 -38q18 -38 -27 -55q-22 -9 -68.5 -18t-80.5 -9q-13 0 -25 4q-20 7 -28 12q-4 2 -5 5t0.5 5t5.5 3z" />
    <glyph glyph-name="grave.uc" horiz-adv-x="333" 
d="M261 479q-16 7 -8 26q8 17 25 38q15 18 28 18.5t29 -13.5q19 -15 47 -46q22 -30 30 -51q10 -32 10 -47q0 -8 -4.5 -10t-10.5 2q-70 53 -146 83z" />
    <glyph glyph-name="zero.30" horiz-adv-x="570" 
d="M240 -25q-26 0 -60.5 9.5t-57.5 25.5q-36 23 -48.5 57t-12.5 89q0 109 89 235q75 103 173.5 168.5t173.5 65.5q35 0 54 -13q39 -10 63 -49t24 -95q0 -120 -64 -233q-69 -120 -162 -190t-172 -70zM202 107q0 -21 6 -39q90 14 176.5 87t138 167t51.5 171q0 41 -20 61
q-141 -59 -270 -236q-34 -46 -58 -106t-24 -105z" />
    <glyph glyph-name="one.30" horiz-adv-x="355" 
d="M-10 -24q-8 -1 -10.5 2t1.5 10q169 232 314 473q-67 -45 -135 -81q-10 -4 -10 3q0 32 31 55q117 87 200 181q17 18 26 18q15 0 59 -39q20 -18 27.5 -31t2 -41t-32.5 -71q-42 -68 -132.5 -197t-156.5 -215q-21 -27 -39.5 -37.5t-57.5 -18.5q-33 -7 -87 -11z" />
    <glyph glyph-name="two.30" horiz-adv-x="445" 
d="M33 -10q-36 0 -51 6.5t-15 25.5q0 71 51 120q95 93 302 210q108 61 108 114q0 21 -19.5 33t-50.5 12q-63 0 -161 -55q-9 -5 -12 -1.5t2 11.5q16 34 41 72q27 42 56 56q65 31 132 31q72 0 114 -30.5t42 -80.5q0 -61 -43.5 -110.5t-151.5 -105.5q-68 -35 -109.5 -57.5
t-95 -57.5t-91.5 -70q189 1 312 21q8 1 11.5 -0.5t2.5 -6.5q-2 -17 -42 -72q-21 -29 -53 -41.5t-95 -17.5q-86 -6 -184 -6z" />
    <glyph glyph-name="three.30" horiz-adv-x="410" 
d="M54 -40q-33 0 -52.5 14.5t-31.5 51.5q-5 17 -5.5 29t2 17t7.5 5q146 1 243.5 50t116.5 105q-42 40 -184 45q-10 0 -10 8q0 15 22 52q18 31 74 41q84 15 119 33.5t44 48.5q7 24 -10 40t-64 16q-64 0 -142 -33q-9 -4 -11 -1t2 11q17 37 37 63q20 24 50 38q59 31 121 31
q100 0 138 -49t13 -115q-16 -43 -70 -74t-130 -43q38 -25 55 -78q19 -62 -2 -122t-73 -101q-107 -83 -259 -83z" />
    <glyph glyph-name="four.30" horiz-adv-x="525" 
d="M133 -43q-11 0 -3 14q48 77 118 187q-89 -6 -149 -6q-40 0 -47 25q-8 28 -8 47q0 38 42 80q82 80 201 170.5t202 138.5q19 11 30 11q25 0 67 -24q76 -44 53 -83q-54 -92 -153 -241h58q14 0 14 -6q0 -11 -31 -61q-20 -32 -67 -36q-30 -2 -45 -4q-54 -81 -109 -161
q-1 -1 -3.5 -5t-3.5 -5.5l-3 -4.5t-3.5 -4.5l-4 -4t-4 -3.5l-4.5 -3t-6 -2.5t-6.5 -1.5t-7.5 -2q-122 -15 -127 -15zM148 271q50 1 175 3q143 221 187 294q-242 -175 -362 -297z" />
    <glyph glyph-name="five.30" horiz-adv-x="415" 
d="M64 -40q-57 0 -87 51q-8 15 -11 30t-1 24.5t8 10.5q155 17 266 76t118 131q-26 10 -82 5t-115 -25q-24 -8 -31 -1q-12 13 -19 30q-11 23 7 47q51 74 127 175q-3 5 -7 15q-10 30 -10 48q0 9 11 9q24 3 62 6q3 5 12 17.5t14 19.5q17 26 24 26q8 0 16 -11q2 -3 7 -9t7 -9
t3.5 -7.5t-0.5 -9.5t-6 -12q159 12 246 12q10 0 10 -7q0 -15 -20 -45q-37 -63 -111 -69q-94 -9 -202 -9q-36 -54 -55 -83q74 -3 110.5 -29t55.5 -68q12 -25 12 -61q-1 -75 -59 -140.5t-139.5 -101.5t-160.5 -36z" />
    <glyph glyph-name="six.30" 
d="M222 -30q-60 -3 -92 35q-52 31 -71.5 83t-8.5 106.5t44 105.5q70 108 169.5 181t236.5 127q45 17 72 17q26 0 59 -11q32 -11 -4 -27q-177 -89 -288 -195q60 -7 101 -49q43 -46 43.5 -108t-41.5 -126t-99.5 -100.5t-120.5 -38.5zM214 237q-31 -49 -40 -98t2 -72
q52 5 103 35.5t85 80.5q56 80 36 128q-61 28 -159 -34q-18 -26 -27 -40z" />
    <glyph glyph-name="seven.30" horiz-adv-x="415" 
d="M-39 -42q-6 0 -6 5q0 8 30 42q187 214 378 424q22 23 51 56q-74 -2 -241 -14q-7 0 -7 6q0 16 67 91q25 27 65 30q166 14 276 14q19 0 21 -11q4 -16 4 -29q0 -20 -33 -58q-78 -88 -231 -245t-236 -235q-53 -54 -96 -66q-33 -10 -42 -10z" />
    <glyph glyph-name="eight.30" horiz-adv-x="460" 
d="M172 -25q-43 0 -68 14q-48 12 -73.5 45.5t-25.5 73.5q0 61 47.5 110.5t156.5 93.5q-30 51 -30 99q0 77 73 145.5t166 68.5q47 0 75 -19q39 -16 61 -45.5t22 -65.5q0 -59 -41.5 -102.5t-136.5 -86.5q42 -68 42 -116q0 -81 -74.5 -148t-193.5 -67zM321 466q0 -43 44 -111
q108 60 108 156q0 35 -16 55q-11 4 -26 4q-41 0 -75.5 -29t-34.5 -75zM116 107q0 -59 64 -76q53 3 88 32t35 71q0 23 -10.5 49t-20 39.5t-31.5 43.5q-69 -35 -97 -73.5t-28 -85.5z" />
    <glyph glyph-name="nine.30" 
d="M24 -39q-27 0 -58 14q-15 5 -16.5 15.5t12.5 15.5q194 78 312 188q-71 10 -110 45q-44 40 -43 102.5t45 129.5q44 69 113.5 111.5t125.5 42.5q41 0 64 -18q55 -15 78.5 -71t8.5 -136t-68 -157q-136 -200 -401 -274q-35 -8 -63 -8zM296 448q-37 -54 -47 -105t10 -78
q52 -10 106 28q35 44 56 77q45 70 43.5 125t-40.5 71q-60 -19 -128 -118z" />
    <glyph glyph-name="zero.31" horiz-adv-x="570" 
d="M240 -25q-25 0 -66 15t-67 34q-46 33 -46 132q0 109 89 235q77 105 178 174.5t169 69.5q17 0 29 -10t30 -33q37 -15 58.5 -53.5t21.5 -93.5q0 -101 -62 -210q-69 -120 -162 -190t-172 -70zM205 133q0 -40 16 -66q78 5 161.5 74.5t136 163.5t52.5 170q-2 45 -21 67
q-157 -63 -276 -224q-69 -93 -69 -185z" />
    <glyph glyph-name="one.31" horiz-adv-x="355" 
d="M22 -16q-20 0 -26 4t0 14q34 52 96 149t114.5 178t99.5 152q-88 -64 -128 -97q-12 -9 -17 3q-6 13 -2 23.5t22 27.5q157 146 201 182q18 15 32 15q20 0 53 -34q20 -22 27 -39.5t-1.5 -49t-40.5 -75.5q-160 -224 -268 -384q-19 -29 -43.5 -43t-63.5 -21q-30 -5 -55 -5z
" />
    <glyph glyph-name="two.31" horiz-adv-x="445" 
d="M37 -8q-29 0 -40.5 5.5t-16.5 18.5q-8 21 -8 39t9.5 35t33.5 46q65 79 217 160q41 20 60.5 30.5t51 29.5t46.5 32.5t27 32.5t12 38q0 21 -19 32t-42 11q-41 0 -78.5 -14t-92.5 -49q-14 -9 -14 2q-1 5 3 14q42 104 86 128q63 34 131 34q75 0 121.5 -37.5t46.5 -89.5
q0 -66 -62.5 -115.5t-236.5 -131.5q-120 -57 -178 -126q166 11 282 11q27 0 27 -10q0 -3 -1.5 -6t-4.5 -8t-6.5 -10t-10 -13.5t-11.5 -16.5q-25 -35 -50 -47t-68 -15q-129 -10 -214 -10z" />
    <glyph glyph-name="three.31" horiz-adv-x="410" 
d="M56 -40q-42 0 -59.5 15.5t-28.5 50.5q-18 60 6 60q2 0 21 -2.5t33 -2.5q122 0 201.5 39.5t106.5 91.5q-18 25 -61.5 43.5t-105.5 21.5q-10 0 -10 9q0 5 4 15t6 18q11 37 71 49q146 30 161 92q6 27 -10.5 45t-54.5 18q-64 0 -147 -57q-6 -4 -11.5 -4t-8.5 4t-1 9
q15 35 33 63q26 41 61 58q61 29 124 29q82 0 120 -35t38 -82q0 -54 -60 -102t-158 -64q34 -29 52 -59q28 -45 23.5 -90t-28 -82.5t-62.5 -67.5q-48 -37 -123 -60t-132 -23z" />
    <glyph glyph-name="four.31" horiz-adv-x="525" 
d="M145 -59q-19 0 -9 24q39 71 107 185q-76 -4 -145 -4q-39 0 -46 26q-8 28 -8 47q0 56 59 104q78 62 209 162t146 112q49 37 67 37q28 0 68 -26q74 -46 36 -108q-48 -78 -150 -233l55 3q18 1 18 -6q0 -4 -4.5 -12.5t-12.5 -22.5t-13 -26q-16 -37 -68 -41q-6 0 -22.5 -1.5
t-26.5 -2.5q-80 -117 -116 -164q-30 -36 -58 -41q-12 -2 -32 -5t-34 -5t-20 -2zM149 262q63 -2 163 0q106 168 199 301q-153 -104 -362 -301z" />
    <glyph glyph-name="five.31" horiz-adv-x="415" 
d="M65 -30q-31 0 -49.5 8t-33.5 35q-13 24 -13.5 43t12.5 21q147 17 256.5 69t127.5 116q-30 12 -82.5 12.5t-110.5 -12.5q-22 -5 -34 1q-18 12 -26 22q-14 18 8 50q84 126 124 182q-11 28 -11 55q0 11 5.5 15t21.5 4q23 0 37 1q27 37 36 37q10 0 19 -8q19 -16 19 -26
q127 6 243 18q20 2 20 -7t-20 -45q-22 -36 -40.5 -48.5t-50.5 -17.5q-145 -21 -224 -21q-14 -19 -70 -93q88 -1 124.5 -18.5t51.5 -57.5q20 -50 20 -95q0 -59 -57.5 -116t-141 -90.5t-161.5 -33.5z" />
    <glyph glyph-name="six.31" 
d="M215 -30q-41 0 -70 21q-29 10 -54 42q-43 57 -41 129.5t44 137.5q134 207 396 309q40 16 67 16q11 0 19.5 -3t20.5 -8.5t24 -9.5q31 -10 -4 -27q-170 -77 -276 -188q52 -12 93 -56q50 -55 50 -109q0 -83 -80 -168.5t-189 -85.5zM233 257q-44 -62 -59.5 -115t-4.5 -85
q51 4 101 35.5t84 84.5q49 75 36 127q-46 26 -125 -3q-29 -40 -32 -44z" />
    <glyph glyph-name="seven.31" horiz-adv-x="415" 
d="M19 -59q-7 0 -9.5 9t-1.5 34q0 36 61 114q160 203 342 391q-150 -9 -223 -10q-14 0 -14 7q0 6 3.5 13.5t8.5 14t16.5 21.5t21.5 28q26 36 81 39q34 2 121.5 7t132.5 8q21 1 24 -11q6 -24 6 -44q0 -21 -32 -53q-284 -277 -488 -520q-39 -48 -50 -48z" />
    <glyph glyph-name="eight.31" horiz-adv-x="460" 
d="M182 -35q-42 0 -68 13q-53 15 -81 54t-28 84q0 60 47 107.5t155 88.5q-32 45 -32 89q0 79 72 149.5t161 70.5q28 0 47 -11q55 -8 87.5 -40t32.5 -73q0 -57 -43.5 -98.5t-143.5 -85.5q52 -73 52 -124q0 -80 -76 -152t-182 -72zM317 457q0 -40 38 -98q116 57 116 137
q0 42 -28 70q-43 12 -84.5 -22.5t-41.5 -86.5zM179 31q52 0 94.5 37t42.5 86q0 8 -3.5 18t-7 17.5t-12.5 19t-14.5 18t-18 20.5t-17.5 20q-122 -59 -122 -158q0 -51 37 -76q12 -2 21 -2z" />
    <glyph glyph-name="nine.31" 
d="M22 -50q-31 0 -60 31q-9 10 -4.5 17t27.5 17q163 72 276 171q-42 12 -83 56q-95 103 -8 234q43 64 105.5 106.5t130.5 42.5q29 0 44.5 -7t29.5 -27q35 -5 57.5 -44.5t22.5 -101.5q0 -94 -66 -196q-59 -91 -166 -163t-236 -120q-46 -16 -70 -16zM284 432
q-26 -49 -37 -98.5t-2 -73.5q44 -6 107 20l36 48q36 52 53.5 101.5t16 83t-18.5 47.5q-44 -7 -85.5 -40.5t-69.5 -87.5z" />
    <glyph glyph-name="zero.dnom" horiz-adv-x="350" 
d="M125 -13q-34 0 -64 20q-50 36 -50 91q0 59 47 126q41 53 94 86.5t92 33.5q18 0 34 -7h2q33 0 54 -27t21 -72q0 -82 -71.5 -166.5t-158.5 -84.5zM152 182q-55 -79 -36 -124q77 11 131 75t54 116q0 40 -26 46q-67 -32 -123 -113z" />
    <glyph glyph-name="one.dnom" horiz-adv-x="235" 
d="M-16 -13q-9 0 -4 8q78 109 147 221q-55 -26 -69 -26q-8 0 -8 13q0 26 20 37q82 47 127 101q11 11 16 11q10 0 36 -23q14 -12 19 -21.5t1 -29t-22 -49.5q-60 -102 -137 -204q-14 -20 -60 -30q-64 -8 -66 -8z" />
    <glyph glyph-name="two.dnom" horiz-adv-x="280" 
d="M1 -6q-26 0 -37 4t-11 16q0 19 18 47q23 35 64 65.5t76 47.5t61.5 35.5t26.5 34.5q0 21 -29 21q-47 0 -103 -38q-6 -4 -8 -1t1 8q4 9 27 49q19 29 40 39q47 22 87 22q47 0 73 -22t26 -56q0 -38 -29.5 -65.5t-68 -41.5t-87 -35t-74.5 -44q118 3 170 13q11 1 11 -3
q0 -11 -27 -57q-17 -29 -59 -33q-77 -6 -148 -6z" />
    <glyph glyph-name="three.dnom" horiz-adv-x="265" 
d="M22 -21q-38 0 -47 37q-12 46 6 46q86 4 134 23t56 38q-10 18 -93 21q-16 0 -16 8q0 13 14 34q10 18 42 23q83 14 83 43q0 19 -42 19q-47 0 -86 -17q-6 -3 -8.5 0.5t0.5 8.5q11 27 25 43q9 12 31 22q37 17 89 17q46 0 69.5 -17.5t23.5 -47.5q0 -69 -104 -94q35 -27 35 -72
q0 -62 -63 -98.5t-149 -36.5z" />
    <glyph glyph-name="four.dnom" horiz-adv-x="330" 
d="M78 -23q-5 0 -7 4t2 10q32 52 49 78q-60 -2 -86 -2q-23 0 -25 12q-10 43 -10 44q0 20 24 44q46 42 111.5 90.5t107.5 73.5q36 21 75 -1q31 -19 40 -31t-1 -30q-16 -29 -73 -115h33q11 0 11 -4q0 -10 -23 -46q-15 -24 -51 -27q-4 -1 -11.5 -1.5t-11.5 -0.5
q-8 -11 -21.5 -31.5t-18.5 -27.5q-22 -30 -46 -33q-35 -6 -68 -6zM90 153l86 1q57 87 88 137q-117 -84 -174 -138z" />
    <glyph glyph-name="five.dnom" horiz-adv-x="265" 
d="M21 -22q-27 0 -48 38q-8 16 -7 30.5t9 15.5q78 8 135 31.5t64 51.5q-28 9 -102 -4q-27 -5 -35 17q-6 14 3 28q17 26 50 70t35 46q17 22 38 24q99 9 165 9q21 0 5 -29q-18 -31 -37.5 -43t-55.5 -17q-8 0 -22.5 -0.5t-32.5 -1.5t-28 -1q-3 -4 -17 -25q98 -22 98 -87
q-1 -63 -68 -108t-149 -45z" />
    <glyph glyph-name="six.dnom" horiz-adv-x="290" 
d="M128 -17q-26 -2 -48 11q-59 24 -71 79t28 115q59 91 207 146q22 9 36 9q32 0 55 -9q17 -6 -7 -18q-83 -39 -144 -98q34 -8 54 -24q27 -22 30.5 -60.5t-19.5 -73.5q-49 -74 -121 -77zM202 161q-31 13 -77 -12q-47 -66 -32 -101q62 7 93 53q25 34 16 60z" />
    <glyph glyph-name="seven.dnom" horiz-adv-x="270" 
d="M-34 -23q-3 0 -3 3q0 6 14 23q26 29 92.5 103t92.5 103q24 25 34 38q-75 -2 -130 -7q-7 0 -7 6q0 11 40 60q17 21 49 23q104 8 172 8q14 0 17 -7q3 -8 3 -15q0 -12 -18 -32q-42 -47 -126 -133.5t-131 -130.5q-29 -31 -53 -37q-22 -5 -46 -5z" />
    <glyph glyph-name="eight.dnom" horiz-adv-x="300" 
d="M107 -14q-65 0 -94.5 25t-29.5 58q0 34 28.5 59.5t89.5 48.5q-16 25 -16 49q0 45 40 81.5t104 36.5q57 0 84.5 -24.5t27.5 -57.5q0 -58 -105 -97q25 -34 25 -60q0 -47 -38.5 -83t-115.5 -36zM188 251q0 -20 20 -49q58 31 58 63q0 12 -9 20t-24 8q-17 0 -31 -11.5
t-14 -30.5zM103 41q20 0 36.5 12t16.5 31q0 24 -28 58q-36 -18 -53 -33.5t-17 -34.5q0 -33 45 -33z" />
    <glyph glyph-name="nine.dnom" horiz-adv-x="295" 
d="M32 -18q-32 0 -55 9q-17 6 7 18q81 39 139 94q-66 13 -81 64t24 103q53 74 128 74q36 0 47 -17q54 -25 63 -78.5t-29 -111.5q-59 -91 -207 -146q-22 -9 -36 -9zM120 176q0 -17 10 -26q23 2 48 14q34 46 43 85t-7 51q-40 -12 -67 -49.5t-27 -74.5z" />
    <glyph glyph-name="zero.numr" horiz-adv-x="350" 
d="M249 256q-34 0 -64 20q-50 36 -50 91q0 59 47 126q41 53 94 86.5t92 33.5q18 0 34 -7h2q33 0 54 -27t21 -72q0 -82 -71.5 -166.5t-158.5 -84.5zM276 451q-55 -79 -36 -124q77 11 131 75t54 116q0 40 -26 46q-67 -32 -123 -113z" />
    <glyph glyph-name="one.numr" horiz-adv-x="235" 
d="M108 256q-9 0 -4 8q78 109 147 221q-55 -26 -69 -26q-8 0 -8 13q0 26 20 37q82 47 127 101q11 11 16 11q10 0 36 -23q14 -12 19 -21.5t1 -29t-22 -49.5q-60 -102 -137 -204q-14 -20 -60 -30q-64 -8 -66 -8z" />
    <glyph glyph-name="two.numr" horiz-adv-x="280" 
d="M125 263q-26 0 -37 4t-11 16q0 19 18 47q23 35 64 65.5t76 47.5t61.5 35.5t26.5 34.5q0 21 -29 21q-47 0 -103 -38q-6 -4 -8 -1t1 8q4 9 27 49q19 29 40 39q47 22 87 22q47 0 73 -22t26 -56q0 -38 -29.5 -65.5t-68 -41.5t-87 -35t-74.5 -44q118 3 170 13q11 1 11 -3
q0 -11 -27 -57q-17 -29 -59 -33q-76 -6 -148 -6z" />
    <glyph glyph-name="three.numr" horiz-adv-x="265" 
d="M146 248q-38 0 -47 37q-12 46 6 46q86 4 134 23t56 38q-10 18 -93 21q-16 0 -16 8q0 13 14 34q10 18 42 23q83 14 83 43q0 19 -42 19q-47 0 -86 -17q-6 -3 -8.5 0.5t0.5 8.5q11 27 25 43q9 12 31 22q37 17 89 17q46 0 69.5 -17.5t23.5 -47.5q0 -69 -104 -94
q35 -27 35 -72q0 -62 -63 -98.5t-149 -36.5z" />
    <glyph glyph-name="four.numr" horiz-adv-x="330" 
d="M202 246q-5 0 -7 4t2 10q32 52 49 78q-60 -2 -86 -2q-23 0 -25 12q-10 43 -10 44q0 20 24 44q46 42 111.5 90.5t107.5 73.5q36 21 75 -1q31 -19 40 -31t-1 -30q-16 -29 -73 -115h33q11 0 11 -4q0 -10 -23 -46q-15 -24 -51 -27q-4 -1 -11.5 -1.5t-11.5 -0.5
q-8 -11 -21.5 -31.5t-18.5 -27.5q-22 -30 -46 -33q-34 -6 -68 -6zM214 422l86 1q57 87 88 137q-117 -84 -174 -138z" />
    <glyph glyph-name="five.numr" horiz-adv-x="265" 
d="M145 247q-27 0 -48 38q-8 16 -7 30.5t9 15.5q78 8 135 31.5t64 51.5q-28 9 -102 -4q-27 -5 -35 17q-6 14 3 28q17 26 50 70t35 46q17 22 38 24q99 9 165 9q21 0 5 -29q-18 -31 -37.5 -43t-55.5 -17q-8 0 -22.5 -0.5t-32.5 -1.5t-28 -1q-3 -4 -17 -25q98 -22 98 -87
q-1 -63 -68 -108t-149 -45z" />
    <glyph glyph-name="six.numr" horiz-adv-x="290" 
d="M252 252q-26 -2 -48 11q-59 24 -71 79t28 115q59 91 207 146q22 9 36 9q32 0 55 -9q17 -6 -7 -18q-83 -39 -144 -98q34 -8 54 -24q27 -22 30.5 -60.5t-19.5 -73.5q-49 -74 -121 -77zM326 430q-31 13 -77 -12q-47 -66 -32 -101q62 7 93 53q25 34 16 60z" />
    <glyph glyph-name="seven.numr" horiz-adv-x="270" 
d="M90 246q-3 0 -3 3q0 6 14 23q26 29 92.5 103t92.5 103q24 25 34 38q-75 -2 -130 -7q-7 0 -7 6q0 11 40 60q17 21 49 23q104 8 172 8q14 0 17 -7q3 -8 3 -15q0 -12 -18 -32q-42 -47 -126 -133.5t-131 -130.5q-29 -31 -53 -37q-22 -5 -46 -5z" />
    <glyph glyph-name="eight.numr" horiz-adv-x="300" 
d="M231 255q-65 0 -94.5 25t-29.5 58q0 34 28.5 59.5t89.5 48.5q-16 25 -16 49q0 45 40 81.5t104 36.5q57 0 84.5 -24.5t27.5 -57.5q0 -58 -105 -97q25 -34 25 -60q0 -47 -38.5 -83t-115.5 -36zM312 520q0 -20 20 -49q58 31 58 63q0 12 -9 20t-24 8q-17 0 -31 -11.5
t-14 -30.5zM227 310q20 0 36.5 12t16.5 31q0 24 -28 58q-36 -18 -53 -33.5t-17 -34.5q0 -33 45 -33z" />
    <glyph glyph-name="nine.numr" horiz-adv-x="295" 
d="M156 251q-32 0 -55 9q-17 6 7 18q81 39 139 94q-66 13 -81 64t24 103q53 74 128 74q36 0 47 -17q54 -25 63 -78.5t-29 -111.5q-59 -91 -207 -146q-22 -9 -36 -9zM244 445q0 -17 10 -26q23 2 48 14q34 46 43 85t-7 51q-40 -12 -67 -49.5t-27 -74.5z" />
    <glyph glyph-name="a.11" horiz-adv-x="475" 
d="M312 -23q-85 0 -63 112q-76 -105 -130 -105q-29 0 -57 21t-47 54q-38 66 36 162q46 61 110.5 98.5t110.5 37.5q39 0 71 -54q9 12 22 12q16 0 57 -19q33 -16 33 -34q0 -17 -40 -98q-37 -79 -41 -112q34 8 70.5 39t87.5 98l3 4q8 11 12 7l3 -3q8 -8 2 -19l-3 -5
q-52 -87 -116 -141.5t-121 -54.5zM134 56q91 32 192 218q-62 -16 -120 -74q-36 -36 -56 -75.5t-16 -68.5z" />
    </font>
</defs>
</svg>
